<?xml version="1.0" encoding="utf-8" standalone="no"?>
<!DOCTYPE svg PUBLIC "-//W3C//DTD SVG 1.1//EN"
  "http://www.w3.org/Graphics/SVG/1.1/DTD/svg11.dtd">
<svg xmlns:xlink="http://www.w3.org/1999/xlink" width="916.575894pt" height="427.023125pt" viewBox="0 0 916.575894 427.023125" xmlns="http://www.w3.org/2000/svg" version="1.1">
 <metadata>
  <rdf:RDF xmlns:dc="http://purl.org/dc/elements/1.1/" xmlns:cc="http://creativecommons.org/ns#" xmlns:rdf="http://www.w3.org/1999/02/22-rdf-syntax-ns#">
   <cc:Work>
    <dc:type rdf:resource="http://purl.org/dc/dcmitype/StillImage"/>
    <dc:date>2026-06-17T21:31:33.043721</dc:date>
    <dc:format>image/svg+xml</dc:format>
    <dc:creator>
     <cc:Agent>
      <dc:title>Matplotlib v3.10.9, https://matplotlib.org/</dc:title>
     </cc:Agent>
    </dc:creator>
   </cc:Work>
  </rdf:RDF>
 </metadata>
 <defs>
  <style type="text/css">*{stroke-linejoin: round; stroke-linecap: butt}</style>
 </defs>
 <g id="figure_1">
  <g id="patch_1">
   <path d="M 0 427.023125 
L 916.575894 427.023125 
L 916.575894 0 
L 0 0 
z
" style="fill: #ffffff"/>
  </g>
  <g id="axes_1">
   <g id="patch_2">
    <path d="M 43.083125 354.78 
L 518.737727 354.78 
L 518.737727 56.15875 
L 43.083125 56.15875 
z
" style="fill: #ffffff"/>
   </g>
   <g id="matplotlib.axis_1">
    <g id="xtick_1">
     <g id="line2d_1">
      <defs>
       <path id="m94726e1085" d="M 0 0 
L 0 6 
" style="stroke: #262626; stroke-width: 0.8"/>
      </defs>
      <g>
       <use xlink:href="#m94726e1085" x="72.289987" y="354.78" style="fill: #262626; stroke: #262626; stroke-width: 0.8"/>
      </g>
     </g>
     <g id="text_1">
      <!-- 0D1A -->
      <g style="fill: #262626" transform="translate(74.875143 389.294062) rotate(-90) scale(0.1 -0.1)">
       <defs>
        <path id="ArialMT-30" d="M 266 2259 
Q 266 3072 433 3567 
Q 600 4063 929 4331 
Q 1259 4600 1759 4600 
Q 2128 4600 2406 4451 
Q 2684 4303 2865 4023 
Q 3047 3744 3150 3342 
Q 3253 2941 3253 2259 
Q 3253 1453 3087 958 
Q 2922 463 2592 192 
Q 2263 -78 1759 -78 
Q 1097 -78 719 397 
Q 266 969 266 2259 
z
M 844 2259 
Q 844 1131 1108 757 
Q 1372 384 1759 384 
Q 2147 384 2411 759 
Q 2675 1134 2675 2259 
Q 2675 3391 2411 3762 
Q 2147 4134 1753 4134 
Q 1366 4134 1134 3806 
Q 844 3388 844 2259 
z
" transform="scale(0.015625)"/>
        <path id="ArialMT-44" d="M 494 0 
L 494 4581 
L 2072 4581 
Q 2606 4581 2888 4516 
Q 3281 4425 3559 4188 
Q 3922 3881 4101 3404 
Q 4281 2928 4281 2316 
Q 4281 1794 4159 1391 
Q 4038 988 3847 723 
Q 3656 459 3429 307 
Q 3203 156 2883 78 
Q 2563 0 2147 0 
L 494 0 
z
M 1100 541 
L 2078 541 
Q 2531 541 2789 625 
Q 3047 709 3200 863 
Q 3416 1078 3536 1442 
Q 3656 1806 3656 2325 
Q 3656 3044 3420 3430 
Q 3184 3816 2847 3947 
Q 2603 4041 2063 4041 
L 1100 4041 
L 1100 541 
z
" transform="scale(0.015625)"/>
        <path id="ArialMT-31" d="M 2384 0 
L 1822 0 
L 1822 3584 
Q 1619 3391 1289 3197 
Q 959 3003 697 2906 
L 697 3450 
Q 1169 3672 1522 3987 
Q 1875 4303 2022 4600 
L 2384 4600 
L 2384 0 
z
" transform="scale(0.015625)"/>
        <path id="ArialMT-41" d="M -9 0 
L 1750 4581 
L 2403 4581 
L 4278 0 
L 3588 0 
L 3053 1388 
L 1138 1388 
L 634 0 
L -9 0 
z
M 1313 1881 
L 2866 1881 
L 2388 3150 
Q 2169 3728 2063 4100 
Q 1975 3659 1816 3225 
L 1313 1881 
z
" transform="scale(0.015625)"/>
       </defs>
       <use xlink:href="#ArialMT-30"/>
       <use xlink:href="#ArialMT-44" transform="translate(55.615234 0)"/>
       <use xlink:href="#ArialMT-31" transform="translate(127.832031 0)"/>
       <use xlink:href="#ArialMT-41" transform="translate(183.447266 0)"/>
      </g>
     </g>
    </g>
    <g id="xtick_2">
     <g id="line2d_2">
      <g>
       <use xlink:href="#m94726e1085" x="91.255481" y="354.78" style="fill: #262626; stroke: #262626; stroke-width: 0.8"/>
      </g>
     </g>
     <g id="text_2">
      <!-- 0D2A -->
      <g style="fill: #262626" transform="translate(93.840637 389.294062) rotate(-90) scale(0.1 -0.1)">
       <defs>
        <path id="ArialMT-32" d="M 3222 541 
L 3222 0 
L 194 0 
Q 188 203 259 391 
Q 375 700 629 1000 
Q 884 1300 1366 1694 
Q 2113 2306 2375 2664 
Q 2638 3022 2638 3341 
Q 2638 3675 2398 3904 
Q 2159 4134 1775 4134 
Q 1369 4134 1125 3890 
Q 881 3647 878 3216 
L 300 3275 
Q 359 3922 746 4261 
Q 1134 4600 1788 4600 
Q 2447 4600 2831 4234 
Q 3216 3869 3216 3328 
Q 3216 3053 3103 2787 
Q 2991 2522 2730 2228 
Q 2469 1934 1863 1422 
Q 1356 997 1212 845 
Q 1069 694 975 541 
L 3222 541 
z
" transform="scale(0.015625)"/>
       </defs>
       <use xlink:href="#ArialMT-30"/>
       <use xlink:href="#ArialMT-44" transform="translate(55.615234 0)"/>
       <use xlink:href="#ArialMT-32" transform="translate(127.832031 0)"/>
       <use xlink:href="#ArialMT-41" transform="translate(183.447266 0)"/>
      </g>
     </g>
    </g>
    <g id="xtick_3">
     <g id="line2d_3">
      <g>
       <use xlink:href="#m94726e1085" x="110.220976" y="354.78" style="fill: #262626; stroke: #262626; stroke-width: 0.8"/>
      </g>
     </g>
     <g id="text_3">
      <!-- 0D3A -->
      <g style="fill: #262626" transform="translate(112.806132 389.294062) rotate(-90) scale(0.1 -0.1)">
       <defs>
        <path id="ArialMT-33" d="M 269 1209 
L 831 1284 
Q 928 806 1161 595 
Q 1394 384 1728 384 
Q 2125 384 2398 659 
Q 2672 934 2672 1341 
Q 2672 1728 2419 1979 
Q 2166 2231 1775 2231 
Q 1616 2231 1378 2169 
L 1441 2663 
Q 1497 2656 1531 2656 
Q 1891 2656 2178 2843 
Q 2466 3031 2466 3422 
Q 2466 3731 2256 3934 
Q 2047 4138 1716 4138 
Q 1388 4138 1169 3931 
Q 950 3725 888 3313 
L 325 3413 
Q 428 3978 793 4289 
Q 1159 4600 1703 4600 
Q 2078 4600 2393 4439 
Q 2709 4278 2876 4000 
Q 3044 3722 3044 3409 
Q 3044 3113 2884 2869 
Q 2725 2625 2413 2481 
Q 2819 2388 3044 2092 
Q 3269 1797 3269 1353 
Q 3269 753 2831 336 
Q 2394 -81 1725 -81 
Q 1122 -81 723 278 
Q 325 638 269 1209 
z
" transform="scale(0.015625)"/>
       </defs>
       <use xlink:href="#ArialMT-30"/>
       <use xlink:href="#ArialMT-44" transform="translate(55.615234 0)"/>
       <use xlink:href="#ArialMT-33" transform="translate(127.832031 0)"/>
       <use xlink:href="#ArialMT-41" transform="translate(183.447266 0)"/>
      </g>
     </g>
    </g>
    <g id="xtick_4">
     <g id="line2d_4">
      <g>
       <use xlink:href="#m94726e1085" x="129.18647" y="354.78" style="fill: #262626; stroke: #262626; stroke-width: 0.8"/>
      </g>
     </g>
     <g id="text_4">
      <!-- 0D4A -->
      <g style="fill: #262626" transform="translate(131.771626 389.294062) rotate(-90) scale(0.1 -0.1)">
       <defs>
        <path id="ArialMT-34" d="M 2069 0 
L 2069 1097 
L 81 1097 
L 81 1613 
L 2172 4581 
L 2631 4581 
L 2631 1613 
L 3250 1613 
L 3250 1097 
L 2631 1097 
L 2631 0 
L 2069 0 
z
M 2069 1613 
L 2069 3678 
L 634 1613 
L 2069 1613 
z
" transform="scale(0.015625)"/>
       </defs>
       <use xlink:href="#ArialMT-30"/>
       <use xlink:href="#ArialMT-44" transform="translate(55.615234 0)"/>
       <use xlink:href="#ArialMT-34" transform="translate(127.832031 0)"/>
       <use xlink:href="#ArialMT-41" transform="translate(183.447266 0)"/>
      </g>
     </g>
    </g>
    <g id="xtick_5">
     <g id="line2d_5">
      <g>
       <use xlink:href="#m94726e1085" x="148.151965" y="354.78" style="fill: #262626; stroke: #262626; stroke-width: 0.8"/>
      </g>
     </g>
     <g id="text_5">
      <!-- 1D0A -->
      <g style="fill: #262626" transform="translate(150.737121 389.294062) rotate(-90) scale(0.1 -0.1)">
       <use xlink:href="#ArialMT-31"/>
       <use xlink:href="#ArialMT-44" transform="translate(55.615234 0)"/>
       <use xlink:href="#ArialMT-30" transform="translate(127.832031 0)"/>
       <use xlink:href="#ArialMT-41" transform="translate(183.447266 0)"/>
      </g>
     </g>
    </g>
    <g id="xtick_6">
     <g id="line2d_6">
      <g>
       <use xlink:href="#m94726e1085" x="167.117459" y="354.78" style="fill: #262626; stroke: #262626; stroke-width: 0.8"/>
      </g>
     </g>
     <g id="text_6">
      <!-- 1D1A -->
      <g style="fill: #262626" transform="translate(169.702615 389.294062) rotate(-90) scale(0.1 -0.1)">
       <use xlink:href="#ArialMT-31"/>
       <use xlink:href="#ArialMT-44" transform="translate(55.615234 0)"/>
       <use xlink:href="#ArialMT-31" transform="translate(127.832031 0)"/>
       <use xlink:href="#ArialMT-41" transform="translate(183.447266 0)"/>
      </g>
     </g>
    </g>
    <g id="xtick_7">
     <g id="line2d_7">
      <g>
       <use xlink:href="#m94726e1085" x="186.082954" y="354.78" style="fill: #262626; stroke: #262626; stroke-width: 0.8"/>
      </g>
     </g>
     <g id="text_7">
      <!-- 1D2A -->
      <g style="fill: #262626" transform="translate(188.66811 389.294062) rotate(-90) scale(0.1 -0.1)">
       <use xlink:href="#ArialMT-31"/>
       <use xlink:href="#ArialMT-44" transform="translate(55.615234 0)"/>
       <use xlink:href="#ArialMT-32" transform="translate(127.832031 0)"/>
       <use xlink:href="#ArialMT-41" transform="translate(183.447266 0)"/>
      </g>
     </g>
    </g>
    <g id="xtick_8">
     <g id="line2d_8">
      <g>
       <use xlink:href="#m94726e1085" x="205.048448" y="354.78" style="fill: #262626; stroke: #262626; stroke-width: 0.8"/>
      </g>
     </g>
     <g id="text_8">
      <!-- 1D3A -->
      <g style="fill: #262626" transform="translate(207.633604 389.294062) rotate(-90) scale(0.1 -0.1)">
       <use xlink:href="#ArialMT-31"/>
       <use xlink:href="#ArialMT-44" transform="translate(55.615234 0)"/>
       <use xlink:href="#ArialMT-33" transform="translate(127.832031 0)"/>
       <use xlink:href="#ArialMT-41" transform="translate(183.447266 0)"/>
      </g>
     </g>
    </g>
    <g id="xtick_9">
     <g id="line2d_9">
      <g>
       <use xlink:href="#m94726e1085" x="224.013943" y="354.78" style="fill: #262626; stroke: #262626; stroke-width: 0.8"/>
      </g>
     </g>
     <g id="text_9">
      <!-- 1D4A -->
      <g style="fill: #262626" transform="translate(226.599099 389.294062) rotate(-90) scale(0.1 -0.1)">
       <use xlink:href="#ArialMT-31"/>
       <use xlink:href="#ArialMT-44" transform="translate(55.615234 0)"/>
       <use xlink:href="#ArialMT-34" transform="translate(127.832031 0)"/>
       <use xlink:href="#ArialMT-41" transform="translate(183.447266 0)"/>
      </g>
     </g>
    </g>
    <g id="xtick_10">
     <g id="line2d_10">
      <g>
       <use xlink:href="#m94726e1085" x="242.979437" y="354.78" style="fill: #262626; stroke: #262626; stroke-width: 0.8"/>
      </g>
     </g>
     <g id="text_10">
      <!-- 2D0A -->
      <g style="fill: #262626" transform="translate(245.564593 389.294062) rotate(-90) scale(0.1 -0.1)">
       <use xlink:href="#ArialMT-32"/>
       <use xlink:href="#ArialMT-44" transform="translate(55.615234 0)"/>
       <use xlink:href="#ArialMT-30" transform="translate(127.832031 0)"/>
       <use xlink:href="#ArialMT-41" transform="translate(183.447266 0)"/>
      </g>
     </g>
    </g>
    <g id="xtick_11">
     <g id="line2d_11">
      <g>
       <use xlink:href="#m94726e1085" x="261.944932" y="354.78" style="fill: #262626; stroke: #262626; stroke-width: 0.8"/>
      </g>
     </g>
     <g id="text_11">
      <!-- 2D1A -->
      <g style="fill: #262626" transform="translate(264.530088 389.294062) rotate(-90) scale(0.1 -0.1)">
       <use xlink:href="#ArialMT-32"/>
       <use xlink:href="#ArialMT-44" transform="translate(55.615234 0)"/>
       <use xlink:href="#ArialMT-31" transform="translate(127.832031 0)"/>
       <use xlink:href="#ArialMT-41" transform="translate(183.447266 0)"/>
      </g>
     </g>
    </g>
    <g id="xtick_12">
     <g id="line2d_12">
      <g>
       <use xlink:href="#m94726e1085" x="280.910426" y="354.78" style="fill: #262626; stroke: #262626; stroke-width: 0.8"/>
      </g>
     </g>
     <g id="text_12">
      <!-- 2D2A -->
      <g style="fill: #262626" transform="translate(283.495582 389.294062) rotate(-90) scale(0.1 -0.1)">
       <use xlink:href="#ArialMT-32"/>
       <use xlink:href="#ArialMT-44" transform="translate(55.615234 0)"/>
       <use xlink:href="#ArialMT-32" transform="translate(127.832031 0)"/>
       <use xlink:href="#ArialMT-41" transform="translate(183.447266 0)"/>
      </g>
     </g>
    </g>
    <g id="xtick_13">
     <g id="line2d_13">
      <g>
       <use xlink:href="#m94726e1085" x="299.875921" y="354.78" style="fill: #262626; stroke: #262626; stroke-width: 0.8"/>
      </g>
     </g>
     <g id="text_13">
      <!-- 2D3A -->
      <g style="fill: #262626" transform="translate(302.461077 389.294062) rotate(-90) scale(0.1 -0.1)">
       <use xlink:href="#ArialMT-32"/>
       <use xlink:href="#ArialMT-44" transform="translate(55.615234 0)"/>
       <use xlink:href="#ArialMT-33" transform="translate(127.832031 0)"/>
       <use xlink:href="#ArialMT-41" transform="translate(183.447266 0)"/>
      </g>
     </g>
    </g>
    <g id="xtick_14">
     <g id="line2d_14">
      <g>
       <use xlink:href="#m94726e1085" x="318.841415" y="354.78" style="fill: #262626; stroke: #262626; stroke-width: 0.8"/>
      </g>
     </g>
     <g id="text_14">
      <!-- 2D4A -->
      <g style="fill: #262626" transform="translate(321.426571 389.294062) rotate(-90) scale(0.1 -0.1)">
       <use xlink:href="#ArialMT-32"/>
       <use xlink:href="#ArialMT-44" transform="translate(55.615234 0)"/>
       <use xlink:href="#ArialMT-34" transform="translate(127.832031 0)"/>
       <use xlink:href="#ArialMT-41" transform="translate(183.447266 0)"/>
      </g>
     </g>
    </g>
    <g id="xtick_15">
     <g id="line2d_15">
      <g>
       <use xlink:href="#m94726e1085" x="337.80691" y="354.78" style="fill: #262626; stroke: #262626; stroke-width: 0.8"/>
      </g>
     </g>
     <g id="text_15">
      <!-- 3D0A -->
      <g style="fill: #262626" transform="translate(340.392066 389.294062) rotate(-90) scale(0.1 -0.1)">
       <use xlink:href="#ArialMT-33"/>
       <use xlink:href="#ArialMT-44" transform="translate(55.615234 0)"/>
       <use xlink:href="#ArialMT-30" transform="translate(127.832031 0)"/>
       <use xlink:href="#ArialMT-41" transform="translate(183.447266 0)"/>
      </g>
     </g>
    </g>
    <g id="xtick_16">
     <g id="line2d_16">
      <g>
       <use xlink:href="#m94726e1085" x="356.772404" y="354.78" style="fill: #262626; stroke: #262626; stroke-width: 0.8"/>
      </g>
     </g>
     <g id="text_16">
      <!-- 3D1A -->
      <g style="fill: #262626" transform="translate(359.35756 389.294062) rotate(-90) scale(0.1 -0.1)">
       <use xlink:href="#ArialMT-33"/>
       <use xlink:href="#ArialMT-44" transform="translate(55.615234 0)"/>
       <use xlink:href="#ArialMT-31" transform="translate(127.832031 0)"/>
       <use xlink:href="#ArialMT-41" transform="translate(183.447266 0)"/>
      </g>
     </g>
    </g>
    <g id="xtick_17">
     <g id="line2d_17">
      <g>
       <use xlink:href="#m94726e1085" x="375.737899" y="354.78" style="fill: #262626; stroke: #262626; stroke-width: 0.8"/>
      </g>
     </g>
     <g id="text_17">
      <!-- 3D2A -->
      <g style="fill: #262626" transform="translate(378.323055 389.294062) rotate(-90) scale(0.1 -0.1)">
       <use xlink:href="#ArialMT-33"/>
       <use xlink:href="#ArialMT-44" transform="translate(55.615234 0)"/>
       <use xlink:href="#ArialMT-32" transform="translate(127.832031 0)"/>
       <use xlink:href="#ArialMT-41" transform="translate(183.447266 0)"/>
      </g>
     </g>
    </g>
    <g id="xtick_18">
     <g id="line2d_18">
      <g>
       <use xlink:href="#m94726e1085" x="394.703393" y="354.78" style="fill: #262626; stroke: #262626; stroke-width: 0.8"/>
      </g>
     </g>
     <g id="text_18">
      <!-- 3D3A -->
      <g style="fill: #262626" transform="translate(397.288549 389.294062) rotate(-90) scale(0.1 -0.1)">
       <use xlink:href="#ArialMT-33"/>
       <use xlink:href="#ArialMT-44" transform="translate(55.615234 0)"/>
       <use xlink:href="#ArialMT-33" transform="translate(127.832031 0)"/>
       <use xlink:href="#ArialMT-41" transform="translate(183.447266 0)"/>
      </g>
     </g>
    </g>
    <g id="xtick_19">
     <g id="line2d_19">
      <g>
       <use xlink:href="#m94726e1085" x="413.668888" y="354.78" style="fill: #262626; stroke: #262626; stroke-width: 0.8"/>
      </g>
     </g>
     <g id="text_19">
      <!-- 3D4A -->
      <g style="fill: #262626" transform="translate(416.254044 389.294062) rotate(-90) scale(0.1 -0.1)">
       <use xlink:href="#ArialMT-33"/>
       <use xlink:href="#ArialMT-44" transform="translate(55.615234 0)"/>
       <use xlink:href="#ArialMT-34" transform="translate(127.832031 0)"/>
       <use xlink:href="#ArialMT-41" transform="translate(183.447266 0)"/>
      </g>
     </g>
    </g>
    <g id="xtick_20">
     <g id="line2d_20">
      <g>
       <use xlink:href="#m94726e1085" x="432.634382" y="354.78" style="fill: #262626; stroke: #262626; stroke-width: 0.8"/>
      </g>
     </g>
     <g id="text_20">
      <!-- 4D0A -->
      <g style="fill: #262626" transform="translate(435.219538 389.294062) rotate(-90) scale(0.1 -0.1)">
       <use xlink:href="#ArialMT-34"/>
       <use xlink:href="#ArialMT-44" transform="translate(55.615234 0)"/>
       <use xlink:href="#ArialMT-30" transform="translate(127.832031 0)"/>
       <use xlink:href="#ArialMT-41" transform="translate(183.447266 0)"/>
      </g>
     </g>
    </g>
    <g id="xtick_21">
     <g id="line2d_21">
      <g>
       <use xlink:href="#m94726e1085" x="451.599877" y="354.78" style="fill: #262626; stroke: #262626; stroke-width: 0.8"/>
      </g>
     </g>
     <g id="text_21">
      <!-- 4D1A -->
      <g style="fill: #262626" transform="translate(454.185033 389.294062) rotate(-90) scale(0.1 -0.1)">
       <use xlink:href="#ArialMT-34"/>
       <use xlink:href="#ArialMT-44" transform="translate(55.615234 0)"/>
       <use xlink:href="#ArialMT-31" transform="translate(127.832031 0)"/>
       <use xlink:href="#ArialMT-41" transform="translate(183.447266 0)"/>
      </g>
     </g>
    </g>
    <g id="xtick_22">
     <g id="line2d_22">
      <g>
       <use xlink:href="#m94726e1085" x="470.565371" y="354.78" style="fill: #262626; stroke: #262626; stroke-width: 0.8"/>
      </g>
     </g>
     <g id="text_22">
      <!-- 4D2A -->
      <g style="fill: #262626" transform="translate(473.150527 389.294062) rotate(-90) scale(0.1 -0.1)">
       <use xlink:href="#ArialMT-34"/>
       <use xlink:href="#ArialMT-44" transform="translate(55.615234 0)"/>
       <use xlink:href="#ArialMT-32" transform="translate(127.832031 0)"/>
       <use xlink:href="#ArialMT-41" transform="translate(183.447266 0)"/>
      </g>
     </g>
    </g>
    <g id="xtick_23">
     <g id="line2d_23">
      <g>
       <use xlink:href="#m94726e1085" x="489.530866" y="354.78" style="fill: #262626; stroke: #262626; stroke-width: 0.8"/>
      </g>
     </g>
     <g id="text_23">
      <!-- free H2O -->
      <g style="fill: #262626" transform="translate(492.116022 404.84875) rotate(-90) scale(0.1 -0.1)">
       <defs>
        <path id="ArialMT-66" d="M 556 0 
L 556 2881 
L 59 2881 
L 59 3319 
L 556 3319 
L 556 3672 
Q 556 4006 616 4169 
Q 697 4388 901 4523 
Q 1106 4659 1475 4659 
Q 1713 4659 2000 4603 
L 1916 4113 
Q 1741 4144 1584 4144 
Q 1328 4144 1222 4034 
Q 1116 3925 1116 3625 
L 1116 3319 
L 1763 3319 
L 1763 2881 
L 1116 2881 
L 1116 0 
L 556 0 
z
" transform="scale(0.015625)"/>
        <path id="ArialMT-72" d="M 416 0 
L 416 3319 
L 922 3319 
L 922 2816 
Q 1116 3169 1280 3281 
Q 1444 3394 1641 3394 
Q 1925 3394 2219 3213 
L 2025 2691 
Q 1819 2813 1613 2813 
Q 1428 2813 1281 2702 
Q 1134 2591 1072 2394 
Q 978 2094 978 1738 
L 978 0 
L 416 0 
z
" transform="scale(0.015625)"/>
        <path id="ArialMT-65" d="M 2694 1069 
L 3275 997 
Q 3138 488 2766 206 
Q 2394 -75 1816 -75 
Q 1088 -75 661 373 
Q 234 822 234 1631 
Q 234 2469 665 2931 
Q 1097 3394 1784 3394 
Q 2450 3394 2872 2941 
Q 3294 2488 3294 1666 
Q 3294 1616 3291 1516 
L 816 1516 
Q 847 969 1125 678 
Q 1403 388 1819 388 
Q 2128 388 2347 550 
Q 2566 713 2694 1069 
z
M 847 1978 
L 2700 1978 
Q 2663 2397 2488 2606 
Q 2219 2931 1791 2931 
Q 1403 2931 1139 2672 
Q 875 2413 847 1978 
z
" transform="scale(0.015625)"/>
        <path id="ArialMT-20" transform="scale(0.015625)"/>
        <path id="ArialMT-48" d="M 513 0 
L 513 4581 
L 1119 4581 
L 1119 2700 
L 3500 2700 
L 3500 4581 
L 4106 4581 
L 4106 0 
L 3500 0 
L 3500 2159 
L 1119 2159 
L 1119 0 
L 513 0 
z
" transform="scale(0.015625)"/>
        <path id="ArialMT-4f" d="M 309 2231 
Q 309 3372 921 4017 
Q 1534 4663 2503 4663 
Q 3138 4663 3647 4359 
Q 4156 4056 4423 3514 
Q 4691 2972 4691 2284 
Q 4691 1588 4409 1038 
Q 4128 488 3612 205 
Q 3097 -78 2500 -78 
Q 1853 -78 1343 234 
Q 834 547 571 1087 
Q 309 1628 309 2231 
z
M 934 2222 
Q 934 1394 1379 917 
Q 1825 441 2497 441 
Q 3181 441 3623 922 
Q 4066 1403 4066 2288 
Q 4066 2847 3877 3264 
Q 3688 3681 3323 3911 
Q 2959 4141 2506 4141 
Q 1863 4141 1398 3698 
Q 934 3256 934 2222 
z
" transform="scale(0.015625)"/>
       </defs>
       <use xlink:href="#ArialMT-66"/>
       <use xlink:href="#ArialMT-72" transform="translate(27.783203 0)"/>
       <use xlink:href="#ArialMT-65" transform="translate(61.083984 0)"/>
       <use xlink:href="#ArialMT-65" transform="translate(116.699219 0)"/>
       <use xlink:href="#ArialMT-20" transform="translate(172.314453 0)"/>
       <use xlink:href="#ArialMT-48" transform="translate(200.097656 0)"/>
       <use xlink:href="#ArialMT-32" transform="translate(272.314453 0)"/>
       <use xlink:href="#ArialMT-4f" transform="translate(327.929688 0)"/>
      </g>
     </g>
    </g>
    <g id="text_24">
     <!-- Coordination State -->
     <g style="fill: #262626" transform="translate(231.214489 417.438125) scale(0.12 -0.12)">
      <defs>
       <path id="ArialMT-43" d="M 3763 1606 
L 4369 1453 
Q 4178 706 3683 314 
Q 3188 -78 2472 -78 
Q 1731 -78 1267 223 
Q 803 525 561 1097 
Q 319 1669 319 2325 
Q 319 3041 592 3573 
Q 866 4106 1370 4382 
Q 1875 4659 2481 4659 
Q 3169 4659 3637 4309 
Q 4106 3959 4291 3325 
L 3694 3184 
Q 3534 3684 3231 3912 
Q 2928 4141 2469 4141 
Q 1941 4141 1586 3887 
Q 1231 3634 1087 3207 
Q 944 2781 944 2328 
Q 944 1744 1114 1308 
Q 1284 872 1643 656 
Q 2003 441 2422 441 
Q 2931 441 3284 734 
Q 3638 1028 3763 1606 
z
" transform="scale(0.015625)"/>
       <path id="ArialMT-6f" d="M 213 1659 
Q 213 2581 725 3025 
Q 1153 3394 1769 3394 
Q 2453 3394 2887 2945 
Q 3322 2497 3322 1706 
Q 3322 1066 3130 698 
Q 2938 331 2570 128 
Q 2203 -75 1769 -75 
Q 1072 -75 642 372 
Q 213 819 213 1659 
z
M 791 1659 
Q 791 1022 1069 705 
Q 1347 388 1769 388 
Q 2188 388 2466 706 
Q 2744 1025 2744 1678 
Q 2744 2294 2464 2611 
Q 2184 2928 1769 2928 
Q 1347 2928 1069 2612 
Q 791 2297 791 1659 
z
" transform="scale(0.015625)"/>
       <path id="ArialMT-64" d="M 2575 0 
L 2575 419 
Q 2259 -75 1647 -75 
Q 1250 -75 917 144 
Q 584 363 401 755 
Q 219 1147 219 1656 
Q 219 2153 384 2558 
Q 550 2963 881 3178 
Q 1213 3394 1622 3394 
Q 1922 3394 2156 3267 
Q 2391 3141 2538 2938 
L 2538 4581 
L 3097 4581 
L 3097 0 
L 2575 0 
z
M 797 1656 
Q 797 1019 1065 703 
Q 1334 388 1700 388 
Q 2069 388 2326 689 
Q 2584 991 2584 1609 
Q 2584 2291 2321 2609 
Q 2059 2928 1675 2928 
Q 1300 2928 1048 2622 
Q 797 2316 797 1656 
z
" transform="scale(0.015625)"/>
       <path id="ArialMT-69" d="M 425 3934 
L 425 4581 
L 988 4581 
L 988 3934 
L 425 3934 
z
M 425 0 
L 425 3319 
L 988 3319 
L 988 0 
L 425 0 
z
" transform="scale(0.015625)"/>
       <path id="ArialMT-6e" d="M 422 0 
L 422 3319 
L 928 3319 
L 928 2847 
Q 1294 3394 1984 3394 
Q 2284 3394 2536 3286 
Q 2788 3178 2913 3003 
Q 3038 2828 3088 2588 
Q 3119 2431 3119 2041 
L 3119 0 
L 2556 0 
L 2556 2019 
Q 2556 2363 2490 2533 
Q 2425 2703 2258 2804 
Q 2091 2906 1866 2906 
Q 1506 2906 1245 2678 
Q 984 2450 984 1813 
L 984 0 
L 422 0 
z
" transform="scale(0.015625)"/>
       <path id="ArialMT-61" d="M 2588 409 
Q 2275 144 1986 34 
Q 1697 -75 1366 -75 
Q 819 -75 525 192 
Q 231 459 231 875 
Q 231 1119 342 1320 
Q 453 1522 633 1644 
Q 813 1766 1038 1828 
Q 1203 1872 1538 1913 
Q 2219 1994 2541 2106 
Q 2544 2222 2544 2253 
Q 2544 2597 2384 2738 
Q 2169 2928 1744 2928 
Q 1347 2928 1158 2789 
Q 969 2650 878 2297 
L 328 2372 
Q 403 2725 575 2942 
Q 747 3159 1072 3276 
Q 1397 3394 1825 3394 
Q 2250 3394 2515 3294 
Q 2781 3194 2906 3042 
Q 3031 2891 3081 2659 
Q 3109 2516 3109 2141 
L 3109 1391 
Q 3109 606 3145 398 
Q 3181 191 3288 0 
L 2700 0 
Q 2613 175 2588 409 
z
M 2541 1666 
Q 2234 1541 1622 1453 
Q 1275 1403 1131 1340 
Q 988 1278 909 1158 
Q 831 1038 831 891 
Q 831 666 1001 516 
Q 1172 366 1500 366 
Q 1825 366 2078 508 
Q 2331 650 2450 897 
Q 2541 1088 2541 1459 
L 2541 1666 
z
" transform="scale(0.015625)"/>
       <path id="ArialMT-74" d="M 1650 503 
L 1731 6 
Q 1494 -44 1306 -44 
Q 1000 -44 831 53 
Q 663 150 594 308 
Q 525 466 525 972 
L 525 2881 
L 113 2881 
L 113 3319 
L 525 3319 
L 525 4141 
L 1084 4478 
L 1084 3319 
L 1650 3319 
L 1650 2881 
L 1084 2881 
L 1084 941 
Q 1084 700 1114 631 
Q 1144 563 1211 522 
Q 1278 481 1403 481 
Q 1497 481 1650 503 
z
" transform="scale(0.015625)"/>
       <path id="ArialMT-53" d="M 288 1472 
L 859 1522 
Q 900 1178 1048 958 
Q 1197 738 1509 602 
Q 1822 466 2213 466 
Q 2559 466 2825 569 
Q 3091 672 3220 851 
Q 3350 1031 3350 1244 
Q 3350 1459 3225 1620 
Q 3100 1781 2813 1891 
Q 2628 1963 1997 2114 
Q 1366 2266 1113 2400 
Q 784 2572 623 2826 
Q 463 3081 463 3397 
Q 463 3744 659 4045 
Q 856 4347 1234 4503 
Q 1613 4659 2075 4659 
Q 2584 4659 2973 4495 
Q 3363 4331 3572 4012 
Q 3781 3694 3797 3291 
L 3216 3247 
Q 3169 3681 2898 3903 
Q 2628 4125 2100 4125 
Q 1550 4125 1298 3923 
Q 1047 3722 1047 3438 
Q 1047 3191 1225 3031 
Q 1400 2872 2139 2705 
Q 2878 2538 3153 2413 
Q 3553 2228 3743 1945 
Q 3934 1663 3934 1294 
Q 3934 928 3725 604 
Q 3516 281 3123 101 
Q 2731 -78 2241 -78 
Q 1619 -78 1198 103 
Q 778 284 539 648 
Q 300 1013 288 1472 
z
" transform="scale(0.015625)"/>
      </defs>
      <use xlink:href="#ArialMT-43"/>
      <use xlink:href="#ArialMT-6f" transform="translate(72.216797 0)"/>
      <use xlink:href="#ArialMT-6f" transform="translate(127.832031 0)"/>
      <use xlink:href="#ArialMT-72" transform="translate(183.447266 0)"/>
      <use xlink:href="#ArialMT-64" transform="translate(216.748047 0)"/>
      <use xlink:href="#ArialMT-69" transform="translate(272.363281 0)"/>
      <use xlink:href="#ArialMT-6e" transform="translate(294.580078 0)"/>
      <use xlink:href="#ArialMT-61" transform="translate(350.195312 0)"/>
      <use xlink:href="#ArialMT-74" transform="translate(405.810547 0)"/>
      <use xlink:href="#ArialMT-69" transform="translate(433.59375 0)"/>
      <use xlink:href="#ArialMT-6f" transform="translate(455.810547 0)"/>
      <use xlink:href="#ArialMT-6e" transform="translate(511.425781 0)"/>
      <use xlink:href="#ArialMT-20" transform="translate(567.041016 0)"/>
      <use xlink:href="#ArialMT-53" transform="translate(594.824219 0)"/>
      <use xlink:href="#ArialMT-74" transform="translate(661.523438 0)"/>
      <use xlink:href="#ArialMT-61" transform="translate(689.306641 0)"/>
      <use xlink:href="#ArialMT-74" transform="translate(744.921875 0)"/>
      <use xlink:href="#ArialMT-65" transform="translate(772.705078 0)"/>
     </g>
    </g>
   </g>
   <g id="matplotlib.axis_2">
    <g id="ytick_1">
     <g id="line2d_24">
      <path d="M 43.083125 354.78 
L 518.737727 354.78 
" clip-path="url(#p9f2b4f1e2e)" style="fill: none; stroke: #ebedef; stroke-opacity: 0.5; stroke-width: 0.8; stroke-linecap: round"/>
     </g>
     <g id="line2d_25">
      <defs>
       <path id="mb97d15ec92" d="M 0 0 
L -6 0 
" style="stroke: #262626; stroke-width: 0.8"/>
      </defs>
      <g>
       <use xlink:href="#mb97d15ec92" x="43.083125" y="354.78" style="fill: #262626; stroke: #262626; stroke-width: 0.8"/>
      </g>
     </g>
     <g id="text_25">
      <!-- 0 -->
      <g style="fill: #262626" transform="translate(28.022188 358.358906) scale(0.1 -0.1)">
       <use xlink:href="#ArialMT-30"/>
      </g>
     </g>
    </g>
    <g id="ytick_2">
     <g id="line2d_26">
      <path d="M 43.083125 319.074866 
L 518.737727 319.074866 
" clip-path="url(#p9f2b4f1e2e)" style="fill: none; stroke: #ebedef; stroke-opacity: 0.5; stroke-width: 0.8; stroke-linecap: round"/>
     </g>
     <g id="line2d_27">
      <g>
       <use xlink:href="#mb97d15ec92" x="43.083125" y="319.074866" style="fill: #262626; stroke: #262626; stroke-width: 0.8"/>
      </g>
     </g>
     <g id="text_26">
      <!-- 5 -->
      <g style="fill: #262626" transform="translate(28.022188 322.653772) scale(0.1 -0.1)">
       <defs>
        <path id="ArialMT-35" d="M 266 1200 
L 856 1250 
Q 922 819 1161 601 
Q 1400 384 1738 384 
Q 2144 384 2425 690 
Q 2706 997 2706 1503 
Q 2706 1984 2436 2262 
Q 2166 2541 1728 2541 
Q 1456 2541 1237 2417 
Q 1019 2294 894 2097 
L 366 2166 
L 809 4519 
L 3088 4519 
L 3088 3981 
L 1259 3981 
L 1013 2750 
Q 1425 3038 1878 3038 
Q 2478 3038 2890 2622 
Q 3303 2206 3303 1553 
Q 3303 931 2941 478 
Q 2500 -78 1738 -78 
Q 1113 -78 717 272 
Q 322 622 266 1200 
z
" transform="scale(0.015625)"/>
       </defs>
       <use xlink:href="#ArialMT-35"/>
      </g>
     </g>
    </g>
    <g id="ytick_3">
     <g id="line2d_28">
      <path d="M 43.083125 283.369732 
L 518.737727 283.369732 
" clip-path="url(#p9f2b4f1e2e)" style="fill: none; stroke: #ebedef; stroke-opacity: 0.5; stroke-width: 0.8; stroke-linecap: round"/>
     </g>
     <g id="line2d_29">
      <g>
       <use xlink:href="#mb97d15ec92" x="43.083125" y="283.369732" style="fill: #262626; stroke: #262626; stroke-width: 0.8"/>
      </g>
     </g>
     <g id="text_27">
      <!-- 10 -->
      <g style="fill: #262626" transform="translate(22.46125 286.948639) scale(0.1 -0.1)">
       <use xlink:href="#ArialMT-31"/>
       <use xlink:href="#ArialMT-30" transform="translate(55.615234 0)"/>
      </g>
     </g>
    </g>
    <g id="ytick_4">
     <g id="line2d_30">
      <path d="M 43.083125 247.664599 
L 518.737727 247.664599 
" clip-path="url(#p9f2b4f1e2e)" style="fill: none; stroke: #ebedef; stroke-opacity: 0.5; stroke-width: 0.8; stroke-linecap: round"/>
     </g>
     <g id="line2d_31">
      <g>
       <use xlink:href="#mb97d15ec92" x="43.083125" y="247.664599" style="fill: #262626; stroke: #262626; stroke-width: 0.8"/>
      </g>
     </g>
     <g id="text_28">
      <!-- 15 -->
      <g style="fill: #262626" transform="translate(22.46125 251.243505) scale(0.1 -0.1)">
       <use xlink:href="#ArialMT-31"/>
       <use xlink:href="#ArialMT-35" transform="translate(55.615234 0)"/>
      </g>
     </g>
    </g>
    <g id="ytick_5">
     <g id="line2d_32">
      <path d="M 43.083125 211.959465 
L 518.737727 211.959465 
" clip-path="url(#p9f2b4f1e2e)" style="fill: none; stroke: #ebedef; stroke-opacity: 0.5; stroke-width: 0.8; stroke-linecap: round"/>
     </g>
     <g id="line2d_33">
      <g>
       <use xlink:href="#mb97d15ec92" x="43.083125" y="211.959465" style="fill: #262626; stroke: #262626; stroke-width: 0.8"/>
      </g>
     </g>
     <g id="text_29">
      <!-- 20 -->
      <g style="fill: #262626" transform="translate(22.46125 215.538371) scale(0.1 -0.1)">
       <use xlink:href="#ArialMT-32"/>
       <use xlink:href="#ArialMT-30" transform="translate(55.615234 0)"/>
      </g>
     </g>
    </g>
    <g id="ytick_6">
     <g id="line2d_34">
      <path d="M 43.083125 176.254331 
L 518.737727 176.254331 
" clip-path="url(#p9f2b4f1e2e)" style="fill: none; stroke: #ebedef; stroke-opacity: 0.5; stroke-width: 0.8; stroke-linecap: round"/>
     </g>
     <g id="line2d_35">
      <g>
       <use xlink:href="#mb97d15ec92" x="43.083125" y="176.254331" style="fill: #262626; stroke: #262626; stroke-width: 0.8"/>
      </g>
     </g>
     <g id="text_30">
      <!-- 25 -->
      <g style="fill: #262626" transform="translate(22.46125 179.833237) scale(0.1 -0.1)">
       <use xlink:href="#ArialMT-32"/>
       <use xlink:href="#ArialMT-35" transform="translate(55.615234 0)"/>
      </g>
     </g>
    </g>
    <g id="ytick_7">
     <g id="line2d_36">
      <path d="M 43.083125 140.549197 
L 518.737727 140.549197 
" clip-path="url(#p9f2b4f1e2e)" style="fill: none; stroke: #ebedef; stroke-opacity: 0.5; stroke-width: 0.8; stroke-linecap: round"/>
     </g>
     <g id="line2d_37">
      <g>
       <use xlink:href="#mb97d15ec92" x="43.083125" y="140.549197" style="fill: #262626; stroke: #262626; stroke-width: 0.8"/>
      </g>
     </g>
     <g id="text_31">
      <!-- 30 -->
      <g style="fill: #262626" transform="translate(22.46125 144.128103) scale(0.1 -0.1)">
       <use xlink:href="#ArialMT-33"/>
       <use xlink:href="#ArialMT-30" transform="translate(55.615234 0)"/>
      </g>
     </g>
    </g>
    <g id="ytick_8">
     <g id="line2d_38">
      <path d="M 43.083125 104.844063 
L 518.737727 104.844063 
" clip-path="url(#p9f2b4f1e2e)" style="fill: none; stroke: #ebedef; stroke-opacity: 0.5; stroke-width: 0.8; stroke-linecap: round"/>
     </g>
     <g id="line2d_39">
      <g>
       <use xlink:href="#mb97d15ec92" x="43.083125" y="104.844063" style="fill: #262626; stroke: #262626; stroke-width: 0.8"/>
      </g>
     </g>
     <g id="text_32">
      <!-- 35 -->
      <g style="fill: #262626" transform="translate(22.46125 108.422969) scale(0.1 -0.1)">
       <use xlink:href="#ArialMT-33"/>
       <use xlink:href="#ArialMT-35" transform="translate(55.615234 0)"/>
      </g>
     </g>
    </g>
    <g id="ytick_9">
     <g id="line2d_40">
      <path d="M 43.083125 69.138929 
L 518.737727 69.138929 
" clip-path="url(#p9f2b4f1e2e)" style="fill: none; stroke: #ebedef; stroke-opacity: 0.5; stroke-width: 0.8; stroke-linecap: round"/>
     </g>
     <g id="line2d_41">
      <g>
       <use xlink:href="#mb97d15ec92" x="43.083125" y="69.138929" style="fill: #262626; stroke: #262626; stroke-width: 0.8"/>
      </g>
     </g>
     <g id="text_33">
      <!-- 40 -->
      <g style="fill: #262626" transform="translate(22.46125 72.717836) scale(0.1 -0.1)">
       <use xlink:href="#ArialMT-34"/>
       <use xlink:href="#ArialMT-30" transform="translate(55.615234 0)"/>
      </g>
     </g>
    </g>
    <g id="text_34">
     <!-- Percentage (%) -->
     <g style="fill: #262626" transform="translate(15.935625 247.153437) rotate(-90) scale(0.12 -0.12)">
      <defs>
       <path id="ArialMT-50" d="M 494 0 
L 494 4581 
L 2222 4581 
Q 2678 4581 2919 4538 
Q 3256 4481 3484 4323 
Q 3713 4166 3852 3881 
Q 3991 3597 3991 3256 
Q 3991 2672 3619 2267 
Q 3247 1863 2275 1863 
L 1100 1863 
L 1100 0 
L 494 0 
z
M 1100 2403 
L 2284 2403 
Q 2872 2403 3119 2622 
Q 3366 2841 3366 3238 
Q 3366 3525 3220 3729 
Q 3075 3934 2838 4000 
Q 2684 4041 2272 4041 
L 1100 4041 
L 1100 2403 
z
" transform="scale(0.015625)"/>
       <path id="ArialMT-63" d="M 2588 1216 
L 3141 1144 
Q 3050 572 2676 248 
Q 2303 -75 1759 -75 
Q 1078 -75 664 370 
Q 250 816 250 1647 
Q 250 2184 428 2587 
Q 606 2991 970 3192 
Q 1334 3394 1763 3394 
Q 2303 3394 2647 3120 
Q 2991 2847 3088 2344 
L 2541 2259 
Q 2463 2594 2264 2762 
Q 2066 2931 1784 2931 
Q 1359 2931 1093 2626 
Q 828 2322 828 1663 
Q 828 994 1084 691 
Q 1341 388 1753 388 
Q 2084 388 2306 591 
Q 2528 794 2588 1216 
z
" transform="scale(0.015625)"/>
       <path id="ArialMT-67" d="M 319 -275 
L 866 -356 
Q 900 -609 1056 -725 
Q 1266 -881 1628 -881 
Q 2019 -881 2231 -725 
Q 2444 -569 2519 -288 
Q 2563 -116 2559 434 
Q 2191 0 1641 0 
Q 956 0 581 494 
Q 206 988 206 1678 
Q 206 2153 378 2554 
Q 550 2956 876 3175 
Q 1203 3394 1644 3394 
Q 2231 3394 2613 2919 
L 2613 3319 
L 3131 3319 
L 3131 450 
Q 3131 -325 2973 -648 
Q 2816 -972 2473 -1159 
Q 2131 -1347 1631 -1347 
Q 1038 -1347 672 -1080 
Q 306 -813 319 -275 
z
M 784 1719 
Q 784 1066 1043 766 
Q 1303 466 1694 466 
Q 2081 466 2343 764 
Q 2606 1063 2606 1700 
Q 2606 2309 2336 2618 
Q 2066 2928 1684 2928 
Q 1309 2928 1046 2623 
Q 784 2319 784 1719 
z
" transform="scale(0.015625)"/>
       <path id="ArialMT-28" d="M 1497 -1347 
Q 1031 -759 709 28 
Q 388 816 388 1659 
Q 388 2403 628 3084 
Q 909 3875 1497 4659 
L 1900 4659 
Q 1522 4009 1400 3731 
Q 1209 3300 1100 2831 
Q 966 2247 966 1656 
Q 966 153 1900 -1347 
L 1497 -1347 
z
" transform="scale(0.015625)"/>
       <path id="ArialMT-25" d="M 372 3481 
Q 372 3972 619 4315 
Q 866 4659 1334 4659 
Q 1766 4659 2048 4351 
Q 2331 4044 2331 3447 
Q 2331 2866 2045 2552 
Q 1759 2238 1341 2238 
Q 925 2238 648 2547 
Q 372 2856 372 3481 
z
M 1350 4272 
Q 1141 4272 1002 4090 
Q 863 3909 863 3425 
Q 863 2984 1003 2804 
Q 1144 2625 1350 2625 
Q 1563 2625 1702 2806 
Q 1841 2988 1841 3469 
Q 1841 3913 1700 4092 
Q 1559 4272 1350 4272 
z
M 1353 -169 
L 3859 4659 
L 4316 4659 
L 1819 -169 
L 1353 -169 
z
M 3334 1075 
Q 3334 1569 3581 1911 
Q 3828 2253 4300 2253 
Q 4731 2253 5014 1945 
Q 5297 1638 5297 1041 
Q 5297 459 5011 145 
Q 4725 -169 4303 -169 
Q 3888 -169 3611 142 
Q 3334 453 3334 1075 
z
M 4316 1866 
Q 4103 1866 3964 1684 
Q 3825 1503 3825 1019 
Q 3825 581 3965 400 
Q 4106 219 4313 219 
Q 4528 219 4667 400 
Q 4806 581 4806 1063 
Q 4806 1506 4665 1686 
Q 4525 1866 4316 1866 
z
" transform="scale(0.015625)"/>
       <path id="ArialMT-29" d="M 791 -1347 
L 388 -1347 
Q 1322 153 1322 1656 
Q 1322 2244 1188 2822 
Q 1081 3291 891 3722 
Q 769 4003 388 4659 
L 791 4659 
Q 1378 3875 1659 3084 
Q 1900 2403 1900 1659 
Q 1900 816 1576 28 
Q 1253 -759 791 -1347 
z
" transform="scale(0.015625)"/>
      </defs>
      <use xlink:href="#ArialMT-50"/>
      <use xlink:href="#ArialMT-65" transform="translate(66.699219 0)"/>
      <use xlink:href="#ArialMT-72" transform="translate(122.314453 0)"/>
      <use xlink:href="#ArialMT-63" transform="translate(155.615234 0)"/>
      <use xlink:href="#ArialMT-65" transform="translate(205.615234 0)"/>
      <use xlink:href="#ArialMT-6e" transform="translate(261.230469 0)"/>
      <use xlink:href="#ArialMT-74" transform="translate(316.845703 0)"/>
      <use xlink:href="#ArialMT-61" transform="translate(344.628906 0)"/>
      <use xlink:href="#ArialMT-67" transform="translate(400.244141 0)"/>
      <use xlink:href="#ArialMT-65" transform="translate(455.859375 0)"/>
      <use xlink:href="#ArialMT-20" transform="translate(511.474609 0)"/>
      <use xlink:href="#ArialMT-28" transform="translate(539.257812 0)"/>
      <use xlink:href="#ArialMT-25" transform="translate(572.558594 0)"/>
      <use xlink:href="#ArialMT-29" transform="translate(661.474609 0)"/>
     </g>
    </g>
   </g>
   <g id="patch_3">
    <path d="M 64.703789 354.78 
L 79.876184 354.78 
L 79.876184 348.177658 
L 64.703789 348.177658 
z
" clip-path="url(#p9f2b4f1e2e)" style="fill: #d5f5e3; opacity: 0.85; stroke: #e5e7e9; stroke-width: 1.2; stroke-linejoin: miter"/>
   </g>
   <g id="patch_4">
    <path d="M 83.669283 354.78 
L 98.841679 354.78 
L 98.841679 342.775158 
L 83.669283 342.775158 
z
" clip-path="url(#p9f2b4f1e2e)" style="fill: #82e0aa; opacity: 0.85; stroke: #e5e7e9; stroke-width: 1.2; stroke-linejoin: miter"/>
   </g>
   <g id="patch_5">
    <path d="M 102.634778 354.78 
L 117.807173 354.78 
L 117.807173 353.191331 
L 102.634778 353.191331 
z
" clip-path="url(#p9f2b4f1e2e)" style="fill: #27ae60; opacity: 0.85; stroke: #e5e7e9; stroke-width: 1.2; stroke-linejoin: miter"/>
   </g>
   <g id="patch_6">
    <path d="M 121.600272 354.78 
L 136.772668 354.78 
L 136.772668 354.751768 
L 121.600272 354.751768 
z
" clip-path="url(#p9f2b4f1e2e)" style="fill: #1e8449; opacity: 0.85; stroke: #e5e7e9; stroke-width: 1.2; stroke-linejoin: miter"/>
   </g>
   <g id="patch_7">
    <path d="M 140.565767 354.78 
L 155.738162 354.78 
L 155.738162 347.171586 
L 140.565767 347.171586 
z
" clip-path="url(#p9f2b4f1e2e)" style="fill: #f9e79f; opacity: 0.85; stroke: #e5e7e9; stroke-width: 1.2; stroke-linejoin: miter"/>
   </g>
   <g id="patch_8">
    <path d="M 159.531261 354.78 
L 174.703657 354.78 
L 174.703657 281.580619 
L 159.531261 281.580619 
z
" clip-path="url(#p9f2b4f1e2e)" style="fill: #fad7a0; opacity: 0.85; stroke: #e5e7e9; stroke-width: 1.2; stroke-linejoin: miter"/>
   </g>
   <g id="patch_9">
    <path d="M 178.496756 354.78 
L 193.669151 354.78 
L 193.669151 258.433282 
L 178.496756 258.433282 
z
" clip-path="url(#p9f2b4f1e2e)" style="fill: #f5b7b1; opacity: 0.85; stroke: #e5e7e9; stroke-width: 1.2; stroke-linejoin: miter"/>
   </g>
   <g id="patch_10">
    <path d="M 197.46225 354.78 
L 212.634646 354.78 
L 212.634646 341.584298 
L 197.46225 341.584298 
z
" clip-path="url(#p9f2b4f1e2e)" style="fill: #a3e4d7; opacity: 0.85; stroke: #e5e7e9; stroke-width: 1.2; stroke-linejoin: miter"/>
   </g>
   <g id="patch_11">
    <path d="M 216.427745 354.78 
L 231.60014 354.78 
L 231.60014 354.335994 
L 216.427745 354.335994 
z
" clip-path="url(#p9f2b4f1e2e)" style="fill: #d5d8dc; opacity: 0.85; stroke: #e5e7e9; stroke-width: 1.2; stroke-linejoin: miter"/>
   </g>
   <g id="patch_12">
    <path d="M 235.393239 354.78 
L 250.565635 354.78 
L 250.565635 338.685427 
L 235.393239 338.685427 
z
" clip-path="url(#p9f2b4f1e2e)" style="fill: #f4d03f; opacity: 0.85; stroke: #e5e7e9; stroke-width: 1.2; stroke-linejoin: miter"/>
   </g>
   <g id="patch_13">
    <path d="M 254.358734 354.78 
L 269.531129 354.78 
L 269.531129 217.441013 
L 254.358734 217.441013 
z
" clip-path="url(#p9f2b4f1e2e)" style="fill: #aed6f1; opacity: 0.85; stroke: #e5e7e9; stroke-width: 1.2; stroke-linejoin: miter"/>
   </g>
   <g id="patch_14">
    <path d="M 273.324228 354.78 
L 288.496624 354.78 
L 288.496624 70.37881 
L 273.324228 70.37881 
z
" clip-path="url(#p9f2b4f1e2e)" style="fill: #a9dfbf; opacity: 0.85; stroke: #e5e7e9; stroke-width: 1.2; stroke-linejoin: miter"/>
   </g>
   <g id="patch_15">
    <path d="M 292.289723 354.78 
L 307.462118 354.78 
L 307.462118 312.220878 
L 292.289723 312.220878 
z
" clip-path="url(#p9f2b4f1e2e)" style="fill: #7fb3d8; opacity: 0.85; stroke: #e5e7e9; stroke-width: 1.2; stroke-linejoin: miter"/>
   </g>
   <g id="patch_16">
    <path d="M 311.255217 354.78 
L 326.427613 354.78 
L 326.427613 353.659719 
L 311.255217 353.659719 
z
" clip-path="url(#p9f2b4f1e2e)" style="fill: #d5d8dc; opacity: 0.85; stroke: #e5e7e9; stroke-width: 1.2; stroke-linejoin: miter"/>
   </g>
   <g id="patch_17">
    <path d="M 330.220712 354.78 
L 345.393107 354.78 
L 345.393107 354.093459 
L 330.220712 354.093459 
z
" clip-path="url(#p9f2b4f1e2e)" style="fill: #d4ac0d; opacity: 0.85; stroke: #e5e7e9; stroke-width: 1.2; stroke-linejoin: miter"/>
   </g>
   <g id="patch_18">
    <path d="M 349.186206 354.78 
L 364.358602 354.78 
L 364.358602 347.801664 
L 349.186206 347.801664 
z
" clip-path="url(#p9f2b4f1e2e)" style="fill: #d2b4de; opacity: 0.85; stroke: #e5e7e9; stroke-width: 1.2; stroke-linejoin: miter"/>
   </g>
   <g id="patch_19">
    <path d="M 368.151701 354.78 
L 383.324096 354.78 
L 383.324096 344.214969 
L 368.151701 344.214969 
z
" clip-path="url(#p9f2b4f1e2e)" style="fill: #c39bd3; opacity: 0.85; stroke: #e5e7e9; stroke-width: 1.2; stroke-linejoin: miter"/>
   </g>
   <g id="patch_20">
    <path d="M 387.117195 354.78 
L 402.289591 354.78 
L 402.289591 352.621567 
L 387.117195 352.621567 
z
" clip-path="url(#p9f2b4f1e2e)" style="fill: #d5d8dc; opacity: 0.85; stroke: #e5e7e9; stroke-width: 1.2; stroke-linejoin: miter"/>
   </g>
   <g id="patch_21">
    <path d="M 406.08269 354.78 
L 421.255085 354.78 
L 421.255085 354.763318 
L 406.08269 354.763318 
z
" clip-path="url(#p9f2b4f1e2e)" style="fill: #d5d8dc; opacity: 0.85; stroke: #e5e7e9; stroke-width: 1.2; stroke-linejoin: miter"/>
   </g>
   <g id="patch_22">
    <path d="M 425.048184 354.78 
L 440.22058 354.78 
L 440.22058 354.762034 
L 425.048184 354.762034 
z
" clip-path="url(#p9f2b4f1e2e)" style="fill: #b7950b; opacity: 0.85; stroke: #e5e7e9; stroke-width: 1.2; stroke-linejoin: miter"/>
   </g>
   <g id="patch_23">
    <path d="M 444.013679 354.78 
L 459.186075 354.78 
L 459.186075 354.679906 
L 444.013679 354.679906 
z
" clip-path="url(#p9f2b4f1e2e)" style="fill: #d5d8dc; opacity: 0.85; stroke: #e5e7e9; stroke-width: 1.2; stroke-linejoin: miter"/>
   </g>
   <g id="patch_24">
    <path d="M 462.979173 354.78 
L 478.151569 354.78 
L 478.151569 354.636276 
L 462.979173 354.636276 
z
" clip-path="url(#p9f2b4f1e2e)" style="fill: #d5d8dc; opacity: 0.85; stroke: #e5e7e9; stroke-width: 1.2; stroke-linejoin: miter"/>
   </g>
   <g id="patch_25">
    <path d="M 481.944668 354.78 
L 497.117064 354.78 
L 497.117064 353.876589 
L 481.944668 353.876589 
z
" clip-path="url(#p9f2b4f1e2e)" style="fill: #aeb6bf; opacity: 0.85; stroke: #e5e7e9; stroke-width: 1.2; stroke-linejoin: miter"/>
   </g>
   <g id="patch_26">
    <path d="M 43.083125 354.78 
L 43.083125 56.15875 
" style="fill: none; stroke: #262626; stroke-width: 1.25; stroke-linejoin: miter; stroke-linecap: square"/>
   </g>
   <g id="patch_27">
    <path d="M 518.737727 354.78 
L 518.737727 56.15875 
" style="fill: none; stroke: #262626; stroke-width: 1.25; stroke-linejoin: miter; stroke-linecap: square"/>
   </g>
   <g id="patch_28">
    <path d="M 43.083125 354.78 
L 518.737727 354.78 
" style="fill: none; stroke: #262626; stroke-width: 1.25; stroke-linejoin: miter; stroke-linecap: square"/>
   </g>
   <g id="patch_29">
    <path d="M 43.083125 56.15875 
L 518.737727 56.15875 
" style="fill: none; stroke: #262626; stroke-width: 1.25; stroke-linejoin: miter; stroke-linecap: square"/>
   </g>
   <g id="text_35">
    <!-- 0.9% -->
    <g style="fill: #34495e" transform="translate(60.893893 343.20422) scale(0.1 -0.1)">
     <defs>
      <path id="Arial-BoldMT-30" d="M 1756 4600 
Q 2422 4600 2797 4125 
Q 3244 3563 3244 2259 
Q 3244 959 2794 391 
Q 2422 -78 1756 -78 
Q 1088 -78 678 436 
Q 269 950 269 2269 
Q 269 3563 719 4131 
Q 1091 4600 1756 4600 
z
M 1756 3872 
Q 1597 3872 1472 3770 
Q 1347 3669 1278 3406 
Q 1188 3066 1188 2259 
Q 1188 1453 1269 1151 
Q 1350 850 1473 750 
Q 1597 650 1756 650 
Q 1916 650 2041 751 
Q 2166 853 2234 1116 
Q 2325 1453 2325 2259 
Q 2325 3066 2244 3367 
Q 2163 3669 2039 3770 
Q 1916 3872 1756 3872 
z
" transform="scale(0.015625)"/>
      <path id="Arial-BoldMT-2e" d="M 459 0 
L 459 878 
L 1338 878 
L 1338 0 
L 459 0 
z
" transform="scale(0.015625)"/>
      <path id="Arial-BoldMT-39" d="M 291 1059 
L 1141 1153 
Q 1172 894 1303 769 
Q 1434 644 1650 644 
Q 1922 644 2112 894 
Q 2303 1144 2356 1931 
Q 2025 1547 1528 1547 
Q 988 1547 595 1964 
Q 203 2381 203 3050 
Q 203 3747 617 4173 
Q 1031 4600 1672 4600 
Q 2369 4600 2816 4061 
Q 3263 3522 3263 2288 
Q 3263 1031 2797 475 
Q 2331 -81 1584 -81 
Q 1047 -81 715 205 
Q 384 491 291 1059 
z
M 2278 2978 
Q 2278 3403 2083 3637 
Q 1888 3872 1631 3872 
Q 1388 3872 1227 3680 
Q 1066 3488 1066 3050 
Q 1066 2606 1241 2398 
Q 1416 2191 1678 2191 
Q 1931 2191 2104 2391 
Q 2278 2591 2278 2978 
z
" transform="scale(0.015625)"/>
      <path id="Arial-BoldMT-25" d="M 278 3450 
Q 278 4066 548 4362 
Q 819 4659 1281 4659 
Q 1759 4659 2029 4364 
Q 2300 4069 2300 3450 
Q 2300 2834 2029 2537 
Q 1759 2241 1297 2241 
Q 819 2241 548 2536 
Q 278 2831 278 3450 
z
M 963 3456 
Q 963 3009 1066 2856 
Q 1144 2744 1281 2744 
Q 1422 2744 1500 2856 
Q 1600 3009 1600 3456 
Q 1600 3903 1500 4053 
Q 1422 4169 1281 4169 
Q 1144 4169 1066 4056 
Q 963 3903 963 3456 
z
M 1950 -175 
L 1300 -175 
L 3741 4659 
L 4372 4659 
L 1950 -175 
z
M 3369 1028 
Q 3369 1644 3639 1941 
Q 3909 2238 4378 2238 
Q 4850 2238 5120 1941 
Q 5391 1644 5391 1028 
Q 5391 409 5120 112 
Q 4850 -184 4388 -184 
Q 3909 -184 3639 112 
Q 3369 409 3369 1028 
z
M 4053 1031 
Q 4053 584 4156 434 
Q 4234 319 4372 319 
Q 4513 319 4588 431 
Q 4691 584 4691 1031 
Q 4691 1478 4591 1631 
Q 4513 1744 4372 1744 
Q 4231 1744 4156 1631 
Q 4053 1478 4053 1031 
z
" transform="scale(0.015625)"/>
     </defs>
     <use xlink:href="#Arial-BoldMT-30"/>
     <use xlink:href="#Arial-BoldMT-2e" transform="translate(55.615234 0)"/>
     <use xlink:href="#Arial-BoldMT-39" transform="translate(83.398438 0)"/>
     <use xlink:href="#Arial-BoldMT-25" transform="translate(139.013672 0)"/>
    </g>
   </g>
   <g id="text_36">
    <!-- 1.7% -->
    <g style="fill: #34495e" transform="translate(79.859387 337.80172) scale(0.1 -0.1)">
     <defs>
      <path id="Arial-BoldMT-31" d="M 2519 0 
L 1641 0 
L 1641 3309 
Q 1159 2859 506 2644 
L 506 3441 
Q 850 3553 1253 3867 
Q 1656 4181 1806 4600 
L 2519 4600 
L 2519 0 
z
" transform="scale(0.015625)"/>
      <path id="Arial-BoldMT-37" d="M 272 3703 
L 272 4519 
L 3275 4519 
L 3275 3881 
Q 2903 3516 2518 2831 
Q 2134 2147 1932 1376 
Q 1731 606 1734 0 
L 888 0 
Q 909 950 1279 1937 
Q 1650 2925 2269 3703 
L 272 3703 
z
" transform="scale(0.015625)"/>
     </defs>
     <use xlink:href="#Arial-BoldMT-31"/>
     <use xlink:href="#Arial-BoldMT-2e" transform="translate(55.615234 0)"/>
     <use xlink:href="#Arial-BoldMT-37" transform="translate(83.398438 0)"/>
     <use xlink:href="#Arial-BoldMT-25" transform="translate(139.013672 0)"/>
    </g>
   </g>
   <g id="text_37">
    <!-- 0.2% -->
    <g style="fill: #34495e" transform="translate(98.824882 348.217894) scale(0.1 -0.1)">
     <defs>
      <path id="Arial-BoldMT-32" d="M 3238 816 
L 3238 0 
L 159 0 
Q 209 463 459 877 
Q 709 1291 1447 1975 
Q 2041 2528 2175 2725 
Q 2356 2997 2356 3263 
Q 2356 3556 2198 3714 
Q 2041 3872 1763 3872 
Q 1488 3872 1325 3706 
Q 1163 3541 1138 3156 
L 263 3244 
Q 341 3969 753 4284 
Q 1166 4600 1784 4600 
Q 2463 4600 2850 4234 
Q 3238 3869 3238 3325 
Q 3238 3016 3127 2736 
Q 3016 2456 2775 2150 
Q 2616 1947 2200 1565 
Q 1784 1184 1673 1059 
Q 1563 934 1494 816 
L 3238 816 
z
" transform="scale(0.015625)"/>
     </defs>
     <use xlink:href="#Arial-BoldMT-30"/>
     <use xlink:href="#Arial-BoldMT-2e" transform="translate(55.615234 0)"/>
     <use xlink:href="#Arial-BoldMT-32" transform="translate(83.398438 0)"/>
     <use xlink:href="#Arial-BoldMT-25" transform="translate(139.013672 0)"/>
    </g>
   </g>
   <g id="text_38">
    <!-- 0.0% -->
    <g style="fill: #34495e" transform="translate(117.790376 349.778331) scale(0.1 -0.1)">
     <use xlink:href="#Arial-BoldMT-30"/>
     <use xlink:href="#Arial-BoldMT-2e" transform="translate(55.615234 0)"/>
     <use xlink:href="#Arial-BoldMT-30" transform="translate(83.398438 0)"/>
     <use xlink:href="#Arial-BoldMT-25" transform="translate(139.013672 0)"/>
    </g>
   </g>
   <g id="text_39">
    <!-- 1.1% -->
    <g style="fill: #34495e" transform="translate(136.755871 342.198149) scale(0.1 -0.1)">
     <use xlink:href="#Arial-BoldMT-31"/>
     <use xlink:href="#Arial-BoldMT-2e" transform="translate(55.615234 0)"/>
     <use xlink:href="#Arial-BoldMT-31" transform="translate(83.398438 0)"/>
     <use xlink:href="#Arial-BoldMT-25" transform="translate(139.013672 0)"/>
    </g>
   </g>
   <g id="text_40">
    <!-- 10.3% -->
    <g style="fill: #34495e" transform="translate(152.940897 276.607182) scale(0.1 -0.1)">
     <defs>
      <path id="Arial-BoldMT-33" d="M 241 1216 
L 1091 1319 
Q 1131 994 1309 822 
Q 1488 650 1741 650 
Q 2013 650 2198 856 
Q 2384 1063 2384 1413 
Q 2384 1744 2206 1937 
Q 2028 2131 1772 2131 
Q 1603 2131 1369 2066 
L 1466 2781 
Q 1822 2772 2009 2936 
Q 2197 3100 2197 3372 
Q 2197 3603 2059 3740 
Q 1922 3878 1694 3878 
Q 1469 3878 1309 3722 
Q 1150 3566 1116 3266 
L 306 3403 
Q 391 3819 561 4067 
Q 731 4316 1036 4458 
Q 1341 4600 1719 4600 
Q 2366 4600 2756 4188 
Q 3078 3850 3078 3425 
Q 3078 2822 2419 2463 
Q 2813 2378 3048 2084 
Q 3284 1791 3284 1375 
Q 3284 772 2843 347 
Q 2403 -78 1747 -78 
Q 1125 -78 715 280 
Q 306 638 241 1216 
z
" transform="scale(0.015625)"/>
     </defs>
     <use xlink:href="#Arial-BoldMT-31"/>
     <use xlink:href="#Arial-BoldMT-30" transform="translate(55.615234 0)"/>
     <use xlink:href="#Arial-BoldMT-2e" transform="translate(111.230469 0)"/>
     <use xlink:href="#Arial-BoldMT-33" transform="translate(139.013672 0)"/>
     <use xlink:href="#Arial-BoldMT-25" transform="translate(194.628906 0)"/>
    </g>
   </g>
   <g id="text_41">
    <!-- 13.5% -->
    <g style="fill: #34495e" transform="translate(171.906391 253.459844) scale(0.1 -0.1)">
     <defs>
      <path id="Arial-BoldMT-35" d="M 284 1178 
L 1159 1269 
Q 1197 972 1381 798 
Q 1566 625 1806 625 
Q 2081 625 2272 848 
Q 2463 1072 2463 1522 
Q 2463 1944 2273 2155 
Q 2084 2366 1781 2366 
Q 1403 2366 1103 2031 
L 391 2134 
L 841 4519 
L 3163 4519 
L 3163 3697 
L 1506 3697 
L 1369 2919 
Q 1663 3066 1969 3066 
Q 2553 3066 2959 2641 
Q 3366 2216 3366 1538 
Q 3366 972 3038 528 
Q 2591 -78 1797 -78 
Q 1163 -78 763 262 
Q 363 603 284 1178 
z
" transform="scale(0.015625)"/>
     </defs>
     <use xlink:href="#Arial-BoldMT-31"/>
     <use xlink:href="#Arial-BoldMT-33" transform="translate(55.615234 0)"/>
     <use xlink:href="#Arial-BoldMT-2e" transform="translate(111.230469 0)"/>
     <use xlink:href="#Arial-BoldMT-35" transform="translate(139.013672 0)"/>
     <use xlink:href="#Arial-BoldMT-25" transform="translate(194.628906 0)"/>
    </g>
   </g>
   <g id="text_42">
    <!-- 1.8% -->
    <g style="fill: #34495e" transform="translate(193.652354 336.610861) scale(0.1 -0.1)">
     <defs>
      <path id="Arial-BoldMT-38" d="M 1025 2472 
Q 684 2616 529 2867 
Q 375 3119 375 3419 
Q 375 3931 733 4265 
Q 1091 4600 1750 4600 
Q 2403 4600 2764 4265 
Q 3125 3931 3125 3419 
Q 3125 3100 2959 2851 
Q 2794 2603 2494 2472 
Q 2875 2319 3073 2025 
Q 3272 1731 3272 1347 
Q 3272 713 2867 316 
Q 2463 -81 1791 -81 
Q 1166 -81 750 247 
Q 259 634 259 1309 
Q 259 1681 443 1992 
Q 628 2303 1025 2472 
z
M 1206 3356 
Q 1206 3094 1354 2947 
Q 1503 2800 1750 2800 
Q 2000 2800 2150 2948 
Q 2300 3097 2300 3359 
Q 2300 3606 2151 3754 
Q 2003 3903 1759 3903 
Q 1506 3903 1356 3753 
Q 1206 3603 1206 3356 
z
M 1125 1394 
Q 1125 1031 1311 828 
Q 1497 625 1775 625 
Q 2047 625 2225 820 
Q 2403 1016 2403 1384 
Q 2403 1706 2222 1901 
Q 2041 2097 1763 2097 
Q 1441 2097 1283 1875 
Q 1125 1653 1125 1394 
z
" transform="scale(0.015625)"/>
     </defs>
     <use xlink:href="#Arial-BoldMT-31"/>
     <use xlink:href="#Arial-BoldMT-2e" transform="translate(55.615234 0)"/>
     <use xlink:href="#Arial-BoldMT-38" transform="translate(83.398438 0)"/>
     <use xlink:href="#Arial-BoldMT-25" transform="translate(139.013672 0)"/>
    </g>
   </g>
   <g id="text_43">
    <!-- 0.1% -->
    <g style="fill: #34495e" transform="translate(212.617849 349.362557) scale(0.1 -0.1)">
     <use xlink:href="#Arial-BoldMT-30"/>
     <use xlink:href="#Arial-BoldMT-2e" transform="translate(55.615234 0)"/>
     <use xlink:href="#Arial-BoldMT-31" transform="translate(83.398438 0)"/>
     <use xlink:href="#Arial-BoldMT-25" transform="translate(139.013672 0)"/>
    </g>
   </g>
   <g id="text_44">
    <!-- 2.3% -->
    <g style="fill: #34495e" transform="translate(231.583343 333.71199) scale(0.1 -0.1)">
     <use xlink:href="#Arial-BoldMT-32"/>
     <use xlink:href="#Arial-BoldMT-2e" transform="translate(55.615234 0)"/>
     <use xlink:href="#Arial-BoldMT-33" transform="translate(83.398438 0)"/>
     <use xlink:href="#Arial-BoldMT-25" transform="translate(139.013672 0)"/>
    </g>
   </g>
   <g id="text_45">
    <!-- 19.2% -->
    <g style="fill: #34495e" transform="translate(247.768369 212.467575) scale(0.1 -0.1)">
     <use xlink:href="#Arial-BoldMT-31"/>
     <use xlink:href="#Arial-BoldMT-39" transform="translate(55.615234 0)"/>
     <use xlink:href="#Arial-BoldMT-2e" transform="translate(111.230469 0)"/>
     <use xlink:href="#Arial-BoldMT-32" transform="translate(139.013672 0)"/>
     <use xlink:href="#Arial-BoldMT-25" transform="translate(194.628906 0)"/>
    </g>
   </g>
   <g id="text_46">
    <!-- 39.8% -->
    <g style="fill: #34495e" transform="translate(266.733864 65.405372) scale(0.1 -0.1)">
     <use xlink:href="#Arial-BoldMT-33"/>
     <use xlink:href="#Arial-BoldMT-39" transform="translate(55.615234 0)"/>
     <use xlink:href="#Arial-BoldMT-2e" transform="translate(111.230469 0)"/>
     <use xlink:href="#Arial-BoldMT-38" transform="translate(139.013672 0)"/>
     <use xlink:href="#Arial-BoldMT-25" transform="translate(194.628906 0)"/>
    </g>
   </g>
   <g id="text_47">
    <!-- 6.0% -->
    <g style="fill: #34495e" transform="translate(288.479827 307.24744) scale(0.1 -0.1)">
     <defs>
      <path id="Arial-BoldMT-36" d="M 3247 3459 
L 2397 3366 
Q 2366 3628 2234 3753 
Q 2103 3878 1894 3878 
Q 1616 3878 1423 3628 
Q 1231 3378 1181 2588 
Q 1509 2975 1997 2975 
Q 2547 2975 2939 2556 
Q 3331 2138 3331 1475 
Q 3331 772 2918 347 
Q 2506 -78 1859 -78 
Q 1166 -78 719 461 
Q 272 1000 272 2228 
Q 272 3488 737 4044 
Q 1203 4600 1947 4600 
Q 2469 4600 2811 4308 
Q 3153 4016 3247 3459 
z
M 1256 1544 
Q 1256 1116 1453 883 
Q 1650 650 1903 650 
Q 2147 650 2309 840 
Q 2472 1031 2472 1466 
Q 2472 1913 2297 2120 
Q 2122 2328 1859 2328 
Q 1606 2328 1431 2129 
Q 1256 1931 1256 1544 
z
" transform="scale(0.015625)"/>
     </defs>
     <use xlink:href="#Arial-BoldMT-36"/>
     <use xlink:href="#Arial-BoldMT-2e" transform="translate(55.615234 0)"/>
     <use xlink:href="#Arial-BoldMT-30" transform="translate(83.398438 0)"/>
     <use xlink:href="#Arial-BoldMT-25" transform="translate(139.013672 0)"/>
    </g>
   </g>
   <g id="text_48">
    <!-- 0.2% -->
    <g style="fill: #34495e" transform="translate(307.445321 348.686282) scale(0.1 -0.1)">
     <use xlink:href="#Arial-BoldMT-30"/>
     <use xlink:href="#Arial-BoldMT-2e" transform="translate(55.615234 0)"/>
     <use xlink:href="#Arial-BoldMT-32" transform="translate(83.398438 0)"/>
     <use xlink:href="#Arial-BoldMT-25" transform="translate(139.013672 0)"/>
    </g>
   </g>
   <g id="text_49">
    <!-- 0.1% -->
    <g style="fill: #34495e" transform="translate(326.410816 349.120022) scale(0.1 -0.1)">
     <use xlink:href="#Arial-BoldMT-30"/>
     <use xlink:href="#Arial-BoldMT-2e" transform="translate(55.615234 0)"/>
     <use xlink:href="#Arial-BoldMT-31" transform="translate(83.398438 0)"/>
     <use xlink:href="#Arial-BoldMT-25" transform="translate(139.013672 0)"/>
    </g>
   </g>
   <g id="text_50">
    <!-- 1.0% -->
    <g style="fill: #34495e" transform="translate(345.37631 342.828227) scale(0.1 -0.1)">
     <use xlink:href="#Arial-BoldMT-31"/>
     <use xlink:href="#Arial-BoldMT-2e" transform="translate(55.615234 0)"/>
     <use xlink:href="#Arial-BoldMT-30" transform="translate(83.398438 0)"/>
     <use xlink:href="#Arial-BoldMT-25" transform="translate(139.013672 0)"/>
    </g>
   </g>
   <g id="text_51">
    <!-- 1.5% -->
    <g style="fill: #34495e" transform="translate(364.341805 339.241531) scale(0.1 -0.1)">
     <use xlink:href="#Arial-BoldMT-31"/>
     <use xlink:href="#Arial-BoldMT-2e" transform="translate(55.615234 0)"/>
     <use xlink:href="#Arial-BoldMT-35" transform="translate(83.398438 0)"/>
     <use xlink:href="#Arial-BoldMT-25" transform="translate(139.013672 0)"/>
    </g>
   </g>
   <g id="text_52">
    <!-- 0.3% -->
    <g style="fill: #34495e" transform="translate(383.307299 347.648129) scale(0.1 -0.1)">
     <use xlink:href="#Arial-BoldMT-30"/>
     <use xlink:href="#Arial-BoldMT-2e" transform="translate(55.615234 0)"/>
     <use xlink:href="#Arial-BoldMT-33" transform="translate(83.398438 0)"/>
     <use xlink:href="#Arial-BoldMT-25" transform="translate(139.013672 0)"/>
    </g>
   </g>
   <g id="text_53">
    <!-- 0.0% -->
    <g style="fill: #34495e" transform="translate(402.272794 349.78988) scale(0.1 -0.1)">
     <use xlink:href="#Arial-BoldMT-30"/>
     <use xlink:href="#Arial-BoldMT-2e" transform="translate(55.615234 0)"/>
     <use xlink:href="#Arial-BoldMT-30" transform="translate(83.398438 0)"/>
     <use xlink:href="#Arial-BoldMT-25" transform="translate(139.013672 0)"/>
    </g>
   </g>
   <g id="text_54">
    <!-- 0.0% -->
    <g style="fill: #34495e" transform="translate(421.238288 349.788597) scale(0.1 -0.1)">
     <use xlink:href="#Arial-BoldMT-30"/>
     <use xlink:href="#Arial-BoldMT-2e" transform="translate(55.615234 0)"/>
     <use xlink:href="#Arial-BoldMT-30" transform="translate(83.398438 0)"/>
     <use xlink:href="#Arial-BoldMT-25" transform="translate(139.013672 0)"/>
    </g>
   </g>
   <g id="text_55">
    <!-- 0.0% -->
    <g style="fill: #34495e" transform="translate(440.203783 349.706469) scale(0.1 -0.1)">
     <use xlink:href="#Arial-BoldMT-30"/>
     <use xlink:href="#Arial-BoldMT-2e" transform="translate(55.615234 0)"/>
     <use xlink:href="#Arial-BoldMT-30" transform="translate(83.398438 0)"/>
     <use xlink:href="#Arial-BoldMT-25" transform="translate(139.013672 0)"/>
    </g>
   </g>
   <g id="text_56">
    <!-- 0.0% -->
    <g style="fill: #34495e" transform="translate(459.169277 349.662838) scale(0.1 -0.1)">
     <use xlink:href="#Arial-BoldMT-30"/>
     <use xlink:href="#Arial-BoldMT-2e" transform="translate(55.615234 0)"/>
     <use xlink:href="#Arial-BoldMT-30" transform="translate(83.398438 0)"/>
     <use xlink:href="#Arial-BoldMT-25" transform="translate(139.013672 0)"/>
    </g>
   </g>
   <g id="text_57">
    <!-- 0.1% -->
    <g style="fill: #34495e" transform="translate(478.134772 348.903152) scale(0.1 -0.1)">
     <use xlink:href="#Arial-BoldMT-30"/>
     <use xlink:href="#Arial-BoldMT-2e" transform="translate(55.615234 0)"/>
     <use xlink:href="#Arial-BoldMT-31" transform="translate(83.398438 0)"/>
     <use xlink:href="#Arial-BoldMT-25" transform="translate(139.013672 0)"/>
    </g>
   </g>
   <g id="text_58">
    <!-- Detailed State Distribution -->
    <g style="fill: #2c3e50" transform="translate(205.906676 46.15875) scale(0.12 -0.12)">
     <defs>
      <path id="Arial-BoldMT-44" d="M 463 4581 
L 2153 4581 
Q 2725 4581 3025 4494 
Q 3428 4375 3715 4072 
Q 4003 3769 4153 3330 
Q 4303 2891 4303 2247 
Q 4303 1681 4163 1272 
Q 3991 772 3672 463 
Q 3431 228 3022 97 
Q 2716 0 2203 0 
L 463 0 
L 463 4581 
z
M 1388 3806 
L 1388 772 
L 2078 772 
Q 2466 772 2638 816 
Q 2863 872 3011 1006 
Q 3159 1141 3253 1448 
Q 3347 1756 3347 2288 
Q 3347 2819 3253 3103 
Q 3159 3388 2990 3547 
Q 2822 3706 2563 3763 
Q 2369 3806 1803 3806 
L 1388 3806 
z
" transform="scale(0.015625)"/>
      <path id="Arial-BoldMT-65" d="M 2381 1056 
L 3256 909 
Q 3088 428 2723 176 
Q 2359 -75 1813 -75 
Q 947 -75 531 491 
Q 203 944 203 1634 
Q 203 2459 634 2926 
Q 1066 3394 1725 3394 
Q 2466 3394 2894 2905 
Q 3322 2416 3303 1406 
L 1103 1406 
Q 1113 1016 1316 798 
Q 1519 581 1822 581 
Q 2028 581 2168 693 
Q 2309 806 2381 1056 
z
M 2431 1944 
Q 2422 2325 2234 2523 
Q 2047 2722 1778 2722 
Q 1491 2722 1303 2513 
Q 1116 2303 1119 1944 
L 2431 1944 
z
" transform="scale(0.015625)"/>
      <path id="Arial-BoldMT-74" d="M 1981 3319 
L 1981 2619 
L 1381 2619 
L 1381 1281 
Q 1381 875 1398 808 
Q 1416 741 1477 697 
Q 1538 653 1625 653 
Q 1747 653 1978 738 
L 2053 56 
Q 1747 -75 1359 -75 
Q 1122 -75 931 4 
Q 741 84 652 211 
Q 563 338 528 553 
Q 500 706 500 1172 
L 500 2619 
L 97 2619 
L 97 3319 
L 500 3319 
L 500 3978 
L 1381 4491 
L 1381 3319 
L 1981 3319 
z
" transform="scale(0.015625)"/>
      <path id="Arial-BoldMT-61" d="M 1116 2306 
L 319 2450 
Q 453 2931 781 3162 
Q 1109 3394 1756 3394 
Q 2344 3394 2631 3255 
Q 2919 3116 3036 2902 
Q 3153 2688 3153 2116 
L 3144 1091 
Q 3144 653 3186 445 
Q 3228 238 3344 0 
L 2475 0 
Q 2441 88 2391 259 
Q 2369 338 2359 363 
Q 2134 144 1878 34 
Q 1622 -75 1331 -75 
Q 819 -75 523 203 
Q 228 481 228 906 
Q 228 1188 362 1408 
Q 497 1628 739 1745 
Q 981 1863 1438 1950 
Q 2053 2066 2291 2166 
L 2291 2253 
Q 2291 2506 2166 2614 
Q 2041 2722 1694 2722 
Q 1459 2722 1328 2630 
Q 1197 2538 1116 2306 
z
M 2291 1594 
Q 2122 1538 1756 1459 
Q 1391 1381 1278 1306 
Q 1106 1184 1106 997 
Q 1106 813 1243 678 
Q 1381 544 1594 544 
Q 1831 544 2047 700 
Q 2206 819 2256 991 
Q 2291 1103 2291 1419 
L 2291 1594 
z
" transform="scale(0.015625)"/>
      <path id="Arial-BoldMT-69" d="M 459 3769 
L 459 4581 
L 1338 4581 
L 1338 3769 
L 459 3769 
z
M 459 0 
L 459 3319 
L 1338 3319 
L 1338 0 
L 459 0 
z
" transform="scale(0.015625)"/>
      <path id="Arial-BoldMT-6c" d="M 459 0 
L 459 4581 
L 1338 4581 
L 1338 0 
L 459 0 
z
" transform="scale(0.015625)"/>
      <path id="Arial-BoldMT-64" d="M 3503 0 
L 2688 0 
L 2688 488 
Q 2484 203 2207 64 
Q 1931 -75 1650 -75 
Q 1078 -75 670 386 
Q 263 847 263 1672 
Q 263 2516 659 2955 
Q 1056 3394 1663 3394 
Q 2219 3394 2625 2931 
L 2625 4581 
L 3503 4581 
L 3503 0 
z
M 1159 1731 
Q 1159 1200 1306 963 
Q 1519 619 1900 619 
Q 2203 619 2415 876 
Q 2628 1134 2628 1647 
Q 2628 2219 2422 2470 
Q 2216 2722 1894 2722 
Q 1581 2722 1370 2473 
Q 1159 2225 1159 1731 
z
" transform="scale(0.015625)"/>
      <path id="Arial-BoldMT-20" transform="scale(0.015625)"/>
      <path id="Arial-BoldMT-53" d="M 231 1491 
L 1131 1578 
Q 1213 1125 1461 912 
Q 1709 700 2131 700 
Q 2578 700 2804 889 
Q 3031 1078 3031 1331 
Q 3031 1494 2936 1608 
Q 2841 1722 2603 1806 
Q 2441 1863 1863 2006 
Q 1119 2191 819 2459 
Q 397 2838 397 3381 
Q 397 3731 595 4036 
Q 794 4341 1167 4500 
Q 1541 4659 2069 4659 
Q 2931 4659 3367 4281 
Q 3803 3903 3825 3272 
L 2900 3231 
Q 2841 3584 2645 3739 
Q 2450 3894 2059 3894 
Q 1656 3894 1428 3728 
Q 1281 3622 1281 3444 
Q 1281 3281 1419 3166 
Q 1594 3019 2269 2859 
Q 2944 2700 3267 2529 
Q 3591 2359 3773 2064 
Q 3956 1769 3956 1334 
Q 3956 941 3737 597 
Q 3519 253 3119 86 
Q 2719 -81 2122 -81 
Q 1253 -81 787 320 
Q 322 722 231 1491 
z
" transform="scale(0.015625)"/>
      <path id="Arial-BoldMT-73" d="M 150 947 
L 1031 1081 
Q 1088 825 1259 692 
Q 1431 559 1741 559 
Q 2081 559 2253 684 
Q 2369 772 2369 919 
Q 2369 1019 2306 1084 
Q 2241 1147 2013 1200 
Q 950 1434 666 1628 
Q 272 1897 272 2375 
Q 272 2806 612 3100 
Q 953 3394 1669 3394 
Q 2350 3394 2681 3172 
Q 3013 2950 3138 2516 
L 2309 2363 
Q 2256 2556 2107 2659 
Q 1959 2763 1684 2763 
Q 1338 2763 1188 2666 
Q 1088 2597 1088 2488 
Q 1088 2394 1175 2328 
Q 1294 2241 1995 2081 
Q 2697 1922 2975 1691 
Q 3250 1456 3250 1038 
Q 3250 581 2869 253 
Q 2488 -75 1741 -75 
Q 1063 -75 667 200 
Q 272 475 150 947 
z
" transform="scale(0.015625)"/>
      <path id="Arial-BoldMT-72" d="M 1300 0 
L 422 0 
L 422 3319 
L 1238 3319 
L 1238 2847 
Q 1447 3181 1614 3287 
Q 1781 3394 1994 3394 
Q 2294 3394 2572 3228 
L 2300 2463 
Q 2078 2606 1888 2606 
Q 1703 2606 1575 2504 
Q 1447 2403 1373 2137 
Q 1300 1872 1300 1025 
L 1300 0 
z
" transform="scale(0.015625)"/>
      <path id="Arial-BoldMT-62" d="M 422 0 
L 422 4581 
L 1300 4581 
L 1300 2931 
Q 1706 3394 2263 3394 
Q 2869 3394 3266 2955 
Q 3663 2516 3663 1694 
Q 3663 844 3258 384 
Q 2853 -75 2275 -75 
Q 1991 -75 1714 67 
Q 1438 209 1238 488 
L 1238 0 
L 422 0 
z
M 1294 1731 
Q 1294 1216 1456 969 
Q 1684 619 2063 619 
Q 2353 619 2558 867 
Q 2763 1116 2763 1650 
Q 2763 2219 2556 2470 
Q 2350 2722 2028 2722 
Q 1713 2722 1503 2476 
Q 1294 2231 1294 1731 
z
" transform="scale(0.015625)"/>
      <path id="Arial-BoldMT-75" d="M 2644 0 
L 2644 497 
Q 2463 231 2167 78 
Q 1872 -75 1544 -75 
Q 1209 -75 943 72 
Q 678 219 559 484 
Q 441 750 441 1219 
L 441 3319 
L 1319 3319 
L 1319 1794 
Q 1319 1094 1367 936 
Q 1416 778 1544 686 
Q 1672 594 1869 594 
Q 2094 594 2272 717 
Q 2450 841 2515 1023 
Q 2581 1206 2581 1919 
L 2581 3319 
L 3459 3319 
L 3459 0 
L 2644 0 
z
" transform="scale(0.015625)"/>
      <path id="Arial-BoldMT-6f" d="M 256 1706 
Q 256 2144 472 2553 
Q 688 2963 1083 3178 
Q 1478 3394 1966 3394 
Q 2719 3394 3200 2905 
Q 3681 2416 3681 1669 
Q 3681 916 3195 420 
Q 2709 -75 1972 -75 
Q 1516 -75 1102 131 
Q 688 338 472 736 
Q 256 1134 256 1706 
z
M 1156 1659 
Q 1156 1166 1390 903 
Q 1625 641 1969 641 
Q 2313 641 2545 903 
Q 2778 1166 2778 1666 
Q 2778 2153 2545 2415 
Q 2313 2678 1969 2678 
Q 1625 2678 1390 2415 
Q 1156 2153 1156 1659 
z
" transform="scale(0.015625)"/>
      <path id="Arial-BoldMT-6e" d="M 3478 0 
L 2600 0 
L 2600 1694 
Q 2600 2231 2544 2389 
Q 2488 2547 2361 2634 
Q 2234 2722 2056 2722 
Q 1828 2722 1647 2597 
Q 1466 2472 1398 2265 
Q 1331 2059 1331 1503 
L 1331 0 
L 453 0 
L 453 3319 
L 1269 3319 
L 1269 2831 
Q 1703 3394 2363 3394 
Q 2653 3394 2893 3289 
Q 3134 3184 3257 3021 
Q 3381 2859 3429 2653 
Q 3478 2447 3478 2063 
L 3478 0 
z
" transform="scale(0.015625)"/>
     </defs>
     <use xlink:href="#Arial-BoldMT-44"/>
     <use xlink:href="#Arial-BoldMT-65" transform="translate(72.216797 0)"/>
     <use xlink:href="#Arial-BoldMT-74" transform="translate(127.832031 0)"/>
     <use xlink:href="#Arial-BoldMT-61" transform="translate(161.132812 0)"/>
     <use xlink:href="#Arial-BoldMT-69" transform="translate(216.748047 0)"/>
     <use xlink:href="#Arial-BoldMT-6c" transform="translate(244.53125 0)"/>
     <use xlink:href="#Arial-BoldMT-65" transform="translate(272.314453 0)"/>
     <use xlink:href="#Arial-BoldMT-64" transform="translate(327.929688 0)"/>
     <use xlink:href="#Arial-BoldMT-20" transform="translate(389.013672 0)"/>
     <use xlink:href="#Arial-BoldMT-53" transform="translate(416.796875 0)"/>
     <use xlink:href="#Arial-BoldMT-74" transform="translate(483.496094 0)"/>
     <use xlink:href="#Arial-BoldMT-61" transform="translate(516.796875 0)"/>
     <use xlink:href="#Arial-BoldMT-74" transform="translate(572.412109 0)"/>
     <use xlink:href="#Arial-BoldMT-65" transform="translate(605.712891 0)"/>
     <use xlink:href="#Arial-BoldMT-20" transform="translate(661.328125 0)"/>
     <use xlink:href="#Arial-BoldMT-44" transform="translate(689.111328 0)"/>
     <use xlink:href="#Arial-BoldMT-69" transform="translate(761.328125 0)"/>
     <use xlink:href="#Arial-BoldMT-73" transform="translate(789.111328 0)"/>
     <use xlink:href="#Arial-BoldMT-74" transform="translate(844.726562 0)"/>
     <use xlink:href="#Arial-BoldMT-72" transform="translate(878.027344 0)"/>
     <use xlink:href="#Arial-BoldMT-69" transform="translate(916.943359 0)"/>
     <use xlink:href="#Arial-BoldMT-62" transform="translate(944.726562 0)"/>
     <use xlink:href="#Arial-BoldMT-75" transform="translate(1005.810547 0)"/>
     <use xlink:href="#Arial-BoldMT-74" transform="translate(1066.894531 0)"/>
     <use xlink:href="#Arial-BoldMT-69" transform="translate(1100.195312 0)"/>
     <use xlink:href="#Arial-BoldMT-6f" transform="translate(1127.978516 0)"/>
     <use xlink:href="#Arial-BoldMT-6e" transform="translate(1189.0625 0)"/>
    </g>
   </g>
  </g>
  <g id="axes_2">
   <g id="matplotlib.axis_3"/>
   <g id="matplotlib.axis_4"/>
   <g id="patch_30">
    <path d="M 661.587459 130.571697 
C 645.44712 149.807004 635.775845 173.650587 633.955957 198.69446 
C 632.13607 223.738334 638.258615 248.729622 651.44849 270.096296 
C 664.638366 291.46297 684.23572 308.136115 707.439483 317.732623 
C 730.643246 327.32913 756.2926 329.368913 780.721456 323.560423 
L 753.090319 207.351713 
z
" style="fill: #a9dfbf; stroke: #e5e7e9; stroke-width: 1.2; stroke-linejoin: miter"/>
   </g>
   <g id="patch_31">
    <path d="M 783.770711 321.678086 
C 807.351785 316.071175 828.676847 303.417283 844.897687 285.406485 
C 861.118527 267.395687 871.479334 244.867196 874.596303 220.829954 
L 756.139574 205.469375 
z
" style="fill: #aed6f1; stroke: #e5e7e9; stroke-width: 1.2; stroke-linejoin: miter"/>
   </g>
   <g id="patch_32">
    <path d="M 874.596303 220.829954 
C 876.774657 204.031064 875.354807 186.959371 870.431256 170.751146 
C 865.507706 154.54292 857.192168 139.565921 846.038116 126.816998 
L 756.139574 205.469375 
z
" style="fill: #f5b7b1; stroke: #e5e7e9; stroke-width: 1.2; stroke-linejoin: miter"/>
   </g>
   <g id="patch_33">
    <path d="M 846.038116 126.816998 
C 837.577103 117.146182 827.610753 108.903707 816.523934 102.407873 
C 805.437115 95.912038 793.3744 91.24755 780.801615 88.594536 
L 756.139574 205.469375 
z
" style="fill: #fad7a0; stroke: #e5e7e9; stroke-width: 1.2; stroke-linejoin: miter"/>
   </g>
   <g id="patch_34">
    <path d="M 780.801615 88.594536 
C 773.502025 87.054232 766.074157 86.20117 758.615428 86.046537 
C 751.156699 85.891904 743.699859 86.436379 736.342701 87.672822 
L 756.139574 205.469375 
z
" style="fill: #7fb3d8; stroke: #e5e7e9; stroke-width: 1.2; stroke-linejoin: miter"/>
   </g>
   <g id="patch_35">
    <path d="M 736.342701 87.672822 
C 733.562186 88.140115 730.799087 88.70571 728.058598 89.368544 
C 725.318108 90.031378 722.601947 90.791036 719.915218 91.64609 
L 756.139574 205.469375 
z
" style="fill: #f4d03f; stroke: #e5e7e9; stroke-width: 1.2; stroke-linejoin: miter"/>
   </g>
   <g id="patch_36">
    <path d="M 719.915218 91.64609 
C 709.187662 95.060144 698.996423 99.973685 689.644371 106.240689 
C 680.29232 112.507693 671.873028 120.065455 664.636707 128.689368 
L 756.139574 205.469375 
z
" style="fill: #e5e7e9; stroke: #e5e7e9; stroke-width: 1.2; stroke-linejoin: miter"/>
   </g>
   <g id="patch_37">
    <path d="M 756.139574 265.193625 
C 771.97863 265.193625 787.171092 258.900701 798.370996 247.700797 
C 809.5709 236.500893 815.863824 221.308431 815.863824 205.469375 
C 815.863824 189.630319 809.5709 174.437857 798.370996 163.237953 
C 787.171092 152.038049 771.97863 145.745125 756.139574 145.745125 
C 740.300518 145.745125 725.108056 152.038049 713.908152 163.237953 
C 702.708248 174.437857 696.415324 189.630319 696.415324 205.469375 
C 696.415324 221.308431 702.708248 236.500893 713.908152 247.700797 
C 725.108056 258.900701 740.300518 265.193625 756.139574 265.193625 
z
" clip-path="url(#pb83fc0ede6)" style="fill: #ffffff; stroke: #e5e7e9; stroke-linejoin: miter"/>
   </g>
   <g id="text_59">
    <!-- 2D2A -->
    <g style="fill: #2c3e50" transform="translate(613.768838 279.214426) scale(0.11 -0.11)">
     <use xlink:href="#ArialMT-32"/>
     <use xlink:href="#ArialMT-44" transform="translate(55.615234 0)"/>
     <use xlink:href="#ArialMT-32" transform="translate(127.832031 0)"/>
     <use xlink:href="#ArialMT-41" transform="translate(183.447266 0)"/>
    </g>
   </g>
   <g id="text_60">
    <!-- 39.8% -->
    <g style="fill: #2c3e50" transform="translate(661.264729 257.261556) scale(0.11 -0.11)">
     <use xlink:href="#Arial-BoldMT-33"/>
     <use xlink:href="#Arial-BoldMT-39" transform="translate(55.615234 0)"/>
     <use xlink:href="#Arial-BoldMT-2e" transform="translate(111.230469 0)"/>
     <use xlink:href="#Arial-BoldMT-38" transform="translate(139.013672 0)"/>
     <use xlink:href="#Arial-BoldMT-25" transform="translate(194.628906 0)"/>
    </g>
   </g>
   <g id="text_61">
    <!-- 2D1A -->
    <g style="fill: #2c3e50" transform="translate(853.773498 296.243868) scale(0.11 -0.11)">
     <use xlink:href="#ArialMT-32"/>
     <use xlink:href="#ArialMT-44" transform="translate(55.615234 0)"/>
     <use xlink:href="#ArialMT-31" transform="translate(127.832031 0)"/>
     <use xlink:href="#ArialMT-41" transform="translate(183.447266 0)"/>
    </g>
   </g>
   <g id="text_62">
    <!-- 19.2% -->
    <g style="fill: #2c3e50" transform="translate(807.11394 268.273614) scale(0.11 -0.11)">
     <use xlink:href="#Arial-BoldMT-31"/>
     <use xlink:href="#Arial-BoldMT-39" transform="translate(55.615234 0)"/>
     <use xlink:href="#Arial-BoldMT-2e" transform="translate(111.230469 0)"/>
     <use xlink:href="#Arial-BoldMT-32" transform="translate(139.013672 0)"/>
     <use xlink:href="#Arial-BoldMT-25" transform="translate(194.628906 0)"/>
    </g>
   </g>
   <g id="text_63">
    <!-- 1D2A -->
    <g style="fill: #2c3e50" transform="translate(881.860425 170.122995) scale(0.11 -0.11)">
     <use xlink:href="#ArialMT-31"/>
     <use xlink:href="#ArialMT-44" transform="translate(55.615234 0)"/>
     <use xlink:href="#ArialMT-32" transform="translate(127.832031 0)"/>
     <use xlink:href="#ArialMT-41" transform="translate(183.447266 0)"/>
    </g>
   </g>
   <g id="text_64">
    <!-- 13.5% -->
    <g style="fill: #2c3e50" transform="translate(826.264117 182.282109) scale(0.11 -0.11)">
     <use xlink:href="#Arial-BoldMT-31"/>
     <use xlink:href="#Arial-BoldMT-33" transform="translate(55.615234 0)"/>
     <use xlink:href="#Arial-BoldMT-2e" transform="translate(111.230469 0)"/>
     <use xlink:href="#Arial-BoldMT-35" transform="translate(139.013672 0)"/>
     <use xlink:href="#Arial-BoldMT-25" transform="translate(194.628906 0)"/>
    </g>
   </g>
   <g id="text_65">
    <!-- 1D1A -->
    <g style="fill: #2c3e50" transform="translate(822.56237 94.945394) scale(0.11 -0.11)">
     <use xlink:href="#ArialMT-31"/>
     <use xlink:href="#ArialMT-44" transform="translate(55.615234 0)"/>
     <use xlink:href="#ArialMT-31" transform="translate(127.832031 0)"/>
     <use xlink:href="#ArialMT-41" transform="translate(183.447266 0)"/>
    </g>
   </g>
   <g id="text_66">
    <!-- 10.3% -->
    <g style="fill: #2c3e50" transform="translate(785.833625 131.024655) scale(0.11 -0.11)">
     <use xlink:href="#Arial-BoldMT-31"/>
     <use xlink:href="#Arial-BoldMT-30" transform="translate(55.615234 0)"/>
     <use xlink:href="#Arial-BoldMT-2e" transform="translate(111.230469 0)"/>
     <use xlink:href="#Arial-BoldMT-33" transform="translate(139.013672 0)"/>
     <use xlink:href="#Arial-BoldMT-25" transform="translate(194.628906 0)"/>
    </g>
   </g>
   <g id="text_67">
    <!-- 2D3A -->
    <g style="fill: #2c3e50" transform="translate(758.863014 76.947925) scale(0.11 -0.11)">
     <use xlink:href="#ArialMT-32"/>
     <use xlink:href="#ArialMT-44" transform="translate(55.615234 0)"/>
     <use xlink:href="#ArialMT-33" transform="translate(127.832031 0)"/>
     <use xlink:href="#ArialMT-41" transform="translate(183.447266 0)"/>
    </g>
   </g>
   <g id="text_68">
    <!-- 6.0% -->
    <g style="fill: #2c3e50" transform="translate(745.460762 118.753653) scale(0.11 -0.11)">
     <use xlink:href="#Arial-BoldMT-36"/>
     <use xlink:href="#Arial-BoldMT-2e" transform="translate(55.615234 0)"/>
     <use xlink:href="#Arial-BoldMT-30" transform="translate(83.398438 0)"/>
     <use xlink:href="#Arial-BoldMT-25" transform="translate(139.013672 0)"/>
    </g>
   </g>
   <g id="text_69">
    <!-- 2D0A -->
    <g style="fill: #2c3e50" transform="translate(697.735031 80.602133) scale(0.11 -0.11)">
     <use xlink:href="#ArialMT-32"/>
     <use xlink:href="#ArialMT-44" transform="translate(55.615234 0)"/>
     <use xlink:href="#ArialMT-30" transform="translate(127.832031 0)"/>
     <use xlink:href="#ArialMT-41" transform="translate(183.447266 0)"/>
    </g>
   </g>
   <g id="text_70">
    <!-- 2.3% -->
    <g style="fill: #2c3e50" transform="translate(722.543139 121.245158) scale(0.11 -0.11)">
     <use xlink:href="#Arial-BoldMT-32"/>
     <use xlink:href="#Arial-BoldMT-2e" transform="translate(55.615234 0)"/>
     <use xlink:href="#Arial-BoldMT-33" transform="translate(83.398438 0)"/>
     <use xlink:href="#Arial-BoldMT-25" transform="translate(139.013672 0)"/>
    </g>
   </g>
   <g id="text_71">
    <!-- Others -->
    <g style="fill: #2c3e50" transform="translate(649.986257 99.161492) scale(0.11 -0.11)">
     <defs>
      <path id="ArialMT-68" d="M 422 0 
L 422 4581 
L 984 4581 
L 984 2938 
Q 1378 3394 1978 3394 
Q 2347 3394 2619 3248 
Q 2891 3103 3008 2847 
Q 3125 2591 3125 2103 
L 3125 0 
L 2563 0 
L 2563 2103 
Q 2563 2525 2380 2717 
Q 2197 2909 1863 2909 
Q 1613 2909 1392 2779 
Q 1172 2650 1078 2428 
Q 984 2206 984 1816 
L 984 0 
L 422 0 
z
" transform="scale(0.015625)"/>
      <path id="ArialMT-73" d="M 197 991 
L 753 1078 
Q 800 744 1014 566 
Q 1228 388 1613 388 
Q 2000 388 2187 545 
Q 2375 703 2375 916 
Q 2375 1106 2209 1216 
Q 2094 1291 1634 1406 
Q 1016 1563 777 1677 
Q 538 1791 414 1992 
Q 291 2194 291 2438 
Q 291 2659 392 2848 
Q 494 3038 669 3163 
Q 800 3259 1026 3326 
Q 1253 3394 1513 3394 
Q 1903 3394 2198 3281 
Q 2494 3169 2634 2976 
Q 2775 2784 2828 2463 
L 2278 2388 
Q 2241 2644 2061 2787 
Q 1881 2931 1553 2931 
Q 1166 2931 1000 2803 
Q 834 2675 834 2503 
Q 834 2394 903 2306 
Q 972 2216 1119 2156 
Q 1203 2125 1616 2013 
Q 2213 1853 2448 1751 
Q 2684 1650 2818 1456 
Q 2953 1263 2953 975 
Q 2953 694 2789 445 
Q 2625 197 2315 61 
Q 2006 -75 1616 -75 
Q 969 -75 630 194 
Q 291 463 197 991 
z
" transform="scale(0.015625)"/>
     </defs>
     <use xlink:href="#ArialMT-4f"/>
     <use xlink:href="#ArialMT-74" transform="translate(77.783203 0)"/>
     <use xlink:href="#ArialMT-68" transform="translate(105.566406 0)"/>
     <use xlink:href="#ArialMT-65" transform="translate(161.181641 0)"/>
     <use xlink:href="#ArialMT-72" transform="translate(216.796875 0)"/>
     <use xlink:href="#ArialMT-73" transform="translate(250.097656 0)"/>
    </g>
   </g>
   <g id="text_72">
    <!-- 9.0% -->
    <g style="fill: #2c3e50" transform="translate(693.732469 133.899267) scale(0.11 -0.11)">
     <use xlink:href="#Arial-BoldMT-39"/>
     <use xlink:href="#Arial-BoldMT-2e" transform="translate(55.615234 0)"/>
     <use xlink:href="#Arial-BoldMT-30" transform="translate(83.398438 0)"/>
     <use xlink:href="#Arial-BoldMT-25" transform="translate(139.013672 0)"/>
    </g>
   </g>
   <g id="text_73">
    <!-- Major Coordination States Summary -->
    <g style="fill: #2c3e50" transform="translate(652.459574 46.15875) scale(0.12 -0.12)">
     <defs>
      <path id="Arial-BoldMT-4d" d="M 453 0 
L 453 4581 
L 1838 4581 
L 2669 1456 
L 3491 4581 
L 4878 4581 
L 4878 0 
L 4019 0 
L 4019 3606 
L 3109 0 
L 2219 0 
L 1313 3606 
L 1313 0 
L 453 0 
z
" transform="scale(0.015625)"/>
      <path id="Arial-BoldMT-6a" d="M 441 3769 
L 441 4581 
L 1319 4581 
L 1319 3769 
L 441 3769 
z
M 1319 3319 
L 1319 103 
Q 1319 -531 1236 -792 
Q 1153 -1053 917 -1200 
Q 681 -1347 316 -1347 
Q 184 -1347 32 -1323 
Q -119 -1300 -294 -1253 
L -141 -503 
Q -78 -516 -23 -523 
Q 31 -531 78 -531 
Q 213 -531 298 -473 
Q 384 -416 412 -334 
Q 441 -253 441 153 
L 441 3319 
L 1319 3319 
z
" transform="scale(0.015625)"/>
      <path id="Arial-BoldMT-43" d="M 3397 1684 
L 4294 1400 
Q 4088 650 3608 286 
Q 3128 -78 2391 -78 
Q 1478 -78 890 545 
Q 303 1169 303 2250 
Q 303 3394 893 4026 
Q 1484 4659 2447 4659 
Q 3288 4659 3813 4163 
Q 4125 3869 4281 3319 
L 3366 3100 
Q 3284 3456 3026 3662 
Q 2769 3869 2400 3869 
Q 1891 3869 1573 3503 
Q 1256 3138 1256 2319 
Q 1256 1450 1568 1081 
Q 1881 713 2381 713 
Q 2750 713 3015 947 
Q 3281 1181 3397 1684 
z
" transform="scale(0.015625)"/>
      <path id="Arial-BoldMT-6d" d="M 394 3319 
L 1203 3319 
L 1203 2866 
Q 1638 3394 2238 3394 
Q 2556 3394 2790 3262 
Q 3025 3131 3175 2866 
Q 3394 3131 3647 3262 
Q 3900 3394 4188 3394 
Q 4553 3394 4806 3245 
Q 5059 3097 5184 2809 
Q 5275 2597 5275 2122 
L 5275 0 
L 4397 0 
L 4397 1897 
Q 4397 2391 4306 2534 
Q 4184 2722 3931 2722 
Q 3747 2722 3584 2609 
Q 3422 2497 3350 2280 
Q 3278 2063 3278 1594 
L 3278 0 
L 2400 0 
L 2400 1819 
Q 2400 2303 2353 2443 
Q 2306 2584 2207 2653 
Q 2109 2722 1941 2722 
Q 1738 2722 1575 2612 
Q 1413 2503 1342 2297 
Q 1272 2091 1272 1613 
L 1272 0 
L 394 0 
L 394 3319 
z
" transform="scale(0.015625)"/>
      <path id="Arial-BoldMT-79" d="M 44 3319 
L 978 3319 
L 1772 963 
L 2547 3319 
L 3456 3319 
L 2284 125 
L 2075 -453 
Q 1959 -744 1854 -897 
Q 1750 -1050 1614 -1145 
Q 1478 -1241 1279 -1294 
Q 1081 -1347 831 -1347 
Q 578 -1347 334 -1294 
L 256 -606 
Q 463 -647 628 -647 
Q 934 -647 1081 -467 
Q 1228 -288 1306 -9 
L 44 3319 
z
" transform="scale(0.015625)"/>
     </defs>
     <use xlink:href="#Arial-BoldMT-4d"/>
     <use xlink:href="#Arial-BoldMT-61" transform="translate(83.300781 0)"/>
     <use xlink:href="#Arial-BoldMT-6a" transform="translate(138.916016 0)"/>
     <use xlink:href="#Arial-BoldMT-6f" transform="translate(166.699219 0)"/>
     <use xlink:href="#Arial-BoldMT-72" transform="translate(227.783203 0)"/>
     <use xlink:href="#Arial-BoldMT-20" transform="translate(266.699219 0)"/>
     <use xlink:href="#Arial-BoldMT-43" transform="translate(294.482422 0)"/>
     <use xlink:href="#Arial-BoldMT-6f" transform="translate(366.699219 0)"/>
     <use xlink:href="#Arial-BoldMT-6f" transform="translate(427.783203 0)"/>
     <use xlink:href="#Arial-BoldMT-72" transform="translate(488.867188 0)"/>
     <use xlink:href="#Arial-BoldMT-64" transform="translate(527.783203 0)"/>
     <use xlink:href="#Arial-BoldMT-69" transform="translate(588.867188 0)"/>
     <use xlink:href="#Arial-BoldMT-6e" transform="translate(616.650391 0)"/>
     <use xlink:href="#Arial-BoldMT-61" transform="translate(677.734375 0)"/>
     <use xlink:href="#Arial-BoldMT-74" transform="translate(733.349609 0)"/>
     <use xlink:href="#Arial-BoldMT-69" transform="translate(766.650391 0)"/>
     <use xlink:href="#Arial-BoldMT-6f" transform="translate(794.433594 0)"/>
     <use xlink:href="#Arial-BoldMT-6e" transform="translate(855.517578 0)"/>
     <use xlink:href="#Arial-BoldMT-20" transform="translate(916.601562 0)"/>
     <use xlink:href="#Arial-BoldMT-53" transform="translate(944.384766 0)"/>
     <use xlink:href="#Arial-BoldMT-74" transform="translate(1011.083984 0)"/>
     <use xlink:href="#Arial-BoldMT-61" transform="translate(1044.384766 0)"/>
     <use xlink:href="#Arial-BoldMT-74" transform="translate(1100 0)"/>
     <use xlink:href="#Arial-BoldMT-65" transform="translate(1133.300781 0)"/>
     <use xlink:href="#Arial-BoldMT-73" transform="translate(1188.916016 0)"/>
     <use xlink:href="#Arial-BoldMT-20" transform="translate(1244.53125 0)"/>
     <use xlink:href="#Arial-BoldMT-53" transform="translate(1272.314453 0)"/>
     <use xlink:href="#Arial-BoldMT-75" transform="translate(1339.013672 0)"/>
     <use xlink:href="#Arial-BoldMT-6d" transform="translate(1400.097656 0)"/>
     <use xlink:href="#Arial-BoldMT-6d" transform="translate(1489.013672 0)"/>
     <use xlink:href="#Arial-BoldMT-61" transform="translate(1577.929688 0)"/>
     <use xlink:href="#Arial-BoldMT-72" transform="translate(1633.544922 0)"/>
     <use xlink:href="#Arial-BoldMT-79" transform="translate(1672.460938 0)"/>
    </g>
   </g>
  </g>
  <g id="text_74">
   <!-- Water Hydrogen Bond Coordination States ($nDmA$) -->
   <g style="fill: #2c3e50" transform="translate(318.216875 18.15) scale(0.15 -0.15)">
    <defs>
     <path id="Arial-BoldMT-57" d="M 1116 0 
L 22 4581 
L 969 4581 
L 1659 1434 
L 2497 4581 
L 3597 4581 
L 4400 1381 
L 5103 4581 
L 6034 4581 
L 4922 0 
L 3941 0 
L 3028 3425 
L 2119 0 
L 1116 0 
z
" transform="scale(0.015625)"/>
     <path id="Arial-BoldMT-48" d="M 469 0 
L 469 4581 
L 1394 4581 
L 1394 2778 
L 3206 2778 
L 3206 4581 
L 4131 4581 
L 4131 0 
L 3206 0 
L 3206 2003 
L 1394 2003 
L 1394 0 
L 469 0 
z
" transform="scale(0.015625)"/>
     <path id="Arial-BoldMT-67" d="M 378 -219 
L 1381 -341 
Q 1406 -516 1497 -581 
Q 1622 -675 1891 -675 
Q 2234 -675 2406 -572 
Q 2522 -503 2581 -350 
Q 2622 -241 2622 53 
L 2622 538 
Q 2228 0 1628 0 
Q 959 0 569 566 
Q 263 1013 263 1678 
Q 263 2513 664 2953 
Q 1066 3394 1663 3394 
Q 2278 3394 2678 2853 
L 2678 3319 
L 3500 3319 
L 3500 341 
Q 3500 -247 3403 -537 
Q 3306 -828 3131 -993 
Q 2956 -1159 2664 -1253 
Q 2372 -1347 1925 -1347 
Q 1081 -1347 728 -1058 
Q 375 -769 375 -325 
Q 375 -281 378 -219 
z
M 1163 1728 
Q 1163 1200 1367 954 
Q 1572 709 1872 709 
Q 2194 709 2416 961 
Q 2638 1213 2638 1706 
Q 2638 2222 2425 2472 
Q 2213 2722 1888 2722 
Q 1572 2722 1367 2476 
Q 1163 2231 1163 1728 
z
" transform="scale(0.015625)"/>
     <path id="Arial-BoldMT-42" d="M 469 4581 
L 2300 4581 
Q 2844 4581 3111 4536 
Q 3378 4491 3589 4347 
Q 3800 4203 3940 3964 
Q 4081 3725 4081 3428 
Q 4081 3106 3907 2837 
Q 3734 2569 3438 2434 
Q 3856 2313 4081 2019 
Q 4306 1725 4306 1328 
Q 4306 1016 4161 720 
Q 4016 425 3764 248 
Q 3513 72 3144 31 
Q 2913 6 2028 0 
L 469 0 
L 469 4581 
z
M 1394 3819 
L 1394 2759 
L 2000 2759 
Q 2541 2759 2672 2775 
Q 2909 2803 3045 2939 
Q 3181 3075 3181 3297 
Q 3181 3509 3064 3642 
Q 2947 3775 2716 3803 
Q 2578 3819 1925 3819 
L 1394 3819 
z
M 1394 1997 
L 1394 772 
L 2250 772 
Q 2750 772 2884 800 
Q 3091 838 3220 983 
Q 3350 1128 3350 1372 
Q 3350 1578 3250 1722 
Q 3150 1866 2961 1931 
Q 2772 1997 2141 1997 
L 1394 1997 
z
" transform="scale(0.015625)"/>
     <path id="Arial-BoldMT-28" d="M 1916 -1347 
L 1313 -1347 
Q 834 -625 584 153 
Q 334 931 334 1659 
Q 334 2563 644 3369 
Q 913 4069 1325 4659 
L 1925 4659 
Q 1497 3713 1336 3048 
Q 1175 2384 1175 1641 
Q 1175 1128 1270 590 
Q 1366 53 1531 -431 
Q 1641 -750 1916 -1347 
z
" transform="scale(0.015625)"/>
     <path id="DejaVuSans-Oblique-6e" d="M 3566 2113 
L 3156 0 
L 2578 0 
L 2988 2091 
Q 3016 2238 3031 2350 
Q 3047 2463 3047 2528 
Q 3047 2791 2881 2937 
Q 2716 3084 2419 3084 
Q 1956 3084 1622 2776 
Q 1288 2469 1184 1941 
L 800 0 
L 225 0 
L 903 3500 
L 1478 3500 
L 1363 2950 
Q 1603 3253 1940 3418 
Q 2278 3584 2650 3584 
Q 3113 3584 3367 3334 
Q 3622 3084 3622 2631 
Q 3622 2519 3608 2391 
Q 3594 2263 3566 2113 
z
" transform="scale(0.015625)"/>
     <path id="DejaVuSans-Oblique-44" d="M 1081 4666 
L 2438 4666 
Q 3519 4666 4070 4208 
Q 4622 3750 4622 2847 
Q 4622 2250 4412 1698 
Q 4203 1147 3834 769 
Q 3463 381 2891 190 
Q 2319 0 1538 0 
L 172 0 
L 1081 4666 
z
M 1613 4147 
L 909 519 
L 1734 519 
Q 2794 519 3375 1128 
Q 3956 1738 3956 2847 
Q 3956 3519 3581 3833 
Q 3206 4147 2406 4147 
L 1613 4147 
z
" transform="scale(0.015625)"/>
     <path id="DejaVuSans-Oblique-6d" d="M 5747 2113 
L 5338 0 
L 4763 0 
L 5166 2094 
Q 5191 2228 5203 2325 
Q 5216 2422 5216 2491 
Q 5216 2772 5059 2928 
Q 4903 3084 4622 3084 
Q 4203 3084 3875 2770 
Q 3547 2456 3450 1953 
L 3066 0 
L 2491 0 
L 2900 2094 
Q 2925 2209 2937 2307 
Q 2950 2406 2950 2484 
Q 2950 2769 2794 2926 
Q 2638 3084 2363 3084 
Q 1938 3084 1609 2770 
Q 1281 2456 1184 1953 
L 800 0 
L 225 0 
L 909 3500 
L 1484 3500 
L 1375 2956 
Q 1609 3263 1923 3423 
Q 2238 3584 2597 3584 
Q 2978 3584 3223 3384 
Q 3469 3184 3519 2828 
Q 3781 3197 4126 3390 
Q 4472 3584 4856 3584 
Q 5306 3584 5551 3325 
Q 5797 3066 5797 2591 
Q 5797 2488 5784 2364 
Q 5772 2241 5747 2113 
z
" transform="scale(0.015625)"/>
     <path id="DejaVuSans-Oblique-41" d="M 2356 4666 
L 3072 4666 
L 3938 0 
L 3278 0 
L 3084 1197 
L 984 1197 
L 325 0 
L -341 0 
L 2356 4666 
z
M 2584 4044 
L 1275 1722 
L 2988 1722 
L 2584 4044 
z
" transform="scale(0.015625)"/>
     <path id="Arial-BoldMT-29" d="M 216 -1347 
Q 475 -791 581 -494 
Q 688 -197 778 190 
Q 869 578 912 926 
Q 956 1275 956 1641 
Q 956 2384 797 3048 
Q 638 3713 209 4659 
L 806 4659 
Q 1278 3988 1539 3234 
Q 1800 2481 1800 1706 
Q 1800 1053 1594 306 
Q 1359 -531 822 -1347 
L 216 -1347 
z
" transform="scale(0.015625)"/>
    </defs>
    <use xlink:href="#Arial-BoldMT-57" transform="translate(0 0.09375)"/>
    <use xlink:href="#Arial-BoldMT-61" transform="translate(94.384766 0.09375)"/>
    <use xlink:href="#Arial-BoldMT-74" transform="translate(150 0.09375)"/>
    <use xlink:href="#Arial-BoldMT-65" transform="translate(183.300781 0.09375)"/>
    <use xlink:href="#Arial-BoldMT-72" transform="translate(238.916016 0.09375)"/>
    <use xlink:href="#Arial-BoldMT-20" transform="translate(277.832031 0.09375)"/>
    <use xlink:href="#Arial-BoldMT-48" transform="translate(305.615234 0.09375)"/>
    <use xlink:href="#Arial-BoldMT-79" transform="translate(377.832031 0.09375)"/>
    <use xlink:href="#Arial-BoldMT-64" transform="translate(433.447266 0.09375)"/>
    <use xlink:href="#Arial-BoldMT-72" transform="translate(494.53125 0.09375)"/>
    <use xlink:href="#Arial-BoldMT-6f" transform="translate(533.447266 0.09375)"/>
    <use xlink:href="#Arial-BoldMT-67" transform="translate(594.53125 0.09375)"/>
    <use xlink:href="#Arial-BoldMT-65" transform="translate(655.615234 0.09375)"/>
    <use xlink:href="#Arial-BoldMT-6e" transform="translate(711.230469 0.09375)"/>
    <use xlink:href="#Arial-BoldMT-20" transform="translate(772.314453 0.09375)"/>
    <use xlink:href="#Arial-BoldMT-42" transform="translate(800.097656 0.09375)"/>
    <use xlink:href="#Arial-BoldMT-6f" transform="translate(872.314453 0.09375)"/>
    <use xlink:href="#Arial-BoldMT-6e" transform="translate(933.398438 0.09375)"/>
    <use xlink:href="#Arial-BoldMT-64" transform="translate(994.482422 0.09375)"/>
    <use xlink:href="#Arial-BoldMT-20" transform="translate(1055.566406 0.09375)"/>
    <use xlink:href="#Arial-BoldMT-43" transform="translate(1083.349609 0.09375)"/>
    <use xlink:href="#Arial-BoldMT-6f" transform="translate(1155.566406 0.09375)"/>
    <use xlink:href="#Arial-BoldMT-6f" transform="translate(1216.650391 0.09375)"/>
    <use xlink:href="#Arial-BoldMT-72" transform="translate(1277.734375 0.09375)"/>
    <use xlink:href="#Arial-BoldMT-64" transform="translate(1316.650391 0.09375)"/>
    <use xlink:href="#Arial-BoldMT-69" transform="translate(1377.734375 0.09375)"/>
    <use xlink:href="#Arial-BoldMT-6e" transform="translate(1405.517578 0.09375)"/>
    <use xlink:href="#Arial-BoldMT-61" transform="translate(1466.601562 0.09375)"/>
    <use xlink:href="#Arial-BoldMT-74" transform="translate(1522.216797 0.09375)"/>
    <use xlink:href="#Arial-BoldMT-69" transform="translate(1555.517578 0.09375)"/>
    <use xlink:href="#Arial-BoldMT-6f" transform="translate(1583.300781 0.09375)"/>
    <use xlink:href="#Arial-BoldMT-6e" transform="translate(1644.384766 0.09375)"/>
    <use xlink:href="#Arial-BoldMT-20" transform="translate(1705.46875 0.09375)"/>
    <use xlink:href="#Arial-BoldMT-53" transform="translate(1733.251953 0.09375)"/>
    <use xlink:href="#Arial-BoldMT-74" transform="translate(1799.951172 0.09375)"/>
    <use xlink:href="#Arial-BoldMT-61" transform="translate(1833.251953 0.09375)"/>
    <use xlink:href="#Arial-BoldMT-74" transform="translate(1888.867188 0.09375)"/>
    <use xlink:href="#Arial-BoldMT-65" transform="translate(1922.167969 0.09375)"/>
    <use xlink:href="#Arial-BoldMT-73" transform="translate(1977.783203 0.09375)"/>
    <use xlink:href="#Arial-BoldMT-20" transform="translate(2033.398438 0.09375)"/>
    <use xlink:href="#Arial-BoldMT-28" transform="translate(2061.181641 0.09375)"/>
    <use xlink:href="#DejaVuSans-Oblique-6e" transform="translate(2094.482422 0.09375)"/>
    <use xlink:href="#DejaVuSans-Oblique-44" transform="translate(2157.861328 0.09375)"/>
    <use xlink:href="#DejaVuSans-Oblique-6d" transform="translate(2234.863281 0.09375)"/>
    <use xlink:href="#DejaVuSans-Oblique-41" transform="translate(2332.275391 0.09375)"/>
    <use xlink:href="#Arial-BoldMT-29" transform="translate(2400.683594 0.09375)"/>
   </g>
  </g>
 </g>
 <defs>
  <clipPath id="p9f2b4f1e2e">
   <rect x="43.083125" y="56.15875" width="475.654602" height="298.62125"/>
  </clipPath>
  <clipPath id="pb83fc0ede6">
   <rect x="606.828949" y="56.15875" width="298.62125" height="298.62125"/>
  </clipPath>
 </defs>
</svg>
