<?xml version="1.0" encoding="utf-8" standalone="no"?>
<!DOCTYPE svg PUBLIC "-//W3C//DTD SVG 1.1//EN"
  "http://www.w3.org/Graphics/SVG/1.1/DTD/svg11.dtd">
<svg xmlns:xlink="http://www.w3.org/1999/xlink" width="706.019844pt" height="274.499766pt" viewBox="0 0 706.019844 274.499766" xmlns="http://www.w3.org/2000/svg" version="1.1">
 <metadata>
  <rdf:RDF xmlns:dc="http://purl.org/dc/elements/1.1/" xmlns:cc="http://creativecommons.org/ns#" xmlns:rdf="http://www.w3.org/1999/02/22-rdf-syntax-ns#">
   <cc:Work>
    <dc:type rdf:resource="http://purl.org/dc/dcmitype/StillImage"/>
    <dc:date>2026-02-02T14:14:40.453376</dc:date>
    <dc:format>image/svg+xml</dc:format>
    <dc:creator>
     <cc:Agent>
      <dc:title>Matplotlib v3.10.8, https://matplotlib.org/</dc:title>
     </cc:Agent>
    </dc:creator>
   </cc:Work>
  </rdf:RDF>
 </metadata>
 <defs>
  <style type="text/css">*{stroke-linejoin: round; stroke-linecap: butt}</style>
 </defs>
 <g id="figure_1">
  <g id="patch_1">
   <path d="M 0 274.499766 
L 706.019844 274.499766 
L 706.019844 0 
L 0 0 
z
" style="fill: #ffffff"/>
  </g>
  <g id="axes_1">
   <g id="patch_2">
    <path d="M 45.131844 231.472688 
L 698.819844 231.472688 
L 698.819844 23.220938 
L 45.131844 23.220938 
z
" style="fill: #ffffff"/>
   </g>
   <g id="matplotlib.axis_1">
    <g id="xtick_1">
     <g id="line2d_1">
      <path d="M 74.844935 231.472688 
L 74.844935 23.220938 
" clip-path="url(#pd1526cb2d5)" style="fill: none; stroke: #ebedef; stroke-opacity: 0.6; stroke-linecap: round"/>
     </g>
     <g id="line2d_2">
      <defs>
       <path id="ma8f1249662" d="M 0 0 
L 0 6 
" style="stroke: #262626; stroke-width: 1.25"/>
      </defs>
      <g>
       <use xlink:href="#ma8f1249662" x="74.844935" y="231.472688" style="fill: #262626; stroke: #262626; stroke-width: 1.25"/>
      </g>
     </g>
     <g id="text_1">
      <!-- 0 -->
      <g style="fill: #262626" transform="translate(71.480567 249.633641) scale(0.121 -0.121)">
       <defs>
        <path id="ArialMT-30" d="M 266 2259 
Q 266 3072 433 3567 
Q 600 4063 929 4331 
Q 1259 4600 1759 4600 
Q 2128 4600 2406 4451 
Q 2684 4303 2865 4023 
Q 3047 3744 3150 3342 
Q 3253 2941 3253 2259 
Q 3253 1453 3087 958 
Q 2922 463 2592 192 
Q 2263 -78 1759 -78 
Q 1097 -78 719 397 
Q 266 969 266 2259 
z
M 844 2259 
Q 844 1131 1108 757 
Q 1372 384 1759 384 
Q 2147 384 2411 759 
Q 2675 1134 2675 2259 
Q 2675 3391 2411 3762 
Q 2147 4134 1753 4134 
Q 1366 4134 1134 3806 
Q 844 3388 844 2259 
z
" transform="scale(0.015625)"/>
       </defs>
       <use xlink:href="#ArialMT-30"/>
      </g>
     </g>
    </g>
    <g id="xtick_2">
     <g id="line2d_3">
      <path d="M 193.697298 231.472688 
L 193.697298 23.220938 
" clip-path="url(#pd1526cb2d5)" style="fill: none; stroke: #ebedef; stroke-opacity: 0.6; stroke-linecap: round"/>
     </g>
     <g id="line2d_4">
      <g>
       <use xlink:href="#ma8f1249662" x="193.697298" y="231.472688" style="fill: #262626; stroke: #262626; stroke-width: 1.25"/>
      </g>
     </g>
     <g id="text_2">
      <!-- 50 -->
      <g style="fill: #262626" transform="translate(186.968564 249.633641) scale(0.121 -0.121)">
       <defs>
        <path id="ArialMT-35" d="M 266 1200 
L 856 1250 
Q 922 819 1161 601 
Q 1400 384 1738 384 
Q 2144 384 2425 690 
Q 2706 997 2706 1503 
Q 2706 1984 2436 2262 
Q 2166 2541 1728 2541 
Q 1456 2541 1237 2417 
Q 1019 2294 894 2097 
L 366 2166 
L 809 4519 
L 3088 4519 
L 3088 3981 
L 1259 3981 
L 1013 2750 
Q 1425 3038 1878 3038 
Q 2478 3038 2890 2622 
Q 3303 2206 3303 1553 
Q 3303 931 2941 478 
Q 2500 -78 1738 -78 
Q 1113 -78 717 272 
Q 322 622 266 1200 
z
" transform="scale(0.015625)"/>
       </defs>
       <use xlink:href="#ArialMT-35"/>
       <use xlink:href="#ArialMT-30" transform="translate(55.615234 0)"/>
      </g>
     </g>
    </g>
    <g id="xtick_3">
     <g id="line2d_5">
      <path d="M 312.549662 231.472688 
L 312.549662 23.220938 
" clip-path="url(#pd1526cb2d5)" style="fill: none; stroke: #ebedef; stroke-opacity: 0.6; stroke-linecap: round"/>
     </g>
     <g id="line2d_6">
      <g>
       <use xlink:href="#ma8f1249662" x="312.549662" y="231.472688" style="fill: #262626; stroke: #262626; stroke-width: 1.25"/>
      </g>
     </g>
     <g id="text_3">
      <!-- 100 -->
      <g style="fill: #262626" transform="translate(302.45656 249.633641) scale(0.121 -0.121)">
       <defs>
        <path id="ArialMT-31" d="M 2384 0 
L 1822 0 
L 1822 3584 
Q 1619 3391 1289 3197 
Q 959 3003 697 2906 
L 697 3450 
Q 1169 3672 1522 3987 
Q 1875 4303 2022 4600 
L 2384 4600 
L 2384 0 
z
" transform="scale(0.015625)"/>
       </defs>
       <use xlink:href="#ArialMT-31"/>
       <use xlink:href="#ArialMT-30" transform="translate(55.615234 0)"/>
       <use xlink:href="#ArialMT-30" transform="translate(111.230469 0)"/>
      </g>
     </g>
    </g>
    <g id="xtick_4">
     <g id="line2d_7">
      <path d="M 431.402026 231.472688 
L 431.402026 23.220938 
" clip-path="url(#pd1526cb2d5)" style="fill: none; stroke: #ebedef; stroke-opacity: 0.6; stroke-linecap: round"/>
     </g>
     <g id="line2d_8">
      <g>
       <use xlink:href="#ma8f1249662" x="431.402026" y="231.472688" style="fill: #262626; stroke: #262626; stroke-width: 1.25"/>
      </g>
     </g>
     <g id="text_4">
      <!-- 150 -->
      <g style="fill: #262626" transform="translate(421.308924 249.633641) scale(0.121 -0.121)">
       <use xlink:href="#ArialMT-31"/>
       <use xlink:href="#ArialMT-35" transform="translate(55.615234 0)"/>
       <use xlink:href="#ArialMT-30" transform="translate(111.230469 0)"/>
      </g>
     </g>
    </g>
    <g id="xtick_5">
     <g id="line2d_9">
      <path d="M 550.254389 231.472688 
L 550.254389 23.220938 
" clip-path="url(#pd1526cb2d5)" style="fill: none; stroke: #ebedef; stroke-opacity: 0.6; stroke-linecap: round"/>
     </g>
     <g id="line2d_10">
      <g>
       <use xlink:href="#ma8f1249662" x="550.254389" y="231.472688" style="fill: #262626; stroke: #262626; stroke-width: 1.25"/>
      </g>
     </g>
     <g id="text_5">
      <!-- 200 -->
      <g style="fill: #262626" transform="translate(540.161288 249.633641) scale(0.121 -0.121)">
       <defs>
        <path id="ArialMT-32" d="M 3222 541 
L 3222 0 
L 194 0 
Q 188 203 259 391 
Q 375 700 629 1000 
Q 884 1300 1366 1694 
Q 2113 2306 2375 2664 
Q 2638 3022 2638 3341 
Q 2638 3675 2398 3904 
Q 2159 4134 1775 4134 
Q 1369 4134 1125 3890 
Q 881 3647 878 3216 
L 300 3275 
Q 359 3922 746 4261 
Q 1134 4600 1788 4600 
Q 2447 4600 2831 4234 
Q 3216 3869 3216 3328 
Q 3216 3053 3103 2787 
Q 2991 2522 2730 2228 
Q 2469 1934 1863 1422 
Q 1356 997 1212 845 
Q 1069 694 975 541 
L 3222 541 
z
" transform="scale(0.015625)"/>
       </defs>
       <use xlink:href="#ArialMT-32"/>
       <use xlink:href="#ArialMT-30" transform="translate(55.615234 0)"/>
       <use xlink:href="#ArialMT-30" transform="translate(111.230469 0)"/>
      </g>
     </g>
    </g>
    <g id="xtick_6">
     <g id="line2d_11">
      <path d="M 669.106753 231.472688 
L 669.106753 23.220938 
" clip-path="url(#pd1526cb2d5)" style="fill: none; stroke: #ebedef; stroke-opacity: 0.6; stroke-linecap: round"/>
     </g>
     <g id="line2d_12">
      <g>
       <use xlink:href="#ma8f1249662" x="669.106753" y="231.472688" style="fill: #262626; stroke: #262626; stroke-width: 1.25"/>
      </g>
     </g>
     <g id="text_6">
      <!-- 250 -->
      <g style="fill: #262626" transform="translate(659.013651 249.633641) scale(0.121 -0.121)">
       <use xlink:href="#ArialMT-32"/>
       <use xlink:href="#ArialMT-35" transform="translate(55.615234 0)"/>
       <use xlink:href="#ArialMT-30" transform="translate(111.230469 0)"/>
      </g>
     </g>
    </g>
    <g id="text_7">
     <!-- Simulation time (fs) -->
     <g style="fill: #262626" transform="translate(320.632719 264.774141) scale(0.12 -0.12)">
      <defs>
       <path id="ArialMT-53" d="M 288 1472 
L 859 1522 
Q 900 1178 1048 958 
Q 1197 738 1509 602 
Q 1822 466 2213 466 
Q 2559 466 2825 569 
Q 3091 672 3220 851 
Q 3350 1031 3350 1244 
Q 3350 1459 3225 1620 
Q 3100 1781 2813 1891 
Q 2628 1963 1997 2114 
Q 1366 2266 1113 2400 
Q 784 2572 623 2826 
Q 463 3081 463 3397 
Q 463 3744 659 4045 
Q 856 4347 1234 4503 
Q 1613 4659 2075 4659 
Q 2584 4659 2973 4495 
Q 3363 4331 3572 4012 
Q 3781 3694 3797 3291 
L 3216 3247 
Q 3169 3681 2898 3903 
Q 2628 4125 2100 4125 
Q 1550 4125 1298 3923 
Q 1047 3722 1047 3438 
Q 1047 3191 1225 3031 
Q 1400 2872 2139 2705 
Q 2878 2538 3153 2413 
Q 3553 2228 3743 1945 
Q 3934 1663 3934 1294 
Q 3934 928 3725 604 
Q 3516 281 3123 101 
Q 2731 -78 2241 -78 
Q 1619 -78 1198 103 
Q 778 284 539 648 
Q 300 1013 288 1472 
z
" transform="scale(0.015625)"/>
       <path id="ArialMT-69" d="M 425 3934 
L 425 4581 
L 988 4581 
L 988 3934 
L 425 3934 
z
M 425 0 
L 425 3319 
L 988 3319 
L 988 0 
L 425 0 
z
" transform="scale(0.015625)"/>
       <path id="ArialMT-6d" d="M 422 0 
L 422 3319 
L 925 3319 
L 925 2853 
Q 1081 3097 1340 3245 
Q 1600 3394 1931 3394 
Q 2300 3394 2536 3241 
Q 2772 3088 2869 2813 
Q 3263 3394 3894 3394 
Q 4388 3394 4653 3120 
Q 4919 2847 4919 2278 
L 4919 0 
L 4359 0 
L 4359 2091 
Q 4359 2428 4304 2576 
Q 4250 2725 4106 2815 
Q 3963 2906 3769 2906 
Q 3419 2906 3187 2673 
Q 2956 2441 2956 1928 
L 2956 0 
L 2394 0 
L 2394 2156 
Q 2394 2531 2256 2718 
Q 2119 2906 1806 2906 
Q 1569 2906 1367 2781 
Q 1166 2656 1075 2415 
Q 984 2175 984 1722 
L 984 0 
L 422 0 
z
" transform="scale(0.015625)"/>
       <path id="ArialMT-75" d="M 2597 0 
L 2597 488 
Q 2209 -75 1544 -75 
Q 1250 -75 995 37 
Q 741 150 617 320 
Q 494 491 444 738 
Q 409 903 409 1263 
L 409 3319 
L 972 3319 
L 972 1478 
Q 972 1038 1006 884 
Q 1059 663 1231 536 
Q 1403 409 1656 409 
Q 1909 409 2131 539 
Q 2353 669 2445 892 
Q 2538 1116 2538 1541 
L 2538 3319 
L 3100 3319 
L 3100 0 
L 2597 0 
z
" transform="scale(0.015625)"/>
       <path id="ArialMT-6c" d="M 409 0 
L 409 4581 
L 972 4581 
L 972 0 
L 409 0 
z
" transform="scale(0.015625)"/>
       <path id="ArialMT-61" d="M 2588 409 
Q 2275 144 1986 34 
Q 1697 -75 1366 -75 
Q 819 -75 525 192 
Q 231 459 231 875 
Q 231 1119 342 1320 
Q 453 1522 633 1644 
Q 813 1766 1038 1828 
Q 1203 1872 1538 1913 
Q 2219 1994 2541 2106 
Q 2544 2222 2544 2253 
Q 2544 2597 2384 2738 
Q 2169 2928 1744 2928 
Q 1347 2928 1158 2789 
Q 969 2650 878 2297 
L 328 2372 
Q 403 2725 575 2942 
Q 747 3159 1072 3276 
Q 1397 3394 1825 3394 
Q 2250 3394 2515 3294 
Q 2781 3194 2906 3042 
Q 3031 2891 3081 2659 
Q 3109 2516 3109 2141 
L 3109 1391 
Q 3109 606 3145 398 
Q 3181 191 3288 0 
L 2700 0 
Q 2613 175 2588 409 
z
M 2541 1666 
Q 2234 1541 1622 1453 
Q 1275 1403 1131 1340 
Q 988 1278 909 1158 
Q 831 1038 831 891 
Q 831 666 1001 516 
Q 1172 366 1500 366 
Q 1825 366 2078 508 
Q 2331 650 2450 897 
Q 2541 1088 2541 1459 
L 2541 1666 
z
" transform="scale(0.015625)"/>
       <path id="ArialMT-74" d="M 1650 503 
L 1731 6 
Q 1494 -44 1306 -44 
Q 1000 -44 831 53 
Q 663 150 594 308 
Q 525 466 525 972 
L 525 2881 
L 113 2881 
L 113 3319 
L 525 3319 
L 525 4141 
L 1084 4478 
L 1084 3319 
L 1650 3319 
L 1650 2881 
L 1084 2881 
L 1084 941 
Q 1084 700 1114 631 
Q 1144 563 1211 522 
Q 1278 481 1403 481 
Q 1497 481 1650 503 
z
" transform="scale(0.015625)"/>
       <path id="ArialMT-6f" d="M 213 1659 
Q 213 2581 725 3025 
Q 1153 3394 1769 3394 
Q 2453 3394 2887 2945 
Q 3322 2497 3322 1706 
Q 3322 1066 3130 698 
Q 2938 331 2570 128 
Q 2203 -75 1769 -75 
Q 1072 -75 642 372 
Q 213 819 213 1659 
z
M 791 1659 
Q 791 1022 1069 705 
Q 1347 388 1769 388 
Q 2188 388 2466 706 
Q 2744 1025 2744 1678 
Q 2744 2294 2464 2611 
Q 2184 2928 1769 2928 
Q 1347 2928 1069 2612 
Q 791 2297 791 1659 
z
" transform="scale(0.015625)"/>
       <path id="ArialMT-6e" d="M 422 0 
L 422 3319 
L 928 3319 
L 928 2847 
Q 1294 3394 1984 3394 
Q 2284 3394 2536 3286 
Q 2788 3178 2913 3003 
Q 3038 2828 3088 2588 
Q 3119 2431 3119 2041 
L 3119 0 
L 2556 0 
L 2556 2019 
Q 2556 2363 2490 2533 
Q 2425 2703 2258 2804 
Q 2091 2906 1866 2906 
Q 1506 2906 1245 2678 
Q 984 2450 984 1813 
L 984 0 
L 422 0 
z
" transform="scale(0.015625)"/>
       <path id="ArialMT-20" transform="scale(0.015625)"/>
       <path id="ArialMT-65" d="M 2694 1069 
L 3275 997 
Q 3138 488 2766 206 
Q 2394 -75 1816 -75 
Q 1088 -75 661 373 
Q 234 822 234 1631 
Q 234 2469 665 2931 
Q 1097 3394 1784 3394 
Q 2450 3394 2872 2941 
Q 3294 2488 3294 1666 
Q 3294 1616 3291 1516 
L 816 1516 
Q 847 969 1125 678 
Q 1403 388 1819 388 
Q 2128 388 2347 550 
Q 2566 713 2694 1069 
z
M 847 1978 
L 2700 1978 
Q 2663 2397 2488 2606 
Q 2219 2931 1791 2931 
Q 1403 2931 1139 2672 
Q 875 2413 847 1978 
z
" transform="scale(0.015625)"/>
       <path id="ArialMT-28" d="M 1497 -1347 
Q 1031 -759 709 28 
Q 388 816 388 1659 
Q 388 2403 628 3084 
Q 909 3875 1497 4659 
L 1900 4659 
Q 1522 4009 1400 3731 
Q 1209 3300 1100 2831 
Q 966 2247 966 1656 
Q 966 153 1900 -1347 
L 1497 -1347 
z
" transform="scale(0.015625)"/>
       <path id="ArialMT-66" d="M 556 0 
L 556 2881 
L 59 2881 
L 59 3319 
L 556 3319 
L 556 3672 
Q 556 4006 616 4169 
Q 697 4388 901 4523 
Q 1106 4659 1475 4659 
Q 1713 4659 2000 4603 
L 1916 4113 
Q 1741 4144 1584 4144 
Q 1328 4144 1222 4034 
Q 1116 3925 1116 3625 
L 1116 3319 
L 1763 3319 
L 1763 2881 
L 1116 2881 
L 1116 0 
L 556 0 
z
" transform="scale(0.015625)"/>
       <path id="ArialMT-73" d="M 197 991 
L 753 1078 
Q 800 744 1014 566 
Q 1228 388 1613 388 
Q 2000 388 2187 545 
Q 2375 703 2375 916 
Q 2375 1106 2209 1216 
Q 2094 1291 1634 1406 
Q 1016 1563 777 1677 
Q 538 1791 414 1992 
Q 291 2194 291 2438 
Q 291 2659 392 2848 
Q 494 3038 669 3163 
Q 800 3259 1026 3326 
Q 1253 3394 1513 3394 
Q 1903 3394 2198 3281 
Q 2494 3169 2634 2976 
Q 2775 2784 2828 2463 
L 2278 2388 
Q 2241 2644 2061 2787 
Q 1881 2931 1553 2931 
Q 1166 2931 1000 2803 
Q 834 2675 834 2503 
Q 834 2394 903 2306 
Q 972 2216 1119 2156 
Q 1203 2125 1616 2013 
Q 2213 1853 2448 1751 
Q 2684 1650 2818 1456 
Q 2953 1263 2953 975 
Q 2953 694 2789 445 
Q 2625 197 2315 61 
Q 2006 -75 1616 -75 
Q 969 -75 630 194 
Q 291 463 197 991 
z
" transform="scale(0.015625)"/>
       <path id="ArialMT-29" d="M 791 -1347 
L 388 -1347 
Q 1322 153 1322 1656 
Q 1322 2244 1188 2822 
Q 1081 3291 891 3722 
Q 769 4003 388 4659 
L 791 4659 
Q 1378 3875 1659 3084 
Q 1900 2403 1900 1659 
Q 1900 816 1576 28 
Q 1253 -759 791 -1347 
z
" transform="scale(0.015625)"/>
      </defs>
      <use xlink:href="#ArialMT-53"/>
      <use xlink:href="#ArialMT-69" transform="translate(66.699219 0)"/>
      <use xlink:href="#ArialMT-6d" transform="translate(88.916016 0)"/>
      <use xlink:href="#ArialMT-75" transform="translate(172.216797 0)"/>
      <use xlink:href="#ArialMT-6c" transform="translate(227.832031 0)"/>
      <use xlink:href="#ArialMT-61" transform="translate(250.048828 0)"/>
      <use xlink:href="#ArialMT-74" transform="translate(305.664062 0)"/>
      <use xlink:href="#ArialMT-69" transform="translate(333.447266 0)"/>
      <use xlink:href="#ArialMT-6f" transform="translate(355.664062 0)"/>
      <use xlink:href="#ArialMT-6e" transform="translate(411.279297 0)"/>
      <use xlink:href="#ArialMT-20" transform="translate(466.894531 0)"/>
      <use xlink:href="#ArialMT-74" transform="translate(494.677734 0)"/>
      <use xlink:href="#ArialMT-69" transform="translate(522.460938 0)"/>
      <use xlink:href="#ArialMT-6d" transform="translate(544.677734 0)"/>
      <use xlink:href="#ArialMT-65" transform="translate(627.978516 0)"/>
      <use xlink:href="#ArialMT-20" transform="translate(683.59375 0)"/>
      <use xlink:href="#ArialMT-28" transform="translate(711.376953 0)"/>
      <use xlink:href="#ArialMT-66" transform="translate(744.677734 0)"/>
      <use xlink:href="#ArialMT-73" transform="translate(772.460938 0)"/>
      <use xlink:href="#ArialMT-29" transform="translate(822.460938 0)"/>
     </g>
    </g>
   </g>
   <g id="matplotlib.axis_2">
    <g id="ytick_1">
     <g id="line2d_13">
      <path d="M 45.131844 222.006699 
L 698.819844 222.006699 
" clip-path="url(#pd1526cb2d5)" style="fill: none; stroke: #ebedef; stroke-opacity: 0.6; stroke-linecap: round"/>
     </g>
     <g id="line2d_14">
      <defs>
       <path id="m2441fd9349" d="M 0 0 
L -6 0 
" style="stroke: #262626; stroke-width: 1.25"/>
      </defs>
      <g>
       <use xlink:href="#m2441fd9349" x="45.131844" y="222.006699" style="fill: #262626; stroke: #262626; stroke-width: 1.25"/>
      </g>
     </g>
     <g id="text_8">
      <!-- 0 -->
      <g style="fill: #262626" transform="translate(28.903109 226.337175) scale(0.121 -0.121)">
       <use xlink:href="#ArialMT-30"/>
      </g>
     </g>
    </g>
    <g id="ytick_2">
     <g id="line2d_15">
      <path d="M 45.131844 170.839193 
L 698.819844 170.839193 
" clip-path="url(#pd1526cb2d5)" style="fill: none; stroke: #ebedef; stroke-opacity: 0.6; stroke-linecap: round"/>
     </g>
     <g id="line2d_16">
      <g>
       <use xlink:href="#m2441fd9349" x="45.131844" y="170.839193" style="fill: #262626; stroke: #262626; stroke-width: 1.25"/>
      </g>
     </g>
     <g id="text_9">
      <!-- 10 -->
      <g style="fill: #262626" transform="translate(22.174375 175.169669) scale(0.121 -0.121)">
       <use xlink:href="#ArialMT-31"/>
       <use xlink:href="#ArialMT-30" transform="translate(55.615234 0)"/>
      </g>
     </g>
    </g>
    <g id="ytick_3">
     <g id="line2d_17">
      <path d="M 45.131844 119.671687 
L 698.819844 119.671687 
" clip-path="url(#pd1526cb2d5)" style="fill: none; stroke: #ebedef; stroke-opacity: 0.6; stroke-linecap: round"/>
     </g>
     <g id="line2d_18">
      <g>
       <use xlink:href="#m2441fd9349" x="45.131844" y="119.671687" style="fill: #262626; stroke: #262626; stroke-width: 1.25"/>
      </g>
     </g>
     <g id="text_10">
      <!-- 20 -->
      <g style="fill: #262626" transform="translate(22.174375 124.002163) scale(0.121 -0.121)">
       <use xlink:href="#ArialMT-32"/>
       <use xlink:href="#ArialMT-30" transform="translate(55.615234 0)"/>
      </g>
     </g>
    </g>
    <g id="ytick_4">
     <g id="line2d_19">
      <path d="M 45.131844 68.50418 
L 698.819844 68.50418 
" clip-path="url(#pd1526cb2d5)" style="fill: none; stroke: #ebedef; stroke-opacity: 0.6; stroke-linecap: round"/>
     </g>
     <g id="line2d_20">
      <g>
       <use xlink:href="#m2441fd9349" x="45.131844" y="68.50418" style="fill: #262626; stroke: #262626; stroke-width: 1.25"/>
      </g>
     </g>
     <g id="text_11">
      <!-- 30 -->
      <g style="fill: #262626" transform="translate(22.174375 72.834657) scale(0.121 -0.121)">
       <defs>
        <path id="ArialMT-33" d="M 269 1209 
L 831 1284 
Q 928 806 1161 595 
Q 1394 384 1728 384 
Q 2125 384 2398 659 
Q 2672 934 2672 1341 
Q 2672 1728 2419 1979 
Q 2166 2231 1775 2231 
Q 1616 2231 1378 2169 
L 1441 2663 
Q 1497 2656 1531 2656 
Q 1891 2656 2178 2843 
Q 2466 3031 2466 3422 
Q 2466 3731 2256 3934 
Q 2047 4138 1716 4138 
Q 1388 4138 1169 3931 
Q 950 3725 888 3313 
L 325 3413 
Q 428 3978 793 4289 
Q 1159 4600 1703 4600 
Q 2078 4600 2393 4439 
Q 2709 4278 2876 4000 
Q 3044 3722 3044 3409 
Q 3044 3113 2884 2869 
Q 2725 2625 2413 2481 
Q 2819 2388 3044 2092 
Q 3269 1797 3269 1353 
Q 3269 753 2831 336 
Q 2394 -81 1725 -81 
Q 1122 -81 723 278 
Q 325 638 269 1209 
z
" transform="scale(0.015625)"/>
       </defs>
       <use xlink:href="#ArialMT-33"/>
       <use xlink:href="#ArialMT-30" transform="translate(55.615234 0)"/>
      </g>
     </g>
    </g>
    <g id="text_12">
     <!-- Number of H-bonds -->
     <g style="fill: #262626" transform="translate(15.789375 179.699625) rotate(-90) scale(0.12 -0.12)">
      <defs>
       <path id="ArialMT-4e" d="M 488 0 
L 488 4581 
L 1109 4581 
L 3516 984 
L 3516 4581 
L 4097 4581 
L 4097 0 
L 3475 0 
L 1069 3600 
L 1069 0 
L 488 0 
z
" transform="scale(0.015625)"/>
       <path id="ArialMT-62" d="M 941 0 
L 419 0 
L 419 4581 
L 981 4581 
L 981 2947 
Q 1338 3394 1891 3394 
Q 2197 3394 2470 3270 
Q 2744 3147 2920 2923 
Q 3097 2700 3197 2384 
Q 3297 2069 3297 1709 
Q 3297 856 2875 390 
Q 2453 -75 1863 -75 
Q 1275 -75 941 416 
L 941 0 
z
M 934 1684 
Q 934 1088 1097 822 
Q 1363 388 1816 388 
Q 2184 388 2453 708 
Q 2722 1028 2722 1663 
Q 2722 2313 2464 2622 
Q 2206 2931 1841 2931 
Q 1472 2931 1203 2611 
Q 934 2291 934 1684 
z
" transform="scale(0.015625)"/>
       <path id="ArialMT-72" d="M 416 0 
L 416 3319 
L 922 3319 
L 922 2816 
Q 1116 3169 1280 3281 
Q 1444 3394 1641 3394 
Q 1925 3394 2219 3213 
L 2025 2691 
Q 1819 2813 1613 2813 
Q 1428 2813 1281 2702 
Q 1134 2591 1072 2394 
Q 978 2094 978 1738 
L 978 0 
L 416 0 
z
" transform="scale(0.015625)"/>
       <path id="ArialMT-48" d="M 513 0 
L 513 4581 
L 1119 4581 
L 1119 2700 
L 3500 2700 
L 3500 4581 
L 4106 4581 
L 4106 0 
L 3500 0 
L 3500 2159 
L 1119 2159 
L 1119 0 
L 513 0 
z
" transform="scale(0.015625)"/>
       <path id="ArialMT-2d" d="M 203 1375 
L 203 1941 
L 1931 1941 
L 1931 1375 
L 203 1375 
z
" transform="scale(0.015625)"/>
       <path id="ArialMT-64" d="M 2575 0 
L 2575 419 
Q 2259 -75 1647 -75 
Q 1250 -75 917 144 
Q 584 363 401 755 
Q 219 1147 219 1656 
Q 219 2153 384 2558 
Q 550 2963 881 3178 
Q 1213 3394 1622 3394 
Q 1922 3394 2156 3267 
Q 2391 3141 2538 2938 
L 2538 4581 
L 3097 4581 
L 3097 0 
L 2575 0 
z
M 797 1656 
Q 797 1019 1065 703 
Q 1334 388 1700 388 
Q 2069 388 2326 689 
Q 2584 991 2584 1609 
Q 2584 2291 2321 2609 
Q 2059 2928 1675 2928 
Q 1300 2928 1048 2622 
Q 797 2316 797 1656 
z
" transform="scale(0.015625)"/>
      </defs>
      <use xlink:href="#ArialMT-4e"/>
      <use xlink:href="#ArialMT-75" transform="translate(72.216797 0)"/>
      <use xlink:href="#ArialMT-6d" transform="translate(127.832031 0)"/>
      <use xlink:href="#ArialMT-62" transform="translate(211.132812 0)"/>
      <use xlink:href="#ArialMT-65" transform="translate(266.748047 0)"/>
      <use xlink:href="#ArialMT-72" transform="translate(322.363281 0)"/>
      <use xlink:href="#ArialMT-20" transform="translate(355.664062 0)"/>
      <use xlink:href="#ArialMT-6f" transform="translate(383.447266 0)"/>
      <use xlink:href="#ArialMT-66" transform="translate(439.0625 0)"/>
      <use xlink:href="#ArialMT-20" transform="translate(466.845703 0)"/>
      <use xlink:href="#ArialMT-48" transform="translate(494.628906 0)"/>
      <use xlink:href="#ArialMT-2d" transform="translate(566.845703 0)"/>
      <use xlink:href="#ArialMT-62" transform="translate(600.146484 0)"/>
      <use xlink:href="#ArialMT-6f" transform="translate(655.761719 0)"/>
      <use xlink:href="#ArialMT-6e" transform="translate(711.376953 0)"/>
      <use xlink:href="#ArialMT-64" transform="translate(766.992188 0)"/>
      <use xlink:href="#ArialMT-73" transform="translate(822.607422 0)"/>
     </g>
    </g>
   </g>
   <g id="FillBetweenPolyCollection_1">
    <defs>
     <path id="m3e279b77d7" d="M 74.844935 -52.493067 
L 74.844935 -149.711328 
L 76.033458 -154.828079 
L 77.221982 -154.828079 
L 78.410506 -154.828079 
L 79.599029 -149.711328 
L 80.787553 -154.828079 
L 81.976076 -165.06158 
L 83.1646 -175.295082 
L 84.353124 -175.295082 
L 85.541647 -175.295082 
L 86.730171 -175.295082 
L 87.918695 -175.295082 
L 89.107218 -175.295082 
L 90.295742 -175.295082 
L 91.484266 -175.295082 
L 92.672789 -175.295082 
L 93.861313 -175.295082 
L 95.049836 -175.295082 
L 96.23836 -180.411832 
L 97.426884 -185.528583 
L 98.615407 -185.528583 
L 99.803931 -185.528583 
L 100.992455 -185.528583 
L 102.180978 -185.528583 
L 103.369502 -185.528583 
L 104.558026 -185.528583 
L 105.746549 -185.528583 
L 106.935073 -185.528583 
L 108.123596 -185.528583 
L 109.31212 -185.528583 
L 110.500644 -185.528583 
L 111.689167 -185.528583 
L 112.877691 -185.528583 
L 114.066215 -185.528583 
L 115.254738 -185.528583 
L 116.443262 -185.528583 
L 117.631786 -185.528583 
L 118.820309 -185.528583 
L 120.008833 -185.528583 
L 121.197356 -185.528583 
L 122.38588 -185.528583 
L 123.574404 -185.528583 
L 124.762927 -185.528583 
L 125.951451 -185.528583 
L 127.139975 -190.645333 
L 128.328498 -190.645333 
L 129.517022 -190.645333 
L 130.705546 -190.645333 
L 131.894069 -190.645333 
L 133.082593 -190.645333 
L 134.271116 -195.762084 
L 135.45964 -195.762084 
L 136.648164 -195.762084 
L 137.836687 -195.762084 
L 139.025211 -195.762084 
L 140.213735 -190.645333 
L 141.402258 -190.645333 
L 142.590782 -190.645333 
L 143.779306 -190.645333 
L 144.967829 -195.762084 
L 146.156353 -195.762084 
L 147.344876 -195.762084 
L 148.5334 -200.878835 
L 149.721924 -200.878835 
L 150.910447 -200.878835 
L 152.098971 -200.878835 
L 153.287495 -200.878835 
L 154.476018 -195.762084 
L 155.664542 -195.762084 
L 156.853066 -195.762084 
L 158.041589 -195.762084 
L 159.230113 -195.762084 
L 160.418636 -200.878835 
L 161.60716 -200.878835 
L 162.795684 -205.995585 
L 163.984207 -205.995585 
L 165.172731 -205.995585 
L 166.361255 -205.995585 
L 167.549778 -205.995585 
L 168.738302 -205.995585 
L 169.926826 -205.995585 
L 171.115349 -195.762084 
L 172.303873 -195.762084 
L 173.492396 -195.762084 
L 174.68092 -195.762084 
L 175.869444 -190.645333 
L 177.057967 -190.645333 
L 178.246491 -190.645333 
L 179.435015 -190.645333 
L 180.623538 -190.645333 
L 181.812062 -195.762084 
L 183.000586 -195.762084 
L 184.189109 -195.762084 
L 185.377633 -195.762084 
L 186.566156 -195.762084 
L 187.75468 -200.878835 
L 188.943204 -200.878835 
L 190.131727 -200.878835 
L 191.320251 -200.878835 
L 192.508775 -200.878835 
L 193.697298 -200.878835 
L 194.885822 -200.878835 
L 196.074346 -200.878835 
L 197.262869 -200.878835 
L 198.451393 -200.878835 
L 199.639916 -205.995585 
L 200.82844 -205.995585 
L 202.016964 -211.112336 
L 203.205487 -211.112336 
L 204.394011 -211.112336 
L 205.582535 -211.112336 
L 206.771058 -211.112336 
L 207.959582 -211.112336 
L 209.148106 -211.112336 
L 210.336629 -211.112336 
L 211.525153 -205.995585 
L 212.713676 -200.878835 
L 213.9022 -200.878835 
L 215.090724 -200.878835 
L 216.279247 -200.878835 
L 217.467771 -200.878835 
L 218.656295 -200.878835 
L 219.844818 -200.878835 
L 221.033342 -200.878835 
L 222.221866 -200.878835 
L 223.410389 -200.878835 
L 224.598913 -195.762084 
L 225.787436 -195.762084 
L 226.97596 -195.762084 
L 228.164484 -195.762084 
L 229.353007 -190.645333 
L 230.541531 -190.645333 
L 231.730055 -190.645333 
L 232.918578 -195.762084 
L 234.107102 -200.878835 
L 235.295626 -205.995585 
L 236.484149 -205.995585 
L 237.672673 -205.995585 
L 238.861196 -205.995585 
L 240.04972 -205.995585 
L 241.238244 -205.995585 
L 242.426767 -205.995585 
L 243.615291 -205.995585 
L 244.803815 -211.112336 
L 245.992338 -211.112336 
L 247.180862 -211.112336 
L 248.369386 -211.112336 
L 249.557909 -211.112336 
L 250.746433 -211.112336 
L 251.934956 -211.112336 
L 253.12348 -211.112336 
L 254.312004 -205.995585 
L 255.500527 -205.995585 
L 256.689051 -205.995585 
L 257.877575 -205.995585 
L 259.066098 -205.995585 
L 260.254622 -205.995585 
L 261.443146 -205.995585 
L 262.631669 -205.995585 
L 263.820193 -205.995585 
L 265.008716 -205.995585 
L 266.19724 -205.995585 
L 267.385764 -205.995585 
L 268.574287 -205.995585 
L 269.762811 -205.995585 
L 270.951335 -205.995585 
L 272.139858 -205.995585 
L 273.328382 -205.995585 
L 274.516906 -205.995585 
L 275.705429 -205.995585 
L 276.893953 -211.112336 
L 278.082476 -211.112336 
L 279.271 -211.112336 
L 280.459524 -211.112336 
L 281.648047 -211.112336 
L 282.836571 -211.112336 
L 284.025095 -211.112336 
L 285.213618 -211.112336 
L 286.402142 -211.112336 
L 287.590666 -211.112336 
L 288.779189 -211.112336 
L 289.967713 -211.112336 
L 291.156236 -211.112336 
L 292.34476 -211.112336 
L 293.533284 -211.112336 
L 294.721807 -211.112336 
L 295.910331 -216.229086 
L 297.098855 -216.229086 
L 298.287378 -216.229086 
L 299.475902 -211.112336 
L 300.664426 -211.112336 
L 301.852949 -211.112336 
L 303.041473 -211.112336 
L 304.229996 -211.112336 
L 305.41852 -211.112336 
L 306.607044 -211.112336 
L 307.795567 -211.112336 
L 308.984091 -211.112336 
L 310.172615 -211.112336 
L 311.361138 -211.112336 
L 312.549662 -211.112336 
L 313.738186 -211.112336 
L 314.926709 -211.112336 
L 316.115233 -211.112336 
L 317.303756 -211.112336 
L 318.49228 -211.112336 
L 319.680804 -211.112336 
L 320.869327 -211.112336 
L 322.057851 -211.112336 
L 323.246375 -211.112336 
L 324.434898 -211.112336 
L 325.623422 -211.112336 
L 326.811946 -211.112336 
L 328.000469 -211.112336 
L 329.188993 -211.112336 
L 330.377516 -211.112336 
L 331.56604 -211.112336 
L 332.754564 -211.112336 
L 333.943087 -211.112336 
L 335.131611 -211.112336 
L 336.320135 -211.112336 
L 337.508658 -211.112336 
L 338.697182 -211.112336 
L 339.885706 -211.112336 
L 341.074229 -211.112336 
L 342.262753 -211.112336 
L 343.451276 -211.112336 
L 344.6398 -211.112336 
L 345.828324 -211.112336 
L 347.016847 -211.112336 
L 348.205371 -211.112336 
L 349.393895 -211.112336 
L 350.582418 -211.112336 
L 351.770942 -211.112336 
L 352.959466 -205.995585 
L 354.147989 -205.995585 
L 355.336513 -205.995585 
L 356.525036 -205.995585 
L 357.71356 -205.995585 
L 358.902084 -205.995585 
L 360.090607 -205.995585 
L 361.279131 -205.995585 
L 362.467655 -205.995585 
L 363.656178 -205.995585 
L 364.844702 -205.995585 
L 366.033226 -205.995585 
L 367.221749 -205.995585 
L 368.410273 -205.995585 
L 369.598796 -205.995585 
L 370.78732 -205.995585 
L 371.975844 -205.995585 
L 373.164367 -205.995585 
L 374.352891 -205.995585 
L 375.541415 -205.995585 
L 376.729938 -205.995585 
L 377.918462 -205.995585 
L 379.106986 -205.995585 
L 380.295509 -205.995585 
L 381.484033 -205.995585 
L 382.672556 -205.995585 
L 383.86108 -205.995585 
L 385.049604 -205.995585 
L 386.238127 -205.995585 
L 387.426651 -205.995585 
L 388.615175 -205.995585 
L 389.803698 -205.995585 
L 390.992222 -211.112336 
L 392.180746 -211.112336 
L 393.369269 -211.112336 
L 394.557793 -211.112336 
L 395.746316 -211.112336 
L 396.93484 -211.112336 
L 398.123364 -211.112336 
L 399.311887 -211.112336 
L 400.500411 -211.112336 
L 401.688935 -211.112336 
L 402.877458 -211.112336 
L 404.065982 -211.112336 
L 405.254506 -211.112336 
L 406.443029 -211.112336 
L 407.631553 -211.112336 
L 408.820076 -211.112336 
L 410.0086 -211.112336 
L 411.197124 -211.112336 
L 412.385647 -211.112336 
L 413.574171 -211.112336 
L 414.762695 -211.112336 
L 415.951218 -216.229086 
L 417.139742 -216.229086 
L 418.328266 -216.229086 
L 419.516789 -216.229086 
L 420.705313 -216.229086 
L 421.893836 -216.229086 
L 423.08236 -216.229086 
L 424.270884 -216.229086 
L 425.459407 -216.229086 
L 426.647931 -216.229086 
L 427.836455 -216.229086 
L 429.024978 -216.229086 
L 430.213502 -216.229086 
L 431.402026 -221.345837 
L 432.590549 -221.345837 
L 433.779073 -221.345837 
L 434.967596 -216.229086 
L 436.15612 -216.229086 
L 437.344644 -216.229086 
L 438.533167 -216.229086 
L 439.721691 -211.112336 
L 440.910215 -211.112336 
L 442.098738 -211.112336 
L 443.287262 -211.112336 
L 444.475786 -211.112336 
L 445.664309 -211.112336 
L 446.852833 -211.112336 
L 448.041356 -211.112336 
L 449.22988 -211.112336 
L 450.418404 -211.112336 
L 451.606927 -211.112336 
L 452.795451 -205.995585 
L 453.983975 -211.112336 
L 455.172498 -211.112336 
L 456.361022 -211.112336 
L 457.549546 -211.112336 
L 458.738069 -205.995585 
L 459.926593 -205.995585 
L 461.115116 -195.762084 
L 462.30364 -195.762084 
L 463.492164 -195.762084 
L 464.680687 -195.762084 
L 465.869211 -195.762084 
L 467.057735 -195.762084 
L 468.246258 -195.762084 
L 469.434782 -195.762084 
L 470.623306 -190.645333 
L 471.811829 -190.645333 
L 473.000353 -190.645333 
L 474.188876 -190.645333 
L 475.3774 -190.645333 
L 476.565924 -190.645333 
L 477.754447 -190.645333 
L 478.942971 -190.645333 
L 480.131495 -190.645333 
L 481.320018 -190.645333 
L 482.508542 -190.645333 
L 483.697066 -190.645333 
L 484.885589 -185.528583 
L 486.074113 -185.528583 
L 487.262636 -185.528583 
L 488.45116 -185.528583 
L 489.639684 -185.528583 
L 490.828207 -185.528583 
L 492.016731 -185.528583 
L 493.205255 -185.528583 
L 494.393778 -185.528583 
L 495.582302 -185.528583 
L 496.770826 -185.528583 
L 497.959349 -185.528583 
L 499.147873 -185.528583 
L 500.336396 -185.528583 
L 501.52492 -185.528583 
L 502.713444 -185.528583 
L 503.901967 -185.528583 
L 505.090491 -185.528583 
L 506.279015 -185.528583 
L 507.467538 -185.528583 
L 508.656062 -185.528583 
L 509.844586 -185.528583 
L 511.033109 -185.528583 
L 512.221633 -185.528583 
L 513.410156 -185.528583 
L 514.59868 -185.528583 
L 515.787204 -185.528583 
L 516.975727 -190.645333 
L 518.164251 -190.645333 
L 519.352775 -190.645333 
L 520.541298 -190.645333 
L 521.729822 -190.645333 
L 522.918346 -195.762084 
L 524.106869 -195.762084 
L 525.295393 -195.762084 
L 526.483916 -195.762084 
L 527.67244 -195.762084 
L 528.860964 -190.645333 
L 530.049487 -190.645333 
L 531.238011 -195.762084 
L 532.426535 -195.762084 
L 533.615058 -195.762084 
L 534.803582 -200.878835 
L 535.992106 -200.878835 
L 537.180629 -200.878835 
L 538.369153 -200.878835 
L 539.557676 -200.878835 
L 540.7462 -200.878835 
L 541.934724 -200.878835 
L 543.123247 -200.878835 
L 544.311771 -200.878835 
L 545.500295 -200.878835 
L 546.688818 -200.878835 
L 547.877342 -205.995585 
L 549.065866 -211.112336 
L 550.254389 -211.112336 
L 551.442913 -211.112336 
L 552.631436 -211.112336 
L 553.81996 -211.112336 
L 555.008484 -211.112336 
L 556.197007 -211.112336 
L 557.385531 -211.112336 
L 558.574055 -211.112336 
L 559.762578 -211.112336 
L 560.951102 -211.112336 
L 562.139626 -211.112336 
L 563.328149 -211.112336 
L 564.516673 -211.112336 
L 565.705196 -211.112336 
L 566.89372 -211.112336 
L 568.082244 -216.229086 
L 569.270767 -216.229086 
L 570.459291 -216.229086 
L 571.647815 -216.229086 
L 572.836338 -216.229086 
L 574.024862 -216.229086 
L 575.213386 -216.229086 
L 576.401909 -216.229086 
L 577.590433 -216.229086 
L 578.778956 -216.229086 
L 579.96748 -216.229086 
L 581.156004 -216.229086 
L 582.344527 -216.229086 
L 583.533051 -231.579338 
L 584.721575 -231.579338 
L 585.910098 -231.579338 
L 587.098622 -231.579338 
L 588.287146 -231.579338 
L 589.475669 -231.579338 
L 590.664193 -231.579338 
L 591.852716 -231.579338 
L 593.04124 -226.462588 
L 594.229764 -226.462588 
L 595.418287 -226.462588 
L 596.606811 -231.579338 
L 597.795335 -231.579338 
L 598.983858 -231.579338 
L 600.172382 -231.579338 
L 601.360906 -231.579338 
L 602.549429 -231.579338 
L 603.737953 -231.579338 
L 604.926476 -231.579338 
L 606.115 -231.579338 
L 607.303524 -231.579338 
L 608.492047 -231.579338 
L 609.680571 -231.579338 
L 610.869095 -231.579338 
L 612.057618 -231.579338 
L 613.246142 -231.579338 
L 614.434666 -231.579338 
L 615.623189 -231.579338 
L 616.811713 -231.579338 
L 618.000236 -231.579338 
L 619.18876 -231.579338 
L 620.377284 -231.579338 
L 621.565807 -231.579338 
L 622.754331 -231.579338 
L 623.942855 -231.579338 
L 625.131378 -231.579338 
L 626.319902 -231.579338 
L 627.508426 -231.579338 
L 628.696949 -231.579338 
L 629.885473 -231.579338 
L 631.073996 -231.579338 
L 632.26252 -231.579338 
L 633.451044 -231.579338 
L 634.639567 -231.579338 
L 635.828091 -231.579338 
L 637.016615 -231.579338 
L 638.205138 -231.579338 
L 639.393662 -231.579338 
L 640.582186 -231.579338 
L 641.770709 -231.579338 
L 642.959233 -236.696089 
L 644.147756 -236.696089 
L 645.33628 -236.696089 
L 646.524804 -236.696089 
L 647.713327 -236.696089 
L 648.901851 -236.696089 
L 650.090375 -236.696089 
L 651.278898 -236.696089 
L 652.467422 -236.696089 
L 653.655946 -236.696089 
L 654.844469 -236.696089 
L 656.032993 -236.696089 
L 657.221516 -236.696089 
L 658.41004 -236.696089 
L 659.598564 -236.696089 
L 660.787087 -236.696089 
L 661.975611 -236.696089 
L 663.164135 -236.696089 
L 664.352658 -236.696089 
L 665.541182 -236.696089 
L 666.729706 -236.696089 
L 667.918229 -241.812839 
L 669.106753 -241.812839 
L 669.106753 -52.493067 
L 669.106753 -52.493067 
L 667.918229 -52.493067 
L 666.729706 -52.493067 
L 665.541182 -52.493067 
L 664.352658 -52.493067 
L 663.164135 -52.493067 
L 661.975611 -52.493067 
L 660.787087 -52.493067 
L 659.598564 -52.493067 
L 658.41004 -52.493067 
L 657.221516 -52.493067 
L 656.032993 -52.493067 
L 654.844469 -52.493067 
L 653.655946 -52.493067 
L 652.467422 -52.493067 
L 651.278898 -52.493067 
L 650.090375 -52.493067 
L 648.901851 -52.493067 
L 647.713327 -52.493067 
L 646.524804 -52.493067 
L 645.33628 -52.493067 
L 644.147756 -52.493067 
L 642.959233 -52.493067 
L 641.770709 -52.493067 
L 640.582186 -52.493067 
L 639.393662 -52.493067 
L 638.205138 -52.493067 
L 637.016615 -52.493067 
L 635.828091 -52.493067 
L 634.639567 -52.493067 
L 633.451044 -52.493067 
L 632.26252 -52.493067 
L 631.073996 -52.493067 
L 629.885473 -52.493067 
L 628.696949 -52.493067 
L 627.508426 -52.493067 
L 626.319902 -52.493067 
L 625.131378 -52.493067 
L 623.942855 -52.493067 
L 622.754331 -52.493067 
L 621.565807 -52.493067 
L 620.377284 -52.493067 
L 619.18876 -52.493067 
L 618.000236 -52.493067 
L 616.811713 -52.493067 
L 615.623189 -52.493067 
L 614.434666 -52.493067 
L 613.246142 -52.493067 
L 612.057618 -52.493067 
L 610.869095 -52.493067 
L 609.680571 -52.493067 
L 608.492047 -52.493067 
L 607.303524 -52.493067 
L 606.115 -52.493067 
L 604.926476 -52.493067 
L 603.737953 -52.493067 
L 602.549429 -52.493067 
L 601.360906 -52.493067 
L 600.172382 -52.493067 
L 598.983858 -52.493067 
L 597.795335 -52.493067 
L 596.606811 -52.493067 
L 595.418287 -52.493067 
L 594.229764 -52.493067 
L 593.04124 -52.493067 
L 591.852716 -52.493067 
L 590.664193 -52.493067 
L 589.475669 -52.493067 
L 588.287146 -52.493067 
L 587.098622 -52.493067 
L 585.910098 -52.493067 
L 584.721575 -52.493067 
L 583.533051 -52.493067 
L 582.344527 -52.493067 
L 581.156004 -52.493067 
L 579.96748 -52.493067 
L 578.778956 -52.493067 
L 577.590433 -52.493067 
L 576.401909 -52.493067 
L 575.213386 -52.493067 
L 574.024862 -52.493067 
L 572.836338 -52.493067 
L 571.647815 -52.493067 
L 570.459291 -52.493067 
L 569.270767 -52.493067 
L 568.082244 -52.493067 
L 566.89372 -52.493067 
L 565.705196 -52.493067 
L 564.516673 -52.493067 
L 563.328149 -52.493067 
L 562.139626 -52.493067 
L 560.951102 -52.493067 
L 559.762578 -52.493067 
L 558.574055 -52.493067 
L 557.385531 -52.493067 
L 556.197007 -52.493067 
L 555.008484 -52.493067 
L 553.81996 -52.493067 
L 552.631436 -52.493067 
L 551.442913 -52.493067 
L 550.254389 -52.493067 
L 549.065866 -52.493067 
L 547.877342 -52.493067 
L 546.688818 -52.493067 
L 545.500295 -52.493067 
L 544.311771 -52.493067 
L 543.123247 -52.493067 
L 541.934724 -52.493067 
L 540.7462 -52.493067 
L 539.557676 -52.493067 
L 538.369153 -52.493067 
L 537.180629 -52.493067 
L 535.992106 -52.493067 
L 534.803582 -52.493067 
L 533.615058 -52.493067 
L 532.426535 -52.493067 
L 531.238011 -52.493067 
L 530.049487 -52.493067 
L 528.860964 -52.493067 
L 527.67244 -52.493067 
L 526.483916 -52.493067 
L 525.295393 -52.493067 
L 524.106869 -52.493067 
L 522.918346 -52.493067 
L 521.729822 -52.493067 
L 520.541298 -52.493067 
L 519.352775 -52.493067 
L 518.164251 -52.493067 
L 516.975727 -52.493067 
L 515.787204 -52.493067 
L 514.59868 -52.493067 
L 513.410156 -52.493067 
L 512.221633 -52.493067 
L 511.033109 -52.493067 
L 509.844586 -52.493067 
L 508.656062 -52.493067 
L 507.467538 -52.493067 
L 506.279015 -52.493067 
L 505.090491 -52.493067 
L 503.901967 -52.493067 
L 502.713444 -52.493067 
L 501.52492 -52.493067 
L 500.336396 -52.493067 
L 499.147873 -52.493067 
L 497.959349 -52.493067 
L 496.770826 -52.493067 
L 495.582302 -52.493067 
L 494.393778 -52.493067 
L 493.205255 -52.493067 
L 492.016731 -52.493067 
L 490.828207 -52.493067 
L 489.639684 -52.493067 
L 488.45116 -52.493067 
L 487.262636 -52.493067 
L 486.074113 -52.493067 
L 484.885589 -52.493067 
L 483.697066 -52.493067 
L 482.508542 -52.493067 
L 481.320018 -52.493067 
L 480.131495 -52.493067 
L 478.942971 -52.493067 
L 477.754447 -52.493067 
L 476.565924 -52.493067 
L 475.3774 -52.493067 
L 474.188876 -52.493067 
L 473.000353 -52.493067 
L 471.811829 -52.493067 
L 470.623306 -52.493067 
L 469.434782 -52.493067 
L 468.246258 -52.493067 
L 467.057735 -52.493067 
L 465.869211 -52.493067 
L 464.680687 -52.493067 
L 463.492164 -52.493067 
L 462.30364 -52.493067 
L 461.115116 -52.493067 
L 459.926593 -52.493067 
L 458.738069 -52.493067 
L 457.549546 -52.493067 
L 456.361022 -52.493067 
L 455.172498 -52.493067 
L 453.983975 -52.493067 
L 452.795451 -52.493067 
L 451.606927 -52.493067 
L 450.418404 -52.493067 
L 449.22988 -52.493067 
L 448.041356 -52.493067 
L 446.852833 -52.493067 
L 445.664309 -52.493067 
L 444.475786 -52.493067 
L 443.287262 -52.493067 
L 442.098738 -52.493067 
L 440.910215 -52.493067 
L 439.721691 -52.493067 
L 438.533167 -52.493067 
L 437.344644 -52.493067 
L 436.15612 -52.493067 
L 434.967596 -52.493067 
L 433.779073 -52.493067 
L 432.590549 -52.493067 
L 431.402026 -52.493067 
L 430.213502 -52.493067 
L 429.024978 -52.493067 
L 427.836455 -52.493067 
L 426.647931 -52.493067 
L 425.459407 -52.493067 
L 424.270884 -52.493067 
L 423.08236 -52.493067 
L 421.893836 -52.493067 
L 420.705313 -52.493067 
L 419.516789 -52.493067 
L 418.328266 -52.493067 
L 417.139742 -52.493067 
L 415.951218 -52.493067 
L 414.762695 -52.493067 
L 413.574171 -52.493067 
L 412.385647 -52.493067 
L 411.197124 -52.493067 
L 410.0086 -52.493067 
L 408.820076 -52.493067 
L 407.631553 -52.493067 
L 406.443029 -52.493067 
L 405.254506 -52.493067 
L 404.065982 -52.493067 
L 402.877458 -52.493067 
L 401.688935 -52.493067 
L 400.500411 -52.493067 
L 399.311887 -52.493067 
L 398.123364 -52.493067 
L 396.93484 -52.493067 
L 395.746316 -52.493067 
L 394.557793 -52.493067 
L 393.369269 -52.493067 
L 392.180746 -52.493067 
L 390.992222 -52.493067 
L 389.803698 -52.493067 
L 388.615175 -52.493067 
L 387.426651 -52.493067 
L 386.238127 -52.493067 
L 385.049604 -52.493067 
L 383.86108 -52.493067 
L 382.672556 -52.493067 
L 381.484033 -52.493067 
L 380.295509 -52.493067 
L 379.106986 -52.493067 
L 377.918462 -52.493067 
L 376.729938 -52.493067 
L 375.541415 -52.493067 
L 374.352891 -52.493067 
L 373.164367 -52.493067 
L 371.975844 -52.493067 
L 370.78732 -52.493067 
L 369.598796 -52.493067 
L 368.410273 -52.493067 
L 367.221749 -52.493067 
L 366.033226 -52.493067 
L 364.844702 -52.493067 
L 363.656178 -52.493067 
L 362.467655 -52.493067 
L 361.279131 -52.493067 
L 360.090607 -52.493067 
L 358.902084 -52.493067 
L 357.71356 -52.493067 
L 356.525036 -52.493067 
L 355.336513 -52.493067 
L 354.147989 -52.493067 
L 352.959466 -52.493067 
L 351.770942 -52.493067 
L 350.582418 -52.493067 
L 349.393895 -52.493067 
L 348.205371 -52.493067 
L 347.016847 -52.493067 
L 345.828324 -52.493067 
L 344.6398 -52.493067 
L 343.451276 -52.493067 
L 342.262753 -52.493067 
L 341.074229 -52.493067 
L 339.885706 -52.493067 
L 338.697182 -52.493067 
L 337.508658 -52.493067 
L 336.320135 -52.493067 
L 335.131611 -52.493067 
L 333.943087 -52.493067 
L 332.754564 -52.493067 
L 331.56604 -52.493067 
L 330.377516 -52.493067 
L 329.188993 -52.493067 
L 328.000469 -52.493067 
L 326.811946 -52.493067 
L 325.623422 -52.493067 
L 324.434898 -52.493067 
L 323.246375 -52.493067 
L 322.057851 -52.493067 
L 320.869327 -52.493067 
L 319.680804 -52.493067 
L 318.49228 -52.493067 
L 317.303756 -52.493067 
L 316.115233 -52.493067 
L 314.926709 -52.493067 
L 313.738186 -52.493067 
L 312.549662 -52.493067 
L 311.361138 -52.493067 
L 310.172615 -52.493067 
L 308.984091 -52.493067 
L 307.795567 -52.493067 
L 306.607044 -52.493067 
L 305.41852 -52.493067 
L 304.229996 -52.493067 
L 303.041473 -52.493067 
L 301.852949 -52.493067 
L 300.664426 -52.493067 
L 299.475902 -52.493067 
L 298.287378 -52.493067 
L 297.098855 -52.493067 
L 295.910331 -52.493067 
L 294.721807 -52.493067 
L 293.533284 -52.493067 
L 292.34476 -52.493067 
L 291.156236 -52.493067 
L 289.967713 -52.493067 
L 288.779189 -52.493067 
L 287.590666 -52.493067 
L 286.402142 -52.493067 
L 285.213618 -52.493067 
L 284.025095 -52.493067 
L 282.836571 -52.493067 
L 281.648047 -52.493067 
L 280.459524 -52.493067 
L 279.271 -52.493067 
L 278.082476 -52.493067 
L 276.893953 -52.493067 
L 275.705429 -52.493067 
L 274.516906 -52.493067 
L 273.328382 -52.493067 
L 272.139858 -52.493067 
L 270.951335 -52.493067 
L 269.762811 -52.493067 
L 268.574287 -52.493067 
L 267.385764 -52.493067 
L 266.19724 -52.493067 
L 265.008716 -52.493067 
L 263.820193 -52.493067 
L 262.631669 -52.493067 
L 261.443146 -52.493067 
L 260.254622 -52.493067 
L 259.066098 -52.493067 
L 257.877575 -52.493067 
L 256.689051 -52.493067 
L 255.500527 -52.493067 
L 254.312004 -52.493067 
L 253.12348 -52.493067 
L 251.934956 -52.493067 
L 250.746433 -52.493067 
L 249.557909 -52.493067 
L 248.369386 -52.493067 
L 247.180862 -52.493067 
L 245.992338 -52.493067 
L 244.803815 -52.493067 
L 243.615291 -52.493067 
L 242.426767 -52.493067 
L 241.238244 -52.493067 
L 240.04972 -52.493067 
L 238.861196 -52.493067 
L 237.672673 -52.493067 
L 236.484149 -52.493067 
L 235.295626 -52.493067 
L 234.107102 -52.493067 
L 232.918578 -52.493067 
L 231.730055 -52.493067 
L 230.541531 -52.493067 
L 229.353007 -52.493067 
L 228.164484 -52.493067 
L 226.97596 -52.493067 
L 225.787436 -52.493067 
L 224.598913 -52.493067 
L 223.410389 -52.493067 
L 222.221866 -52.493067 
L 221.033342 -52.493067 
L 219.844818 -52.493067 
L 218.656295 -52.493067 
L 217.467771 -52.493067 
L 216.279247 -52.493067 
L 215.090724 -52.493067 
L 213.9022 -52.493067 
L 212.713676 -52.493067 
L 211.525153 -52.493067 
L 210.336629 -52.493067 
L 209.148106 -52.493067 
L 207.959582 -52.493067 
L 206.771058 -52.493067 
L 205.582535 -52.493067 
L 204.394011 -52.493067 
L 203.205487 -52.493067 
L 202.016964 -52.493067 
L 200.82844 -52.493067 
L 199.639916 -52.493067 
L 198.451393 -52.493067 
L 197.262869 -52.493067 
L 196.074346 -52.493067 
L 194.885822 -52.493067 
L 193.697298 -52.493067 
L 192.508775 -52.493067 
L 191.320251 -52.493067 
L 190.131727 -52.493067 
L 188.943204 -52.493067 
L 187.75468 -52.493067 
L 186.566156 -52.493067 
L 185.377633 -52.493067 
L 184.189109 -52.493067 
L 183.000586 -52.493067 
L 181.812062 -52.493067 
L 180.623538 -52.493067 
L 179.435015 -52.493067 
L 178.246491 -52.493067 
L 177.057967 -52.493067 
L 175.869444 -52.493067 
L 174.68092 -52.493067 
L 173.492396 -52.493067 
L 172.303873 -52.493067 
L 171.115349 -52.493067 
L 169.926826 -52.493067 
L 168.738302 -52.493067 
L 167.549778 -52.493067 
L 166.361255 -52.493067 
L 165.172731 -52.493067 
L 163.984207 -52.493067 
L 162.795684 -52.493067 
L 161.60716 -52.493067 
L 160.418636 -52.493067 
L 159.230113 -52.493067 
L 158.041589 -52.493067 
L 156.853066 -52.493067 
L 155.664542 -52.493067 
L 154.476018 -52.493067 
L 153.287495 -52.493067 
L 152.098971 -52.493067 
L 150.910447 -52.493067 
L 149.721924 -52.493067 
L 148.5334 -52.493067 
L 147.344876 -52.493067 
L 146.156353 -52.493067 
L 144.967829 -52.493067 
L 143.779306 -52.493067 
L 142.590782 -52.493067 
L 141.402258 -52.493067 
L 140.213735 -52.493067 
L 139.025211 -52.493067 
L 137.836687 -52.493067 
L 136.648164 -52.493067 
L 135.45964 -52.493067 
L 134.271116 -52.493067 
L 133.082593 -52.493067 
L 131.894069 -52.493067 
L 130.705546 -52.493067 
L 129.517022 -52.493067 
L 128.328498 -52.493067 
L 127.139975 -52.493067 
L 125.951451 -52.493067 
L 124.762927 -52.493067 
L 123.574404 -52.493067 
L 122.38588 -52.493067 
L 121.197356 -52.493067 
L 120.008833 -52.493067 
L 118.820309 -52.493067 
L 117.631786 -52.493067 
L 116.443262 -52.493067 
L 115.254738 -52.493067 
L 114.066215 -52.493067 
L 112.877691 -52.493067 
L 111.689167 -52.493067 
L 110.500644 -52.493067 
L 109.31212 -52.493067 
L 108.123596 -52.493067 
L 106.935073 -52.493067 
L 105.746549 -52.493067 
L 104.558026 -52.493067 
L 103.369502 -52.493067 
L 102.180978 -52.493067 
L 100.992455 -52.493067 
L 99.803931 -52.493067 
L 98.615407 -52.493067 
L 97.426884 -52.493067 
L 96.23836 -52.493067 
L 95.049836 -52.493067 
L 93.861313 -52.493067 
L 92.672789 -52.493067 
L 91.484266 -52.493067 
L 90.295742 -52.493067 
L 89.107218 -52.493067 
L 87.918695 -52.493067 
L 86.730171 -52.493067 
L 85.541647 -52.493067 
L 84.353124 -52.493067 
L 83.1646 -52.493067 
L 81.976076 -52.493067 
L 80.787553 -52.493067 
L 79.599029 -52.493067 
L 78.410506 -52.493067 
L 77.221982 -52.493067 
L 76.033458 -52.493067 
L 74.844935 -52.493067 
z
" style="stroke: #5dade2; stroke-opacity: 0.2"/>
    </defs>
    <g clip-path="url(#pd1526cb2d5)">
     <use xlink:href="#m3e279b77d7" x="0" y="274.499766" style="fill: #5dade2; fill-opacity: 0.2; stroke: #5dade2; stroke-opacity: 0.2"/>
    </g>
   </g>
   <g id="line2d_21">
    <path d="M 74.844935 124.788437 
L 76.033458 119.671687 
L 78.410506 119.671687 
L 79.599029 124.788437 
L 80.787553 119.671687 
L 83.1646 99.204684 
L 95.049836 99.204684 
L 97.426884 88.971183 
L 125.951451 88.971183 
L 127.139975 83.854432 
L 133.082593 83.854432 
L 134.271116 78.737682 
L 139.025211 78.737682 
L 140.213735 83.854432 
L 143.779306 83.854432 
L 144.967829 78.737682 
L 147.344876 78.737682 
L 148.5334 73.620931 
L 153.287495 73.620931 
L 154.476018 78.737682 
L 159.230113 78.737682 
L 160.418636 73.620931 
L 161.60716 73.620931 
L 162.795684 68.50418 
L 169.926826 68.50418 
L 171.115349 78.737682 
L 174.68092 78.737682 
L 175.869444 83.854432 
L 180.623538 83.854432 
L 181.812062 78.737682 
L 186.566156 78.737682 
L 187.75468 73.620931 
L 198.451393 73.620931 
L 199.639916 68.50418 
L 200.82844 68.50418 
L 202.016964 63.38743 
L 210.336629 63.38743 
L 212.713676 73.620931 
L 223.410389 73.620931 
L 224.598913 78.737682 
L 228.164484 78.737682 
L 229.353007 83.854432 
L 231.730055 83.854432 
L 235.295626 68.50418 
L 243.615291 68.50418 
L 244.803815 63.38743 
L 253.12348 63.38743 
L 254.312004 68.50418 
L 275.705429 68.50418 
L 276.893953 63.38743 
L 294.721807 63.38743 
L 295.910331 58.270679 
L 298.287378 58.270679 
L 299.475902 63.38743 
L 351.770942 63.38743 
L 352.959466 68.50418 
L 389.803698 68.50418 
L 390.992222 63.38743 
L 414.762695 63.38743 
L 415.951218 58.270679 
L 430.213502 58.270679 
L 431.402026 53.153929 
L 433.779073 53.153929 
L 434.967596 58.270679 
L 438.533167 58.270679 
L 439.721691 63.38743 
L 451.606927 63.38743 
L 452.795451 68.50418 
L 453.983975 63.38743 
L 457.549546 63.38743 
L 458.738069 68.50418 
L 459.926593 68.50418 
L 461.115116 78.737682 
L 469.434782 78.737682 
L 470.623306 83.854432 
L 483.697066 83.854432 
L 484.885589 88.971183 
L 515.787204 88.971183 
L 516.975727 83.854432 
L 521.729822 83.854432 
L 522.918346 78.737682 
L 527.67244 78.737682 
L 528.860964 83.854432 
L 530.049487 83.854432 
L 531.238011 78.737682 
L 533.615058 78.737682 
L 534.803582 73.620931 
L 546.688818 73.620931 
L 549.065866 63.38743 
L 566.89372 63.38743 
L 568.082244 58.270679 
L 582.344527 58.270679 
L 583.533051 42.920427 
L 591.852716 42.920427 
L 593.04124 48.037178 
L 595.418287 48.037178 
L 596.606811 42.920427 
L 641.770709 42.920427 
L 642.959233 37.803677 
L 666.729706 37.803677 
L 667.918229 32.686926 
L 669.106753 32.686926 
L 669.106753 32.686926 
" clip-path="url(#pd1526cb2d5)" style="fill: none; stroke: #5dade2; stroke-opacity: 0.9; stroke-width: 2; stroke-linecap: round"/>
   </g>
   <g id="patch_3">
    <path d="M 45.131844 231.472688 
L 45.131844 23.220938 
" style="fill: none; stroke: #262626; stroke-width: 1.25; stroke-linejoin: miter; stroke-linecap: square"/>
   </g>
   <g id="patch_4">
    <path d="M 698.819844 231.472688 
L 698.819844 23.220938 
" style="fill: none; stroke: #262626; stroke-width: 1.25; stroke-linejoin: miter; stroke-linecap: square"/>
   </g>
   <g id="patch_5">
    <path d="M 45.131844 231.472688 
L 698.819844 231.472688 
" style="fill: none; stroke: #262626; stroke-width: 1.25; stroke-linejoin: miter; stroke-linecap: square"/>
   </g>
   <g id="patch_6">
    <path d="M 45.131844 23.220938 
L 698.819844 23.220938 
" style="fill: none; stroke: #262626; stroke-width: 1.25; stroke-linejoin: miter; stroke-linecap: square"/>
   </g>
   <g id="text_13">
    <!-- Hydrogen Bond Network Dynamics -->
    <g style="fill: #2c3e50" transform="translate(254.906312 17.220937) scale(0.14 -0.14)">
     <defs>
      <path id="Arial-BoldMT-48" d="M 469 0 
L 469 4581 
L 1394 4581 
L 1394 2778 
L 3206 2778 
L 3206 4581 
L 4131 4581 
L 4131 0 
L 3206 0 
L 3206 2003 
L 1394 2003 
L 1394 0 
L 469 0 
z
" transform="scale(0.015625)"/>
      <path id="Arial-BoldMT-79" d="M 44 3319 
L 978 3319 
L 1772 963 
L 2547 3319 
L 3456 3319 
L 2284 125 
L 2075 -453 
Q 1959 -744 1854 -897 
Q 1750 -1050 1614 -1145 
Q 1478 -1241 1279 -1294 
Q 1081 -1347 831 -1347 
Q 578 -1347 334 -1294 
L 256 -606 
Q 463 -647 628 -647 
Q 934 -647 1081 -467 
Q 1228 -288 1306 -9 
L 44 3319 
z
" transform="scale(0.015625)"/>
      <path id="Arial-BoldMT-64" d="M 3503 0 
L 2688 0 
L 2688 488 
Q 2484 203 2207 64 
Q 1931 -75 1650 -75 
Q 1078 -75 670 386 
Q 263 847 263 1672 
Q 263 2516 659 2955 
Q 1056 3394 1663 3394 
Q 2219 3394 2625 2931 
L 2625 4581 
L 3503 4581 
L 3503 0 
z
M 1159 1731 
Q 1159 1200 1306 963 
Q 1519 619 1900 619 
Q 2203 619 2415 876 
Q 2628 1134 2628 1647 
Q 2628 2219 2422 2470 
Q 2216 2722 1894 2722 
Q 1581 2722 1370 2473 
Q 1159 2225 1159 1731 
z
" transform="scale(0.015625)"/>
      <path id="Arial-BoldMT-72" d="M 1300 0 
L 422 0 
L 422 3319 
L 1238 3319 
L 1238 2847 
Q 1447 3181 1614 3287 
Q 1781 3394 1994 3394 
Q 2294 3394 2572 3228 
L 2300 2463 
Q 2078 2606 1888 2606 
Q 1703 2606 1575 2504 
Q 1447 2403 1373 2137 
Q 1300 1872 1300 1025 
L 1300 0 
z
" transform="scale(0.015625)"/>
      <path id="Arial-BoldMT-6f" d="M 256 1706 
Q 256 2144 472 2553 
Q 688 2963 1083 3178 
Q 1478 3394 1966 3394 
Q 2719 3394 3200 2905 
Q 3681 2416 3681 1669 
Q 3681 916 3195 420 
Q 2709 -75 1972 -75 
Q 1516 -75 1102 131 
Q 688 338 472 736 
Q 256 1134 256 1706 
z
M 1156 1659 
Q 1156 1166 1390 903 
Q 1625 641 1969 641 
Q 2313 641 2545 903 
Q 2778 1166 2778 1666 
Q 2778 2153 2545 2415 
Q 2313 2678 1969 2678 
Q 1625 2678 1390 2415 
Q 1156 2153 1156 1659 
z
" transform="scale(0.015625)"/>
      <path id="Arial-BoldMT-67" d="M 378 -219 
L 1381 -341 
Q 1406 -516 1497 -581 
Q 1622 -675 1891 -675 
Q 2234 -675 2406 -572 
Q 2522 -503 2581 -350 
Q 2622 -241 2622 53 
L 2622 538 
Q 2228 0 1628 0 
Q 959 0 569 566 
Q 263 1013 263 1678 
Q 263 2513 664 2953 
Q 1066 3394 1663 3394 
Q 2278 3394 2678 2853 
L 2678 3319 
L 3500 3319 
L 3500 341 
Q 3500 -247 3403 -537 
Q 3306 -828 3131 -993 
Q 2956 -1159 2664 -1253 
Q 2372 -1347 1925 -1347 
Q 1081 -1347 728 -1058 
Q 375 -769 375 -325 
Q 375 -281 378 -219 
z
M 1163 1728 
Q 1163 1200 1367 954 
Q 1572 709 1872 709 
Q 2194 709 2416 961 
Q 2638 1213 2638 1706 
Q 2638 2222 2425 2472 
Q 2213 2722 1888 2722 
Q 1572 2722 1367 2476 
Q 1163 2231 1163 1728 
z
" transform="scale(0.015625)"/>
      <path id="Arial-BoldMT-65" d="M 2381 1056 
L 3256 909 
Q 3088 428 2723 176 
Q 2359 -75 1813 -75 
Q 947 -75 531 491 
Q 203 944 203 1634 
Q 203 2459 634 2926 
Q 1066 3394 1725 3394 
Q 2466 3394 2894 2905 
Q 3322 2416 3303 1406 
L 1103 1406 
Q 1113 1016 1316 798 
Q 1519 581 1822 581 
Q 2028 581 2168 693 
Q 2309 806 2381 1056 
z
M 2431 1944 
Q 2422 2325 2234 2523 
Q 2047 2722 1778 2722 
Q 1491 2722 1303 2513 
Q 1116 2303 1119 1944 
L 2431 1944 
z
" transform="scale(0.015625)"/>
      <path id="Arial-BoldMT-6e" d="M 3478 0 
L 2600 0 
L 2600 1694 
Q 2600 2231 2544 2389 
Q 2488 2547 2361 2634 
Q 2234 2722 2056 2722 
Q 1828 2722 1647 2597 
Q 1466 2472 1398 2265 
Q 1331 2059 1331 1503 
L 1331 0 
L 453 0 
L 453 3319 
L 1269 3319 
L 1269 2831 
Q 1703 3394 2363 3394 
Q 2653 3394 2893 3289 
Q 3134 3184 3257 3021 
Q 3381 2859 3429 2653 
Q 3478 2447 3478 2063 
L 3478 0 
z
" transform="scale(0.015625)"/>
      <path id="Arial-BoldMT-20" transform="scale(0.015625)"/>
      <path id="Arial-BoldMT-42" d="M 469 4581 
L 2300 4581 
Q 2844 4581 3111 4536 
Q 3378 4491 3589 4347 
Q 3800 4203 3940 3964 
Q 4081 3725 4081 3428 
Q 4081 3106 3907 2837 
Q 3734 2569 3438 2434 
Q 3856 2313 4081 2019 
Q 4306 1725 4306 1328 
Q 4306 1016 4161 720 
Q 4016 425 3764 248 
Q 3513 72 3144 31 
Q 2913 6 2028 0 
L 469 0 
L 469 4581 
z
M 1394 3819 
L 1394 2759 
L 2000 2759 
Q 2541 2759 2672 2775 
Q 2909 2803 3045 2939 
Q 3181 3075 3181 3297 
Q 3181 3509 3064 3642 
Q 2947 3775 2716 3803 
Q 2578 3819 1925 3819 
L 1394 3819 
z
M 1394 1997 
L 1394 772 
L 2250 772 
Q 2750 772 2884 800 
Q 3091 838 3220 983 
Q 3350 1128 3350 1372 
Q 3350 1578 3250 1722 
Q 3150 1866 2961 1931 
Q 2772 1997 2141 1997 
L 1394 1997 
z
" transform="scale(0.015625)"/>
      <path id="Arial-BoldMT-4e" d="M 475 0 
L 475 4581 
L 1375 4581 
L 3250 1522 
L 3250 4581 
L 4109 4581 
L 4109 0 
L 3181 0 
L 1334 2988 
L 1334 0 
L 475 0 
z
" transform="scale(0.015625)"/>
      <path id="Arial-BoldMT-74" d="M 1981 3319 
L 1981 2619 
L 1381 2619 
L 1381 1281 
Q 1381 875 1398 808 
Q 1416 741 1477 697 
Q 1538 653 1625 653 
Q 1747 653 1978 738 
L 2053 56 
Q 1747 -75 1359 -75 
Q 1122 -75 931 4 
Q 741 84 652 211 
Q 563 338 528 553 
Q 500 706 500 1172 
L 500 2619 
L 97 2619 
L 97 3319 
L 500 3319 
L 500 3978 
L 1381 4491 
L 1381 3319 
L 1981 3319 
z
" transform="scale(0.015625)"/>
      <path id="Arial-BoldMT-77" d="M 1078 0 
L 28 3319 
L 881 3319 
L 1503 1144 
L 2075 3319 
L 2922 3319 
L 3475 1144 
L 4109 3319 
L 4975 3319 
L 3909 0 
L 3066 0 
L 2494 2134 
L 1931 0 
L 1078 0 
z
" transform="scale(0.015625)"/>
      <path id="Arial-BoldMT-6b" d="M 428 0 
L 428 4581 
L 1306 4581 
L 1306 2150 
L 2334 3319 
L 3416 3319 
L 2281 2106 
L 3497 0 
L 2550 0 
L 1716 1491 
L 1306 1063 
L 1306 0 
L 428 0 
z
" transform="scale(0.015625)"/>
      <path id="Arial-BoldMT-44" d="M 463 4581 
L 2153 4581 
Q 2725 4581 3025 4494 
Q 3428 4375 3715 4072 
Q 4003 3769 4153 3330 
Q 4303 2891 4303 2247 
Q 4303 1681 4163 1272 
Q 3991 772 3672 463 
Q 3431 228 3022 97 
Q 2716 0 2203 0 
L 463 0 
L 463 4581 
z
M 1388 3806 
L 1388 772 
L 2078 772 
Q 2466 772 2638 816 
Q 2863 872 3011 1006 
Q 3159 1141 3253 1448 
Q 3347 1756 3347 2288 
Q 3347 2819 3253 3103 
Q 3159 3388 2990 3547 
Q 2822 3706 2563 3763 
Q 2369 3806 1803 3806 
L 1388 3806 
z
" transform="scale(0.015625)"/>
      <path id="Arial-BoldMT-61" d="M 1116 2306 
L 319 2450 
Q 453 2931 781 3162 
Q 1109 3394 1756 3394 
Q 2344 3394 2631 3255 
Q 2919 3116 3036 2902 
Q 3153 2688 3153 2116 
L 3144 1091 
Q 3144 653 3186 445 
Q 3228 238 3344 0 
L 2475 0 
Q 2441 88 2391 259 
Q 2369 338 2359 363 
Q 2134 144 1878 34 
Q 1622 -75 1331 -75 
Q 819 -75 523 203 
Q 228 481 228 906 
Q 228 1188 362 1408 
Q 497 1628 739 1745 
Q 981 1863 1438 1950 
Q 2053 2066 2291 2166 
L 2291 2253 
Q 2291 2506 2166 2614 
Q 2041 2722 1694 2722 
Q 1459 2722 1328 2630 
Q 1197 2538 1116 2306 
z
M 2291 1594 
Q 2122 1538 1756 1459 
Q 1391 1381 1278 1306 
Q 1106 1184 1106 997 
Q 1106 813 1243 678 
Q 1381 544 1594 544 
Q 1831 544 2047 700 
Q 2206 819 2256 991 
Q 2291 1103 2291 1419 
L 2291 1594 
z
" transform="scale(0.015625)"/>
      <path id="Arial-BoldMT-6d" d="M 394 3319 
L 1203 3319 
L 1203 2866 
Q 1638 3394 2238 3394 
Q 2556 3394 2790 3262 
Q 3025 3131 3175 2866 
Q 3394 3131 3647 3262 
Q 3900 3394 4188 3394 
Q 4553 3394 4806 3245 
Q 5059 3097 5184 2809 
Q 5275 2597 5275 2122 
L 5275 0 
L 4397 0 
L 4397 1897 
Q 4397 2391 4306 2534 
Q 4184 2722 3931 2722 
Q 3747 2722 3584 2609 
Q 3422 2497 3350 2280 
Q 3278 2063 3278 1594 
L 3278 0 
L 2400 0 
L 2400 1819 
Q 2400 2303 2353 2443 
Q 2306 2584 2207 2653 
Q 2109 2722 1941 2722 
Q 1738 2722 1575 2612 
Q 1413 2503 1342 2297 
Q 1272 2091 1272 1613 
L 1272 0 
L 394 0 
L 394 3319 
z
" transform="scale(0.015625)"/>
      <path id="Arial-BoldMT-69" d="M 459 3769 
L 459 4581 
L 1338 4581 
L 1338 3769 
L 459 3769 
z
M 459 0 
L 459 3319 
L 1338 3319 
L 1338 0 
L 459 0 
z
" transform="scale(0.015625)"/>
      <path id="Arial-BoldMT-63" d="M 3353 2338 
L 2488 2181 
Q 2444 2441 2289 2572 
Q 2134 2703 1888 2703 
Q 1559 2703 1364 2476 
Q 1169 2250 1169 1719 
Q 1169 1128 1367 884 
Q 1566 641 1900 641 
Q 2150 641 2309 783 
Q 2469 925 2534 1272 
L 3397 1125 
Q 3263 531 2881 228 
Q 2500 -75 1859 -75 
Q 1131 -75 698 384 
Q 266 844 266 1656 
Q 266 2478 700 2936 
Q 1134 3394 1875 3394 
Q 2481 3394 2839 3133 
Q 3197 2872 3353 2338 
z
" transform="scale(0.015625)"/>
      <path id="Arial-BoldMT-73" d="M 150 947 
L 1031 1081 
Q 1088 825 1259 692 
Q 1431 559 1741 559 
Q 2081 559 2253 684 
Q 2369 772 2369 919 
Q 2369 1019 2306 1084 
Q 2241 1147 2013 1200 
Q 950 1434 666 1628 
Q 272 1897 272 2375 
Q 272 2806 612 3100 
Q 953 3394 1669 3394 
Q 2350 3394 2681 3172 
Q 3013 2950 3138 2516 
L 2309 2363 
Q 2256 2556 2107 2659 
Q 1959 2763 1684 2763 
Q 1338 2763 1188 2666 
Q 1088 2597 1088 2488 
Q 1088 2394 1175 2328 
Q 1294 2241 1995 2081 
Q 2697 1922 2975 1691 
Q 3250 1456 3250 1038 
Q 3250 581 2869 253 
Q 2488 -75 1741 -75 
Q 1063 -75 667 200 
Q 272 475 150 947 
z
" transform="scale(0.015625)"/>
     </defs>
     <use xlink:href="#Arial-BoldMT-48"/>
     <use xlink:href="#Arial-BoldMT-79" transform="translate(72.216797 0)"/>
     <use xlink:href="#Arial-BoldMT-64" transform="translate(127.832031 0)"/>
     <use xlink:href="#Arial-BoldMT-72" transform="translate(188.916016 0)"/>
     <use xlink:href="#Arial-BoldMT-6f" transform="translate(227.832031 0)"/>
     <use xlink:href="#Arial-BoldMT-67" transform="translate(288.916016 0)"/>
     <use xlink:href="#Arial-BoldMT-65" transform="translate(350 0)"/>
     <use xlink:href="#Arial-BoldMT-6e" transform="translate(405.615234 0)"/>
     <use xlink:href="#Arial-BoldMT-20" transform="translate(466.699219 0)"/>
     <use xlink:href="#Arial-BoldMT-42" transform="translate(494.482422 0)"/>
     <use xlink:href="#Arial-BoldMT-6f" transform="translate(566.699219 0)"/>
     <use xlink:href="#Arial-BoldMT-6e" transform="translate(627.783203 0)"/>
     <use xlink:href="#Arial-BoldMT-64" transform="translate(688.867188 0)"/>
     <use xlink:href="#Arial-BoldMT-20" transform="translate(749.951172 0)"/>
     <use xlink:href="#Arial-BoldMT-4e" transform="translate(777.734375 0)"/>
     <use xlink:href="#Arial-BoldMT-65" transform="translate(849.951172 0)"/>
     <use xlink:href="#Arial-BoldMT-74" transform="translate(905.566406 0)"/>
     <use xlink:href="#Arial-BoldMT-77" transform="translate(938.867188 0)"/>
     <use xlink:href="#Arial-BoldMT-6f" transform="translate(1016.650391 0)"/>
     <use xlink:href="#Arial-BoldMT-72" transform="translate(1077.734375 0)"/>
     <use xlink:href="#Arial-BoldMT-6b" transform="translate(1116.650391 0)"/>
     <use xlink:href="#Arial-BoldMT-20" transform="translate(1172.265625 0)"/>
     <use xlink:href="#Arial-BoldMT-44" transform="translate(1200.048828 0)"/>
     <use xlink:href="#Arial-BoldMT-79" transform="translate(1272.265625 0)"/>
     <use xlink:href="#Arial-BoldMT-6e" transform="translate(1327.880859 0)"/>
     <use xlink:href="#Arial-BoldMT-61" transform="translate(1388.964844 0)"/>
     <use xlink:href="#Arial-BoldMT-6d" transform="translate(1444.580078 0)"/>
     <use xlink:href="#Arial-BoldMT-69" transform="translate(1533.496094 0)"/>
     <use xlink:href="#Arial-BoldMT-63" transform="translate(1561.279297 0)"/>
     <use xlink:href="#Arial-BoldMT-73" transform="translate(1616.894531 0)"/>
    </g>
   </g>
  </g>
 </g>
 <defs>
  <clipPath id="pd1526cb2d5">
   <rect x="45.131844" y="23.220938" width="653.688" height="208.25175"/>
  </clipPath>
 </defs>
</svg>
